<svg xmlns="http://www.w3.org/2000/svg" xmlns:xlink="http://www.w3.org/1999/xlink" width="230" zoomAndPan="magnify" viewBox="0 0 172.5 112.499997" height="150" preserveAspectRatio="xMidYMid meet" version="1.0"><defs><g/><clipPath id="a82e82fc0c"><path d="M 0.132812 0 L 171.871094 0 L 171.871094 112.003906 L 0.132812 112.003906 Z M 0.132812 0 " clip-rule="nonzero"/></clipPath><clipPath id="b28c9e7f93"><path d="M 67.773438 16.699219 L 104.359375 16.699219 L 104.359375 61.5 L 67.773438 61.5 Z M 67.773438 16.699219 " clip-rule="nonzero"/></clipPath></defs><g clip-path="url(#a82e82fc0c)"><path fill="#ffffff" d="M 0.132812 0 L 171.871094 0 L 171.871094 112.003906 L 0.132812 112.003906 Z M 0.132812 0 " fill-opacity="1" fill-rule="nonzero"/><path fill="#f3f1ea" d="M 0.132812 0 L 171.871094 0 L 171.871094 112.003906 L 0.132812 112.003906 Z M 0.132812 0 " fill-opacity="1" fill-rule="nonzero"/></g><g clip-path="url(#b28c9e7f93)"><path fill="#5e1ff0" d="M 67.832031 45.835938 L 68.371094 45.632812 L 68.707031 45.429688 L 69.109375 45.027344 L 69.375 44.890625 L 69.511719 44.890625 L 69.644531 44.554688 L 69.578125 44.554688 L 69.578125 44.355469 L 69.308594 44.015625 L 68.972656 43.816406 L 68.636719 43.679688 L 68.636719 43.210938 L 68.972656 42.941406 L 69.175781 42.804688 L 69.308594 42.535156 L 69.644531 42.132812 L 69.78125 40.921875 L 69.847656 40.515625 L 69.980469 39.640625 L 70.183594 38.699219 L 70.316406 38.160156 L 70.988281 37.082031 L 71.191406 36.679688 L 71.792969 36.546875 L 72.332031 36.476562 L 72.867188 36.207031 L 73.273438 35.871094 L 73.40625 35.804688 L 73.273438 35.535156 L 73.003906 34.996094 L 72.667969 34.59375 L 72.265625 33.851562 L 71.996094 33.3125 L 71.792969 32.773438 L 71.792969 31.023438 L 71.660156 30.621094 L 71.457031 30.417969 L 71.390625 30.285156 L 71.457031 29.949219 L 71.726562 28.667969 L 72.128906 27.589844 L 72.398438 26.515625 L 72.398438 25.976562 L 72.199219 24.160156 L 72.0625 23.957031 L 71.996094 23.6875 L 72.199219 23.285156 L 72.332031 23.148438 L 72.464844 22.878906 L 72.734375 22.746094 L 73.136719 22.746094 L 73.472656 23.015625 L 73.539062 23.214844 L 73.742188 23.484375 L 73.742188 23.621094 L 73.941406 23.753906 L 74.210938 23.890625 L 74.75 23.753906 L 75.21875 23.753906 L 75.421875 23.417969 L 75.554688 23.351562 L 75.6875 22.8125 L 76.898438 16.753906 L 83.144531 18.03125 L 87.574219 18.636719 L 92.007812 19.378906 L 96.371094 20.121094 L 100.804688 20.726562 L 104.160156 21.265625 L 98.789062 61.453125 L 87.105469 59.566406 L 67.832031 46.238281 L 67.832031 45.835938 " fill-opacity="1" fill-rule="nonzero"/><path stroke-linecap="square" transform="matrix(0.0215631, 0, 0, -0.0215631, 67.787451, 61.504464)" fill="none" stroke-linejoin="miter" d="M 2.067431 726.636914 L 27.066764 736.056952 L 42.646058 745.476991 L 61.30498 764.135913 L 73.623492 770.476324 L 79.963903 770.476324 L 86.123159 786.055618 L 83.043531 786.055618 L 83.043531 795.294502 L 70.543864 811.054951 L 54.96457 820.293835 L 39.385276 826.634245 L 39.385276 848.372796 L 54.96457 860.872462 L 64.384608 867.212873 L 70.543864 879.712539 L 86.123159 898.371462 L 92.463569 954.529383 L 95.543197 973.36946 L 101.702453 1013.948088 L 111.122492 1057.606343 L 117.281748 1082.605676 L 148.440337 1132.604342 L 157.860375 1151.263264 L 185.758181 1157.42252 L 210.757514 1160.683303 L 235.575693 1173.182969 L 254.41577 1188.762264 L 260.575025 1191.841892 L 254.41577 1204.341558 L 241.916103 1229.340891 L 226.336809 1247.999813 L 207.677886 1282.419185 L 195.17822 1307.418518 L 185.758181 1332.417851 L 185.758181 1413.575105 L 179.598925 1432.234028 L 170.178887 1441.654066 L 167.099259 1447.813322 L 170.178887 1463.392617 L 182.678553 1522.811321 L 201.337476 1572.809987 L 213.837142 1622.627498 L 213.837142 1647.626831 L 204.598258 1731.863714 L 198.257848 1741.283752 L 195.17822 1753.783419 L 204.598258 1772.442341 L 210.757514 1778.782751 L 216.91677 1791.282418 L 229.416437 1797.441674 L 248.075359 1797.441674 L 263.654653 1784.942007 L 266.734281 1775.703124 L 276.15432 1763.203457 L 276.15432 1756.863047 L 285.393204 1750.703791 L 297.89287 1744.36338 L 322.892203 1750.703791 L 344.630754 1750.703791 L 354.050792 1766.283085 L 360.210048 1769.362713 L 366.369304 1794.362046 L 422.527226 2075.332809 L 712.193409 2016.09526 L 917.62271 1988.016299 L 1123.233166 1953.596927 L 1325.582839 1919.177556 L 1531.193294 1891.098595 L 1686.805084 1866.099262 L 1437.717528 2.380877 L 895.88416 89.878543 L 2.067431 707.977991 Z M 2.067431 726.636914 " stroke="#30312d" stroke-width="4.167" stroke-opacity="1" stroke-miterlimit="10"/></g><g fill="#000000" fill-opacity="1"><g transform="translate(53.21369, 75.86559)"><g><path d="M 0.40625 -4.671875 C 0.40625 -5.640625 0.578125 -6.484375 0.921875 -7.203125 C 1.273438 -7.921875 1.753906 -8.472656 2.359375 -8.859375 C 2.960938 -9.242188 3.632812 -9.4375 4.375 -9.4375 C 5.019531 -9.4375 5.570312 -9.304688 6.03125 -9.046875 C 6.5 -8.796875 6.859375 -8.457031 7.109375 -8.03125 L 7.109375 -9.328125 L 10.375 -9.328125 L 10.375 0 L 7.109375 0 L 7.109375 -1.296875 C 6.859375 -0.859375 6.492188 -0.515625 6.015625 -0.265625 C 5.546875 -0.015625 5 0.109375 4.375 0.109375 C 3.632812 0.109375 2.960938 -0.0820312 2.359375 -0.46875 C 1.753906 -0.851562 1.273438 -1.40625 0.921875 -2.125 C 0.578125 -2.851562 0.40625 -3.703125 0.40625 -4.671875 Z M 7.109375 -4.671875 C 7.109375 -5.265625 6.945312 -5.734375 6.625 -6.078125 C 6.300781 -6.421875 5.898438 -6.59375 5.421875 -6.59375 C 4.929688 -6.59375 4.523438 -6.425781 4.203125 -6.09375 C 3.878906 -5.757812 3.71875 -5.285156 3.71875 -4.671875 C 3.71875 -4.078125 3.878906 -3.601562 4.203125 -3.25 C 4.523438 -2.894531 4.929688 -2.71875 5.421875 -2.71875 C 5.898438 -2.71875 6.300781 -2.890625 6.625 -3.234375 C 6.945312 -3.578125 7.109375 -4.054688 7.109375 -4.671875 Z M 7.109375 -4.671875 "/></g></g></g><g fill="#000000" fill-opacity="1"><g transform="translate(64.514783, 75.86559)"><g><path d="M 4.1875 -7.6875 C 4.550781 -8.21875 4.992188 -8.632812 5.515625 -8.9375 C 6.035156 -9.25 6.597656 -9.40625 7.203125 -9.40625 L 7.203125 -5.9375 L 6.28125 -5.9375 C 5.570312 -5.9375 5.046875 -5.796875 4.703125 -5.515625 C 4.359375 -5.242188 4.1875 -4.765625 4.1875 -4.078125 L 4.1875 0 L 0.9375 0 L 0.9375 -9.328125 L 4.1875 -9.328125 Z M 4.1875 -7.6875 "/></g></g></g><g fill="#000000" fill-opacity="1"><g transform="translate(71.943585, 75.86559)"><g><path d="M 2.578125 -10.1875 C 2.003906 -10.1875 1.539062 -10.34375 1.1875 -10.65625 C 0.84375 -10.976562 0.671875 -11.378906 0.671875 -11.859375 C 0.671875 -12.335938 0.84375 -12.738281 1.1875 -13.0625 C 1.539062 -13.382812 2.003906 -13.546875 2.578125 -13.546875 C 3.140625 -13.546875 3.59375 -13.382812 3.9375 -13.0625 C 4.289062 -12.738281 4.46875 -12.335938 4.46875 -11.859375 C 4.46875 -11.378906 4.289062 -10.976562 3.9375 -10.65625 C 3.59375 -10.34375 3.140625 -10.1875 2.578125 -10.1875 Z M 4.1875 -9.328125 L 4.1875 0 L 0.9375 0 L 0.9375 -9.328125 Z M 4.1875 -9.328125 "/></g></g></g><g fill="#000000" fill-opacity="1"><g transform="translate(77.062315, 75.86559)"><g><path d="M 4.015625 -2.703125 L 8 -2.703125 L 8 0 L 0.4375 0 L 0.4375 -2.578125 L 4.140625 -6.609375 L 0.46875 -6.609375 L 0.46875 -9.328125 L 7.859375 -9.328125 L 7.859375 -6.75 Z M 4.015625 -2.703125 "/></g></g></g><g fill="#000000" fill-opacity="1"><g transform="translate(85.488277, 75.86559)"><g><path d="M 5.265625 0.109375 C 4.335938 0.109375 3.503906 -0.0820312 2.765625 -0.46875 C 2.023438 -0.851562 1.445312 -1.40625 1.03125 -2.125 C 0.613281 -2.84375 0.40625 -3.691406 0.40625 -4.671875 C 0.40625 -5.640625 0.613281 -6.484375 1.03125 -7.203125 C 1.457031 -7.921875 2.039062 -8.472656 2.78125 -8.859375 C 3.519531 -9.242188 4.351562 -9.4375 5.28125 -9.4375 C 6.21875 -9.4375 7.050781 -9.242188 7.78125 -8.859375 C 8.519531 -8.472656 9.101562 -7.921875 9.53125 -7.203125 C 9.957031 -6.484375 10.171875 -5.640625 10.171875 -4.671875 C 10.171875 -3.703125 9.957031 -2.851562 9.53125 -2.125 C 9.101562 -1.40625 8.519531 -0.851562 7.78125 -0.46875 C 7.039062 -0.0820312 6.203125 0.109375 5.265625 0.109375 Z M 5.265625 -2.703125 C 5.722656 -2.703125 6.101562 -2.867188 6.40625 -3.203125 C 6.707031 -3.546875 6.859375 -4.035156 6.859375 -4.671875 C 6.859375 -5.304688 6.707031 -5.785156 6.40625 -6.109375 C 6.101562 -6.441406 5.726562 -6.609375 5.28125 -6.609375 C 4.84375 -6.609375 4.472656 -6.441406 4.171875 -6.109375 C 3.867188 -5.785156 3.71875 -5.304688 3.71875 -4.671875 C 3.71875 -4.023438 3.863281 -3.535156 4.15625 -3.203125 C 4.445312 -2.867188 4.816406 -2.703125 5.265625 -2.703125 Z M 5.265625 -2.703125 "/></g></g></g><g fill="#000000" fill-opacity="1"><g transform="translate(96.05813, 75.86559)"><g><path d="M 7.03125 -9.40625 C 8.101562 -9.40625 8.957031 -9.046875 9.59375 -8.328125 C 10.226562 -7.617188 10.546875 -6.65625 10.546875 -5.4375 L 10.546875 0 L 7.28125 0 L 7.28125 -5 C 7.28125 -5.53125 7.140625 -5.945312 6.859375 -6.25 C 6.585938 -6.5625 6.21875 -6.71875 5.75 -6.71875 C 5.257812 -6.71875 4.875 -6.5625 4.59375 -6.25 C 4.320312 -5.945312 4.1875 -5.53125 4.1875 -5 L 4.1875 0 L 0.9375 0 L 0.9375 -9.328125 L 4.1875 -9.328125 L 4.1875 -8 C 4.476562 -8.414062 4.863281 -8.753906 5.34375 -9.015625 C 5.832031 -9.273438 6.394531 -9.40625 7.03125 -9.40625 Z M 7.03125 -9.40625 "/></g></g></g><g fill="#000000" fill-opacity="1"><g transform="translate(107.458947, 75.86559)"><g><path d="M 0.40625 -4.671875 C 0.40625 -5.640625 0.578125 -6.484375 0.921875 -7.203125 C 1.273438 -7.921875 1.753906 -8.472656 2.359375 -8.859375 C 2.960938 -9.242188 3.632812 -9.4375 4.375 -9.4375 C 5.019531 -9.4375 5.570312 -9.304688 6.03125 -9.046875 C 6.5 -8.796875 6.859375 -8.457031 7.109375 -8.03125 L 7.109375 -9.328125 L 10.375 -9.328125 L 10.375 0 L 7.109375 0 L 7.109375 -1.296875 C 6.859375 -0.859375 6.492188 -0.515625 6.015625 -0.265625 C 5.546875 -0.015625 5 0.109375 4.375 0.109375 C 3.632812 0.109375 2.960938 -0.0820312 2.359375 -0.46875 C 1.753906 -0.851562 1.273438 -1.40625 0.921875 -2.125 C 0.578125 -2.851562 0.40625 -3.703125 0.40625 -4.671875 Z M 7.109375 -4.671875 C 7.109375 -5.265625 6.945312 -5.734375 6.625 -6.078125 C 6.300781 -6.421875 5.898438 -6.59375 5.421875 -6.59375 C 4.929688 -6.59375 4.523438 -6.425781 4.203125 -6.09375 C 3.878906 -5.757812 3.71875 -5.285156 3.71875 -4.671875 C 3.71875 -4.078125 3.878906 -3.601562 4.203125 -3.25 C 4.523438 -2.894531 4.929688 -2.71875 5.421875 -2.71875 C 5.898438 -2.71875 6.300781 -2.890625 6.625 -3.234375 C 6.945312 -3.578125 7.109375 -4.054688 7.109375 -4.671875 Z M 7.109375 -4.671875 "/></g></g></g></svg>