<svg xmlns="http://www.w3.org/2000/svg" xmlns:xlink="http://www.w3.org/1999/xlink" width="230" zoomAndPan="magnify" viewBox="0 0 172.5 112.499997" height="150" preserveAspectRatio="xMidYMid meet" version="1.0"><defs><g/><clipPath id="a99767415b"><path d="M 0.132812 0 L 171.871094 0 L 171.871094 112.003906 L 0.132812 112.003906 Z M 0.132812 0 " clip-rule="nonzero"/></clipPath><clipPath id="17b4ccf6de"><path d="M 72 23.582031 L 100.234375 23.582031 L 100.234375 55.691406 L 72 55.691406 Z M 72 23.582031 " clip-rule="nonzero"/></clipPath></defs><g clip-path="url(#a99767415b)"><path fill="#ffffff" d="M 0.132812 0 L 171.871094 0 L 171.871094 112.003906 L 0.132812 112.003906 Z M 0.132812 0 " fill-opacity="1" fill-rule="nonzero"/><path fill="#f3f1ea" d="M 0.132812 0 L 171.871094 0 L 171.871094 112.003906 L 0.132812 112.003906 Z M 0.132812 0 " fill-opacity="1" fill-rule="nonzero"/></g><g clip-path="url(#17b4ccf6de)"><path fill="#5e1ff0" d="M 100.027344 50.253906 C 99.929688 49.964844 99.398438 49.867188 99.542969 49.816406 C 99.6875 49.769531 98.71875 48.554688 98.71875 48.554688 L 98.695312 47.949219 L 83.964844 34.386719 L 83.820312 23.582031 L 72.53125 23.582031 L 72.265625 24.382812 L 72.554688 24.382812 L 72.554688 24.625 L 72.84375 25.207031 L 72.796875 25.738281 L 72.554688 26.367188 C 72.554688 26.367188 72.796875 26.898438 72.699219 27.09375 C 72.601562 27.289062 72.019531 29.128906 72.019531 29.128906 L 72.019531 29.417969 C 72.019531 29.417969 71.875 29.660156 72.796875 30.335938 C 73.71875 31.019531 73.382812 32.714844 73.382812 32.714844 L 73.867188 33.976562 L 73.867188 34.554688 C 73.867188 34.554688 75.128906 35.960938 75.320312 36.152344 C 75.515625 36.347656 75.753906 37.21875 75.753906 37.21875 L 75.753906 37.605469 L 76.238281 37.605469 L 76.625 38.089844 L 77.15625 38.332031 L 77.203125 37.992188 L 77.300781 37.652344 C 77.300781 37.652344 76.816406 37.941406 77.203125 37.410156 C 77.589844 36.878906 77.6875 37.605469 77.6875 37.605469 L 77.398438 38.089844 L 77.6875 38.1875 L 77.492188 38.523438 L 77.832031 38.8125 L 78.171875 39.296875 L 78.125 39.585938 C 78.125 39.585938 78.125 39.585938 78.027344 39.441406 C 77.929688 39.296875 77.398438 39.246094 77.398438 39.246094 C 77.398438 39.246094 77.542969 38.90625 77.445312 38.90625 C 77.347656 38.90625 77.347656 38.519531 77.347656 38.519531 L 77.105469 38.714844 L 77.058594 39.34375 L 77.058594 39.539062 L 77.300781 39.78125 L 77.15625 40.3125 L 77.496094 40.699219 L 77.882812 41.328125 L 78.707031 41.230469 C 78.707031 41.230469 79.09375 41.714844 79.046875 42.101562 C 79 42.488281 78.609375 42.390625 78.609375 42.390625 L 78.851562 43.167969 C 78.851562 43.167969 79.09375 43.699219 79.140625 43.894531 C 79.1875 44.089844 79.820312 44.863281 79.820312 44.863281 L 80.207031 45.25 C 80.207031 45.25 80.304688 45.492188 80.351562 45.636719 C 80.398438 45.78125 80.738281 45.78125 80.738281 45.78125 L 80.933594 45.976562 L 81.175781 46.558594 C 81.175781 46.558594 81.320312 46.269531 81.515625 46.511719 C 81.710938 46.753906 81.46875 47.1875 81.46875 47.1875 L 82.097656 47.382812 L 82.242188 47.671875 L 82.144531 48.15625 L 82.339844 48.445312 L 82.292969 48.6875 L 82.292969 49.367188 L 82.921875 49.898438 C 82.921875 49.898438 83.550781 49.753906 83.648438 49.703125 C 83.746094 49.65625 84.324219 49.75 84.324219 49.75 L 85.246094 49.894531 L 85.730469 50.378906 L 86.261719 51.007812 L 87.039062 51.105469 L 87.621094 51.105469 L 88.105469 51.152344 L 88.445312 51.78125 L 88.25 51.976562 L 88.640625 52.265625 C 88.640625 52.265625 88.929688 52.121094 89.027344 51.925781 C 89.125 51.730469 89.269531 52.214844 89.269531 52.214844 C 91.257812 53.863281 91.546875 55.605469 91.546875 55.605469 L 91.742188 55.992188 L 97.75 55.652344 L 98.914062 55.410156 L 99.253906 55.125 L 99.15625 54.59375 L 98.476562 54.304688 L 98.429688 53.527344 L 98.429688 53.257812 L 98.769531 53.257812 C 99.351562 52.238281 98.816406 51.511719 98.816406 51.511719 C 98.816406 51.511719 99.253906 51.171875 99.253906 50.882812 C 99.25 50.589844 100.125 50.542969 100.027344 50.253906 Z M 100.027344 50.253906 " fill-opacity="1" fill-rule="nonzero"/></g><g fill="#000000" fill-opacity="1"><g transform="translate(44.172864, 75.865618)"><g><path d="M 0.40625 -4.671875 C 0.40625 -5.640625 0.601562 -6.484375 1 -7.203125 C 1.394531 -7.921875 1.945312 -8.472656 2.65625 -8.859375 C 3.375 -9.242188 4.195312 -9.4375 5.125 -9.4375 C 6.3125 -9.4375 7.304688 -9.113281 8.109375 -8.46875 C 8.921875 -7.820312 9.441406 -6.914062 9.671875 -5.75 L 6.21875 -5.75 C 6.019531 -6.363281 5.628906 -6.671875 5.046875 -6.671875 C 4.640625 -6.671875 4.316406 -6.5 4.078125 -6.15625 C 3.835938 -5.820312 3.71875 -5.328125 3.71875 -4.671875 C 3.71875 -4.015625 3.835938 -3.515625 4.078125 -3.171875 C 4.316406 -2.828125 4.640625 -2.65625 5.046875 -2.65625 C 5.640625 -2.65625 6.03125 -2.960938 6.21875 -3.578125 L 9.671875 -3.578125 C 9.441406 -2.421875 8.921875 -1.515625 8.109375 -0.859375 C 7.304688 -0.210938 6.3125 0.109375 5.125 0.109375 C 4.195312 0.109375 3.375 -0.0820312 2.65625 -0.46875 C 1.945312 -0.851562 1.394531 -1.40625 1 -2.125 C 0.601562 -2.84375 0.40625 -3.691406 0.40625 -4.671875 Z M 0.40625 -4.671875 "/></g></g></g><g fill="#000000" fill-opacity="1"><g transform="translate(54.260755, 75.865618)"><g><path d="M 0.40625 -4.671875 C 0.40625 -5.640625 0.578125 -6.484375 0.921875 -7.203125 C 1.273438 -7.921875 1.753906 -8.472656 2.359375 -8.859375 C 2.960938 -9.242188 3.632812 -9.4375 4.375 -9.4375 C 5.019531 -9.4375 5.570312 -9.304688 6.03125 -9.046875 C 6.5 -8.796875 6.859375 -8.457031 7.109375 -8.03125 L 7.109375 -9.328125 L 10.375 -9.328125 L 10.375 0 L 7.109375 0 L 7.109375 -1.296875 C 6.859375 -0.859375 6.492188 -0.515625 6.015625 -0.265625 C 5.546875 -0.015625 5 0.109375 4.375 0.109375 C 3.632812 0.109375 2.960938 -0.0820312 2.359375 -0.46875 C 1.753906 -0.851562 1.273438 -1.40625 0.921875 -2.125 C 0.578125 -2.851562 0.40625 -3.703125 0.40625 -4.671875 Z M 7.109375 -4.671875 C 7.109375 -5.265625 6.945312 -5.734375 6.625 -6.078125 C 6.300781 -6.421875 5.898438 -6.59375 5.421875 -6.59375 C 4.929688 -6.59375 4.523438 -6.425781 4.203125 -6.09375 C 3.878906 -5.757812 3.71875 -5.285156 3.71875 -4.671875 C 3.71875 -4.078125 3.878906 -3.601562 4.203125 -3.25 C 4.523438 -2.894531 4.929688 -2.71875 5.421875 -2.71875 C 5.898438 -2.71875 6.300781 -2.890625 6.625 -3.234375 C 6.945312 -3.578125 7.109375 -4.054688 7.109375 -4.671875 Z M 7.109375 -4.671875 "/></g></g></g><g fill="#000000" fill-opacity="1"><g transform="translate(65.561848, 75.865618)"><g><path d="M 4.1875 -12.296875 L 4.1875 0 L 0.9375 0 L 0.9375 -12.296875 Z M 4.1875 -12.296875 "/></g></g></g><g fill="#000000" fill-opacity="1"><g transform="translate(70.680578, 75.865618)"><g><path d="M 2.578125 -10.1875 C 2.003906 -10.1875 1.539062 -10.34375 1.1875 -10.65625 C 0.84375 -10.976562 0.671875 -11.378906 0.671875 -11.859375 C 0.671875 -12.335938 0.84375 -12.738281 1.1875 -13.0625 C 1.539062 -13.382812 2.003906 -13.546875 2.578125 -13.546875 C 3.140625 -13.546875 3.59375 -13.382812 3.9375 -13.0625 C 4.289062 -12.738281 4.46875 -12.335938 4.46875 -11.859375 C 4.46875 -11.378906 4.289062 -10.976562 3.9375 -10.65625 C 3.59375 -10.34375 3.140625 -10.1875 2.578125 -10.1875 Z M 4.1875 -9.328125 L 4.1875 0 L 0.9375 0 L 0.9375 -9.328125 Z M 4.1875 -9.328125 "/></g></g></g><g fill="#000000" fill-opacity="1"><g transform="translate(75.799309, 75.865618)"><g><path d="M 5.96875 -6.609375 L 4.5 -6.609375 L 4.5 0 L 1.234375 0 L 1.234375 -6.609375 L 0.21875 -6.609375 L 0.21875 -9.328125 L 1.234375 -9.328125 L 1.234375 -9.40625 C 1.234375 -10.601562 1.582031 -11.519531 2.28125 -12.15625 C 2.988281 -12.789062 4 -13.109375 5.3125 -13.109375 C 5.582031 -13.109375 5.789062 -13.101562 5.9375 -13.09375 L 5.9375 -10.328125 C 5.84375 -10.335938 5.71875 -10.34375 5.5625 -10.34375 C 5.207031 -10.34375 4.945312 -10.257812 4.78125 -10.09375 C 4.613281 -9.9375 4.519531 -9.679688 4.5 -9.328125 L 5.96875 -9.328125 Z M 5.96875 -6.609375 "/></g></g></g><g fill="#000000" fill-opacity="1"><g transform="translate(81.998297, 75.865618)"><g><path d="M 5.265625 0.109375 C 4.335938 0.109375 3.503906 -0.0820312 2.765625 -0.46875 C 2.023438 -0.851562 1.445312 -1.40625 1.03125 -2.125 C 0.613281 -2.84375 0.40625 -3.691406 0.40625 -4.671875 C 0.40625 -5.640625 0.613281 -6.484375 1.03125 -7.203125 C 1.457031 -7.921875 2.039062 -8.472656 2.78125 -8.859375 C 3.519531 -9.242188 4.351562 -9.4375 5.28125 -9.4375 C 6.21875 -9.4375 7.050781 -9.242188 7.78125 -8.859375 C 8.519531 -8.472656 9.101562 -7.921875 9.53125 -7.203125 C 9.957031 -6.484375 10.171875 -5.640625 10.171875 -4.671875 C 10.171875 -3.703125 9.957031 -2.851562 9.53125 -2.125 C 9.101562 -1.40625 8.519531 -0.851562 7.78125 -0.46875 C 7.039062 -0.0820312 6.203125 0.109375 5.265625 0.109375 Z M 5.265625 -2.703125 C 5.722656 -2.703125 6.101562 -2.867188 6.40625 -3.203125 C 6.707031 -3.546875 6.859375 -4.035156 6.859375 -4.671875 C 6.859375 -5.304688 6.707031 -5.785156 6.40625 -6.109375 C 6.101562 -6.441406 5.726562 -6.609375 5.28125 -6.609375 C 4.84375 -6.609375 4.472656 -6.441406 4.171875 -6.109375 C 3.867188 -5.785156 3.71875 -5.304688 3.71875 -4.671875 C 3.71875 -4.023438 3.863281 -3.535156 4.15625 -3.203125 C 4.445312 -2.867188 4.816406 -2.703125 5.265625 -2.703125 Z M 5.265625 -2.703125 "/></g></g></g><g fill="#000000" fill-opacity="1"><g transform="translate(92.56815, 75.865618)"><g><path d="M 4.1875 -7.6875 C 4.550781 -8.21875 4.992188 -8.632812 5.515625 -8.9375 C 6.035156 -9.25 6.597656 -9.40625 7.203125 -9.40625 L 7.203125 -5.9375 L 6.28125 -5.9375 C 5.570312 -5.9375 5.046875 -5.796875 4.703125 -5.515625 C 4.359375 -5.242188 4.1875 -4.765625 4.1875 -4.078125 L 4.1875 0 L 0.9375 0 L 0.9375 -9.328125 L 4.1875 -9.328125 Z M 4.1875 -7.6875 "/></g></g></g><g fill="#000000" fill-opacity="1"><g transform="translate(99.996952, 75.865618)"><g><path d="M 7.03125 -9.40625 C 8.101562 -9.40625 8.957031 -9.046875 9.59375 -8.328125 C 10.226562 -7.617188 10.546875 -6.65625 10.546875 -5.4375 L 10.546875 0 L 7.28125 0 L 7.28125 -5 C 7.28125 -5.53125 7.140625 -5.945312 6.859375 -6.25 C 6.585938 -6.5625 6.21875 -6.71875 5.75 -6.71875 C 5.257812 -6.71875 4.875 -6.5625 4.59375 -6.25 C 4.320312 -5.945312 4.1875 -5.53125 4.1875 -5 L 4.1875 0 L 0.9375 0 L 0.9375 -9.328125 L 4.1875 -9.328125 L 4.1875 -8 C 4.476562 -8.414062 4.863281 -8.753906 5.34375 -9.015625 C 5.832031 -9.273438 6.394531 -9.40625 7.03125 -9.40625 Z M 7.03125 -9.40625 "/></g></g></g><g fill="#000000" fill-opacity="1"><g transform="translate(111.397769, 75.865618)"><g><path d="M 2.578125 -10.1875 C 2.003906 -10.1875 1.539062 -10.34375 1.1875 -10.65625 C 0.84375 -10.976562 0.671875 -11.378906 0.671875 -11.859375 C 0.671875 -12.335938 0.84375 -12.738281 1.1875 -13.0625 C 1.539062 -13.382812 2.003906 -13.546875 2.578125 -13.546875 C 3.140625 -13.546875 3.59375 -13.382812 3.9375 -13.0625 C 4.289062 -12.738281 4.46875 -12.335938 4.46875 -11.859375 C 4.46875 -11.378906 4.289062 -10.976562 3.9375 -10.65625 C 3.59375 -10.34375 3.140625 -10.1875 2.578125 -10.1875 Z M 4.1875 -9.328125 L 4.1875 0 L 0.9375 0 L 0.9375 -9.328125 Z M 4.1875 -9.328125 "/></g></g></g><g fill="#000000" fill-opacity="1"><g transform="translate(116.516499, 75.865618)"><g><path d="M 0.40625 -4.671875 C 0.40625 -5.640625 0.578125 -6.484375 0.921875 -7.203125 C 1.273438 -7.921875 1.753906 -8.472656 2.359375 -8.859375 C 2.960938 -9.242188 3.632812 -9.4375 4.375 -9.4375 C 5.019531 -9.4375 5.570312 -9.304688 6.03125 -9.046875 C 6.5 -8.796875 6.859375 -8.457031 7.109375 -8.03125 L 7.109375 -9.328125 L 10.375 -9.328125 L 10.375 0 L 7.109375 0 L 7.109375 -1.296875 C 6.859375 -0.859375 6.492188 -0.515625 6.015625 -0.265625 C 5.546875 -0.015625 5 0.109375 4.375 0.109375 C 3.632812 0.109375 2.960938 -0.0820312 2.359375 -0.46875 C 1.753906 -0.851562 1.273438 -1.40625 0.921875 -2.125 C 0.578125 -2.851562 0.40625 -3.703125 0.40625 -4.671875 Z M 7.109375 -4.671875 C 7.109375 -5.265625 6.945312 -5.734375 6.625 -6.078125 C 6.300781 -6.421875 5.898438 -6.59375 5.421875 -6.59375 C 4.929688 -6.59375 4.523438 -6.425781 4.203125 -6.09375 C 3.878906 -5.757812 3.71875 -5.285156 3.71875 -4.671875 C 3.71875 -4.078125 3.878906 -3.601562 4.203125 -3.25 C 4.523438 -2.894531 4.929688 -2.71875 5.421875 -2.71875 C 5.898438 -2.71875 6.300781 -2.890625 6.625 -3.234375 C 6.945312 -3.578125 7.109375 -4.054688 7.109375 -4.671875 Z M 7.109375 -4.671875 "/></g></g></g></svg>