<svg xmlns="http://www.w3.org/2000/svg" xmlns:xlink="http://www.w3.org/1999/xlink" width="230" zoomAndPan="magnify" viewBox="0 0 172.5 112.499997" height="150" preserveAspectRatio="xMidYMid meet" version="1.0">
	<defs>
		<g />
		<clipPath id="8921e0ddea">
			<path d="M 0.132812 0 L 171.871094 0 L 171.871094 112.003906 L 0.132812 112.003906 Z M 0.132812 0 " clip-rule="nonzero" />
		</clipPath>
		<clipPath id="8e4b54ed92">
			<path d="M 62.488281 22.199219 L 109.527344 22.199219 L 109.527344 55.800781 L 62.488281 55.800781 Z M 62.488281 22.199219 " clip-rule="nonzero" />
		</clipPath>
	</defs>
	<g clip-path="url(#8921e0ddea)">
		<path fill="#ffffff" d="M 0.132812 0 L 171.871094 0 L 171.871094 112.003906 L 0.132812 112.003906 Z M 0.132812 0 " fill-opacity="1" fill-rule="nonzero" />
		<path fill="#f3f1ea" d="M 0.132812 0 L 171.871094 0 L 171.871094 112.003906 L 0.132812 112.003906 Z M 0.132812 0 " fill-opacity="1" fill-rule="nonzero" />
	</g>
	<g fill="#000000" fill-opacity="1">
		<g transform="translate(47.517062, 75.865618)">
			<g>
				<path d="M 0.40625 -4.671875 C 0.40625 -5.640625 0.601562 -6.484375 1 -7.203125 C 1.394531 -7.921875 1.945312 -8.472656 2.65625 -8.859375 C 3.375 -9.242188 4.195312 -9.4375 5.125 -9.4375 C 6.3125 -9.4375 7.304688 -9.113281 8.109375 -8.46875 C 8.921875 -7.820312 9.441406 -6.914062 9.671875 -5.75 L 6.21875 -5.75 C 6.019531 -6.363281 5.628906 -6.671875 5.046875 -6.671875 C 4.640625 -6.671875 4.316406 -6.5 4.078125 -6.15625 C 3.835938 -5.820312 3.71875 -5.328125 3.71875 -4.671875 C 3.71875 -4.015625 3.835938 -3.515625 4.078125 -3.171875 C 4.316406 -2.828125 4.640625 -2.65625 5.046875 -2.65625 C 5.640625 -2.65625 6.03125 -2.960938 6.21875 -3.578125 L 9.671875 -3.578125 C 9.441406 -2.421875 8.921875 -1.515625 8.109375 -0.859375 C 7.304688 -0.210938 6.3125 0.109375 5.125 0.109375 C 4.195312 0.109375 3.375 -0.0820312 2.65625 -0.46875 C 1.945312 -0.851562 1.394531 -1.40625 1 -2.125 C 0.601562 -2.84375 0.40625 -3.691406 0.40625 -4.671875 Z M 0.40625 -4.671875 " />
			</g>
		</g>
	</g>
	<g fill="#000000" fill-opacity="1">
		<g transform="translate(57.604952, 75.865618)">
			<g>
				<path d="M 5.265625 0.109375 C 4.335938 0.109375 3.503906 -0.0820312 2.765625 -0.46875 C 2.023438 -0.851562 1.445312 -1.40625 1.03125 -2.125 C 0.613281 -2.84375 0.40625 -3.691406 0.40625 -4.671875 C 0.40625 -5.640625 0.613281 -6.484375 1.03125 -7.203125 C 1.457031 -7.921875 2.039062 -8.472656 2.78125 -8.859375 C 3.519531 -9.242188 4.351562 -9.4375 5.28125 -9.4375 C 6.21875 -9.4375 7.050781 -9.242188 7.78125 -8.859375 C 8.519531 -8.472656 9.101562 -7.921875 9.53125 -7.203125 C 9.957031 -6.484375 10.171875 -5.640625 10.171875 -4.671875 C 10.171875 -3.703125 9.957031 -2.851562 9.53125 -2.125 C 9.101562 -1.40625 8.519531 -0.851562 7.78125 -0.46875 C 7.039062 -0.0820312 6.203125 0.109375 5.265625 0.109375 Z M 5.265625 -2.703125 C 5.722656 -2.703125 6.101562 -2.867188 6.40625 -3.203125 C 6.707031 -3.546875 6.859375 -4.035156 6.859375 -4.671875 C 6.859375 -5.304688 6.707031 -5.785156 6.40625 -6.109375 C 6.101562 -6.441406 5.726562 -6.609375 5.28125 -6.609375 C 4.84375 -6.609375 4.472656 -6.441406 4.171875 -6.109375 C 3.867188 -5.785156 3.71875 -5.304688 3.71875 -4.671875 C 3.71875 -4.023438 3.863281 -3.535156 4.15625 -3.203125 C 4.445312 -2.867188 4.816406 -2.703125 5.265625 -2.703125 Z M 5.265625 -2.703125 " />
			</g>
		</g>
	</g>
	<g fill="#000000" fill-opacity="1">
		<g transform="translate(68.174805, 75.865618)">
			<g>
				<path d="M 4.1875 -12.296875 L 4.1875 0 L 0.9375 0 L 0.9375 -12.296875 Z M 4.1875 -12.296875 " />
			</g>
		</g>
	</g>
	<g fill="#000000" fill-opacity="1">
		<g transform="translate(73.293536, 75.865618)">
			<g>
				<path d="M 5.265625 0.109375 C 4.335938 0.109375 3.503906 -0.0820312 2.765625 -0.46875 C 2.023438 -0.851562 1.445312 -1.40625 1.03125 -2.125 C 0.613281 -2.84375 0.40625 -3.691406 0.40625 -4.671875 C 0.40625 -5.640625 0.613281 -6.484375 1.03125 -7.203125 C 1.457031 -7.921875 2.039062 -8.472656 2.78125 -8.859375 C 3.519531 -9.242188 4.351562 -9.4375 5.28125 -9.4375 C 6.21875 -9.4375 7.050781 -9.242188 7.78125 -8.859375 C 8.519531 -8.472656 9.101562 -7.921875 9.53125 -7.203125 C 9.957031 -6.484375 10.171875 -5.640625 10.171875 -4.671875 C 10.171875 -3.703125 9.957031 -2.851562 9.53125 -2.125 C 9.101562 -1.40625 8.519531 -0.851562 7.78125 -0.46875 C 7.039062 -0.0820312 6.203125 0.109375 5.265625 0.109375 Z M 5.265625 -2.703125 C 5.722656 -2.703125 6.101562 -2.867188 6.40625 -3.203125 C 6.707031 -3.546875 6.859375 -4.035156 6.859375 -4.671875 C 6.859375 -5.304688 6.707031 -5.785156 6.40625 -6.109375 C 6.101562 -6.441406 5.726562 -6.609375 5.28125 -6.609375 C 4.84375 -6.609375 4.472656 -6.441406 4.171875 -6.109375 C 3.867188 -5.785156 3.71875 -5.304688 3.71875 -4.671875 C 3.71875 -4.023438 3.863281 -3.535156 4.15625 -3.203125 C 4.445312 -2.867188 4.816406 -2.703125 5.265625 -2.703125 Z M 5.265625 -2.703125 " />
			</g>
		</g>
	</g>
	<g fill="#000000" fill-opacity="1">
		<g transform="translate(83.863388, 75.865618)">
			<g>
				<path d="M 4.1875 -7.6875 C 4.550781 -8.21875 4.992188 -8.632812 5.515625 -8.9375 C 6.035156 -9.25 6.597656 -9.40625 7.203125 -9.40625 L 7.203125 -5.9375 L 6.28125 -5.9375 C 5.570312 -5.9375 5.046875 -5.796875 4.703125 -5.515625 C 4.359375 -5.242188 4.1875 -4.765625 4.1875 -4.078125 L 4.1875 0 L 0.9375 0 L 0.9375 -9.328125 L 4.1875 -9.328125 Z M 4.1875 -7.6875 " />
			</g>
		</g>
	</g>
	<g fill="#000000" fill-opacity="1">
		<g transform="translate(91.29219, 75.865618)">
			<g>
				<path d="M 0.40625 -4.671875 C 0.40625 -5.640625 0.578125 -6.484375 0.921875 -7.203125 C 1.273438 -7.921875 1.753906 -8.472656 2.359375 -8.859375 C 2.960938 -9.242188 3.632812 -9.4375 4.375 -9.4375 C 5.019531 -9.4375 5.570312 -9.304688 6.03125 -9.046875 C 6.5 -8.796875 6.859375 -8.457031 7.109375 -8.03125 L 7.109375 -9.328125 L 10.375 -9.328125 L 10.375 0 L 7.109375 0 L 7.109375 -1.296875 C 6.859375 -0.859375 6.492188 -0.515625 6.015625 -0.265625 C 5.546875 -0.015625 5 0.109375 4.375 0.109375 C 3.632812 0.109375 2.960938 -0.0820312 2.359375 -0.46875 C 1.753906 -0.851562 1.273438 -1.40625 0.921875 -2.125 C 0.578125 -2.851562 0.40625 -3.703125 0.40625 -4.671875 Z M 7.109375 -4.671875 C 7.109375 -5.265625 6.945312 -5.734375 6.625 -6.078125 C 6.300781 -6.421875 5.898438 -6.59375 5.421875 -6.59375 C 4.929688 -6.59375 4.523438 -6.425781 4.203125 -6.09375 C 3.878906 -5.757812 3.71875 -5.285156 3.71875 -4.671875 C 3.71875 -4.078125 3.878906 -3.601562 4.203125 -3.25 C 4.523438 -2.894531 4.929688 -2.71875 5.421875 -2.71875 C 5.898438 -2.71875 6.300781 -2.890625 6.625 -3.234375 C 6.945312 -3.578125 7.109375 -4.054688 7.109375 -4.671875 Z M 7.109375 -4.671875 " />
			</g>
		</g>
	</g>
	<g fill="#000000" fill-opacity="1">
		<g transform="translate(102.593283, 75.865618)">
			<g>
				<path d="M 0.40625 -4.671875 C 0.40625 -5.640625 0.578125 -6.484375 0.921875 -7.203125 C 1.273438 -7.921875 1.753906 -8.472656 2.359375 -8.859375 C 2.972656 -9.242188 3.648438 -9.4375 4.390625 -9.4375 C 4.984375 -9.4375 5.515625 -9.3125 5.984375 -9.0625 C 6.460938 -8.8125 6.832031 -8.472656 7.09375 -8.046875 L 7.09375 -12.296875 L 10.375 -12.296875 L 10.375 0 L 7.09375 0 L 7.09375 -1.296875 C 6.84375 -0.859375 6.484375 -0.515625 6.015625 -0.265625 C 5.546875 -0.015625 5 0.109375 4.375 0.109375 C 3.632812 0.109375 2.960938 -0.0820312 2.359375 -0.46875 C 1.753906 -0.851562 1.273438 -1.40625 0.921875 -2.125 C 0.578125 -2.851562 0.40625 -3.703125 0.40625 -4.671875 Z M 7.109375 -4.671875 C 7.109375 -5.265625 6.945312 -5.734375 6.625 -6.078125 C 6.300781 -6.421875 5.898438 -6.59375 5.421875 -6.59375 C 4.929688 -6.59375 4.523438 -6.425781 4.203125 -6.09375 C 3.878906 -5.757812 3.71875 -5.285156 3.71875 -4.671875 C 3.71875 -4.078125 3.878906 -3.601562 4.203125 -3.25 C 4.523438 -2.894531 4.929688 -2.71875 5.421875 -2.71875 C 5.898438 -2.71875 6.300781 -2.890625 6.625 -3.234375 C 6.945312 -3.578125 7.109375 -4.054688 7.109375 -4.671875 Z M 7.109375 -4.671875 " />
			</g>
		</g>
	</g>
	<g fill="#000000" fill-opacity="1">
		<g transform="translate(113.894376, 75.865618)">
			<g>
				<path d="M 5.265625 0.109375 C 4.335938 0.109375 3.503906 -0.0820312 2.765625 -0.46875 C 2.023438 -0.851562 1.445312 -1.40625 1.03125 -2.125 C 0.613281 -2.84375 0.40625 -3.691406 0.40625 -4.671875 C 0.40625 -5.640625 0.613281 -6.484375 1.03125 -7.203125 C 1.457031 -7.921875 2.039062 -8.472656 2.78125 -8.859375 C 3.519531 -9.242188 4.351562 -9.4375 5.28125 -9.4375 C 6.21875 -9.4375 7.050781 -9.242188 7.78125 -8.859375 C 8.519531 -8.472656 9.101562 -7.921875 9.53125 -7.203125 C 9.957031 -6.484375 10.171875 -5.640625 10.171875 -4.671875 C 10.171875 -3.703125 9.957031 -2.851562 9.53125 -2.125 C 9.101562 -1.40625 8.519531 -0.851562 7.78125 -0.46875 C 7.039062 -0.0820312 6.203125 0.109375 5.265625 0.109375 Z M 5.265625 -2.703125 C 5.722656 -2.703125 6.101562 -2.867188 6.40625 -3.203125 C 6.707031 -3.546875 6.859375 -4.035156 6.859375 -4.671875 C 6.859375 -5.304688 6.707031 -5.785156 6.40625 -6.109375 C 6.101562 -6.441406 5.726562 -6.609375 5.28125 -6.609375 C 4.84375 -6.609375 4.472656 -6.441406 4.171875 -6.109375 C 3.867188 -5.785156 3.71875 -5.304688 3.71875 -4.671875 C 3.71875 -4.023438 3.863281 -3.535156 4.15625 -3.203125 C 4.445312 -2.867188 4.816406 -2.703125 5.265625 -2.703125 Z M 5.265625 -2.703125 " />
			</g>
		</g>
	</g>
	<g clip-path="url(#8e4b54ed92)">
		<path fill="#5e1ff0" d="M 66.507812 22.675781 C 79.773438 23.167969 92.863281 23.191406 105.683594 22.441406 C 107.882812 22.3125 108.355469 22.785156 108.410156 24.375 L 109.476562 53.152344 C 109.546875 54.964844 109.335938 55.574219 106.726562 55.613281 C 90.199219 55.847656 77.542969 55.765625 64.386719 55.644531 C 62.792969 55.632812 62.5 55.242188 62.59375 53.796875 L 64.445312 24.183594 C 64.546875 22.601562 65.046875 22.617188 66.507812 22.675781 Z M 66.507812 22.675781 " fill-opacity="1" fill-rule="nonzero" />
	</g>
</svg>
