<svg xmlns="http://www.w3.org/2000/svg" xmlns:xlink="http://www.w3.org/1999/xlink" width="230" zoomAndPan="magnify" viewBox="0 0 172.5 112.499997" height="150" preserveAspectRatio="xMidYMid meet" version="1.0"><defs><g/><clipPath id="44c21622c1"><path d="M 0.132812 0 L 171.871094 0 L 171.871094 112.003906 L 0.132812 112.003906 Z M 0.132812 0 " clip-rule="nonzero"/></clipPath><clipPath id="30c9365c97"><path d="M 69.117188 23.582031 L 102.71875 23.582031 L 102.71875 55.691406 L 69.117188 55.691406 Z M 69.117188 23.582031 " clip-rule="nonzero"/></clipPath></defs><g clip-path="url(#44c21622c1)"><path fill="#ffffff" d="M 0.132812 0 L 171.871094 0 L 171.871094 112.003906 L 0.132812 112.003906 Z M 0.132812 0 " fill-opacity="1" fill-rule="nonzero"/><path fill="#f3f1ea" d="M 0.132812 0 L 171.871094 0 L 171.871094 112.003906 L 0.132812 112.003906 Z M 0.132812 0 " fill-opacity="1" fill-rule="nonzero"/></g><g fill="#000000" fill-opacity="1"><g transform="translate(57.464997, 75.865618)"><g><path d="M 5.96875 -6.609375 L 4.5 -6.609375 L 4.5 0 L 1.234375 0 L 1.234375 -6.609375 L 0.21875 -6.609375 L 0.21875 -9.328125 L 1.234375 -9.328125 L 1.234375 -9.40625 C 1.234375 -10.601562 1.582031 -11.519531 2.28125 -12.15625 C 2.988281 -12.789062 4 -13.109375 5.3125 -13.109375 C 5.582031 -13.109375 5.789062 -13.101562 5.9375 -13.09375 L 5.9375 -10.328125 C 5.84375 -10.335938 5.71875 -10.34375 5.5625 -10.34375 C 5.207031 -10.34375 4.945312 -10.257812 4.78125 -10.09375 C 4.613281 -9.9375 4.519531 -9.679688 4.5 -9.328125 L 5.96875 -9.328125 Z M 5.96875 -6.609375 "/></g></g></g><g fill="#000000" fill-opacity="1"><g transform="translate(63.663986, 75.865618)"><g><path d="M 4.1875 -12.296875 L 4.1875 0 L 0.9375 0 L 0.9375 -12.296875 Z M 4.1875 -12.296875 "/></g></g></g><g fill="#000000" fill-opacity="1"><g transform="translate(68.782716, 75.865618)"><g><path d="M 5.265625 0.109375 C 4.335938 0.109375 3.503906 -0.0820312 2.765625 -0.46875 C 2.023438 -0.851562 1.445312 -1.40625 1.03125 -2.125 C 0.613281 -2.84375 0.40625 -3.691406 0.40625 -4.671875 C 0.40625 -5.640625 0.613281 -6.484375 1.03125 -7.203125 C 1.457031 -7.921875 2.039062 -8.472656 2.78125 -8.859375 C 3.519531 -9.242188 4.351562 -9.4375 5.28125 -9.4375 C 6.21875 -9.4375 7.050781 -9.242188 7.78125 -8.859375 C 8.519531 -8.472656 9.101562 -7.921875 9.53125 -7.203125 C 9.957031 -6.484375 10.171875 -5.640625 10.171875 -4.671875 C 10.171875 -3.703125 9.957031 -2.851562 9.53125 -2.125 C 9.101562 -1.40625 8.519531 -0.851562 7.78125 -0.46875 C 7.039062 -0.0820312 6.203125 0.109375 5.265625 0.109375 Z M 5.265625 -2.703125 C 5.722656 -2.703125 6.101562 -2.867188 6.40625 -3.203125 C 6.707031 -3.546875 6.859375 -4.035156 6.859375 -4.671875 C 6.859375 -5.304688 6.707031 -5.785156 6.40625 -6.109375 C 6.101562 -6.441406 5.726562 -6.609375 5.28125 -6.609375 C 4.84375 -6.609375 4.472656 -6.441406 4.171875 -6.109375 C 3.867188 -5.785156 3.71875 -5.304688 3.71875 -4.671875 C 3.71875 -4.023438 3.863281 -3.535156 4.15625 -3.203125 C 4.445312 -2.867188 4.816406 -2.703125 5.265625 -2.703125 Z M 5.265625 -2.703125 "/></g></g></g><g fill="#000000" fill-opacity="1"><g transform="translate(79.352569, 75.865618)"><g><path d="M 4.1875 -7.6875 C 4.550781 -8.21875 4.992188 -8.632812 5.515625 -8.9375 C 6.035156 -9.25 6.597656 -9.40625 7.203125 -9.40625 L 7.203125 -5.9375 L 6.28125 -5.9375 C 5.570312 -5.9375 5.046875 -5.796875 4.703125 -5.515625 C 4.359375 -5.242188 4.1875 -4.765625 4.1875 -4.078125 L 4.1875 0 L 0.9375 0 L 0.9375 -9.328125 L 4.1875 -9.328125 Z M 4.1875 -7.6875 "/></g></g></g><g fill="#000000" fill-opacity="1"><g transform="translate(86.781371, 75.865618)"><g><path d="M 2.578125 -10.1875 C 2.003906 -10.1875 1.539062 -10.34375 1.1875 -10.65625 C 0.84375 -10.976562 0.671875 -11.378906 0.671875 -11.859375 C 0.671875 -12.335938 0.84375 -12.738281 1.1875 -13.0625 C 1.539062 -13.382812 2.003906 -13.546875 2.578125 -13.546875 C 3.140625 -13.546875 3.59375 -13.382812 3.9375 -13.0625 C 4.289062 -12.738281 4.46875 -12.335938 4.46875 -11.859375 C 4.46875 -11.378906 4.289062 -10.976562 3.9375 -10.65625 C 3.59375 -10.34375 3.140625 -10.1875 2.578125 -10.1875 Z M 4.1875 -9.328125 L 4.1875 0 L 0.9375 0 L 0.9375 -9.328125 Z M 4.1875 -9.328125 "/></g></g></g><g fill="#000000" fill-opacity="1"><g transform="translate(91.900101, 75.865618)"><g><path d="M 0.40625 -4.671875 C 0.40625 -5.640625 0.578125 -6.484375 0.921875 -7.203125 C 1.273438 -7.921875 1.753906 -8.472656 2.359375 -8.859375 C 2.972656 -9.242188 3.648438 -9.4375 4.390625 -9.4375 C 4.984375 -9.4375 5.515625 -9.3125 5.984375 -9.0625 C 6.460938 -8.8125 6.832031 -8.472656 7.09375 -8.046875 L 7.09375 -12.296875 L 10.375 -12.296875 L 10.375 0 L 7.09375 0 L 7.09375 -1.296875 C 6.84375 -0.859375 6.484375 -0.515625 6.015625 -0.265625 C 5.546875 -0.015625 5 0.109375 4.375 0.109375 C 3.632812 0.109375 2.960938 -0.0820312 2.359375 -0.46875 C 1.753906 -0.851562 1.273438 -1.40625 0.921875 -2.125 C 0.578125 -2.851562 0.40625 -3.703125 0.40625 -4.671875 Z M 7.109375 -4.671875 C 7.109375 -5.265625 6.945312 -5.734375 6.625 -6.078125 C 6.300781 -6.421875 5.898438 -6.59375 5.421875 -6.59375 C 4.929688 -6.59375 4.523438 -6.425781 4.203125 -6.09375 C 3.878906 -5.757812 3.71875 -5.285156 3.71875 -4.671875 C 3.71875 -4.078125 3.878906 -3.601562 4.203125 -3.25 C 4.523438 -2.894531 4.929688 -2.71875 5.421875 -2.71875 C 5.898438 -2.71875 6.300781 -2.890625 6.625 -3.234375 C 6.945312 -3.578125 7.109375 -4.054688 7.109375 -4.671875 Z M 7.109375 -4.671875 "/></g></g></g><g fill="#000000" fill-opacity="1"><g transform="translate(103.201194, 75.865618)"><g><path d="M 0.40625 -4.671875 C 0.40625 -5.640625 0.578125 -6.484375 0.921875 -7.203125 C 1.273438 -7.921875 1.753906 -8.472656 2.359375 -8.859375 C 2.960938 -9.242188 3.632812 -9.4375 4.375 -9.4375 C 5.019531 -9.4375 5.570312 -9.304688 6.03125 -9.046875 C 6.5 -8.796875 6.859375 -8.457031 7.109375 -8.03125 L 7.109375 -9.328125 L 10.375 -9.328125 L 10.375 0 L 7.109375 0 L 7.109375 -1.296875 C 6.859375 -0.859375 6.492188 -0.515625 6.015625 -0.265625 C 5.546875 -0.015625 5 0.109375 4.375 0.109375 C 3.632812 0.109375 2.960938 -0.0820312 2.359375 -0.46875 C 1.753906 -0.851562 1.273438 -1.40625 0.921875 -2.125 C 0.578125 -2.851562 0.40625 -3.703125 0.40625 -4.671875 Z M 7.109375 -4.671875 C 7.109375 -5.265625 6.945312 -5.734375 6.625 -6.078125 C 6.300781 -6.421875 5.898438 -6.59375 5.421875 -6.59375 C 4.929688 -6.59375 4.523438 -6.425781 4.203125 -6.09375 C 3.878906 -5.757812 3.71875 -5.285156 3.71875 -4.671875 C 3.71875 -4.078125 3.878906 -3.601562 4.203125 -3.25 C 4.523438 -2.894531 4.929688 -2.71875 5.421875 -2.71875 C 5.898438 -2.71875 6.300781 -2.890625 6.625 -3.234375 C 6.945312 -3.578125 7.109375 -4.054688 7.109375 -4.671875 Z M 7.109375 -4.671875 "/></g></g></g><g clip-path="url(#30c9365c97)"><path fill="#5e1ff0" d="M 69.828125 23.652344 C 69.457031 23.652344 69.152344 23.953125 69.152344 24.324219 L 69.152344 25 C 69.152344 25.132812 69.191406 25.261719 69.265625 25.371094 L 69.835938 26.226562 L 69.914062 27.726562 C 69.929688 28.085938 70.226562 28.367188 70.585938 28.367188 L 71.175781 28.367188 C 71.265625 28.367188 71.355469 28.347656 71.4375 28.316406 L 72.910156 27.695312 L 74.78125 27.695312 L 77.636719 29.371094 L 77.9375 29.832031 C 78.023438 29.960938 78.144531 30.054688 78.289062 30.101562 L 78.585938 30.199219 L 78.585938 30.390625 C 78.585938 30.761719 78.886719 31.0625 79.257812 31.0625 L 80.890625 31.070312 L 80.894531 31.070312 C 80.984375 31.070312 81.078125 31.050781 81.164062 31.015625 L 82.601562 30.390625 L 83.050781 30.390625 C 83.300781 30.390625 83.53125 30.25 83.648438 30.03125 L 83.914062 29.523438 C 83.964844 29.425781 83.992188 29.3125 83.992188 29.199219 L 83.988281 29.042969 L 84.398438 29.042969 L 84.804688 29.398438 C 84.855469 29.441406 84.914062 29.476562 84.976562 29.503906 L 85.632812 29.800781 L 85.972656 30.433594 C 86.042969 30.566406 86.152344 30.667969 86.289062 30.730469 L 86.554688 30.851562 L 86.65625 31.277344 C 86.699219 31.457031 86.8125 31.609375 86.972656 31.699219 L 87.496094 32.007812 L 87.703125 32.417969 C 87.78125 32.566406 87.910156 32.683594 88.070312 32.742188 L 89.242188 33.171875 L 89.359375 33.542969 C 89.386719 33.625 89.429688 33.703125 89.488281 33.769531 L 90.003906 34.382812 L 89.761719 36.042969 L 89.417969 36.871094 C 89.371094 36.984375 89.359375 37.105469 89.375 37.226562 L 89.675781 39.238281 C 89.710938 39.472656 89.976562 39.597656 90.179688 39.476562 L 91.390625 38.765625 L 91.390625 38.695312 L 90.945312 38.308594 C 90.664062 38.0625 90.636719 37.636719 90.882812 37.355469 C 91.125 37.078125 91.554688 37.046875 91.832031 37.292969 L 92.507812 37.882812 C 92.652344 38.011719 92.738281 38.195312 92.738281 38.390625 L 92.738281 39.148438 C 92.738281 39.386719 92.613281 39.605469 92.40625 39.730469 L 90.5 40.855469 C 90.417969 40.914062 90.363281 41.003906 90.363281 41.109375 C 90.363281 41.183594 90.394531 41.25 90.4375 41.300781 L 90.9375 41.835938 L 91.949219 43.464844 L 92.511719 45.398438 C 92.59375 45.6875 92.859375 45.886719 93.160156 45.886719 L 93.753906 45.886719 L 94.089844 46.316406 L 94.144531 46.890625 C 94.152344 46.988281 94.183594 47.082031 94.230469 47.167969 L 94.847656 48.242188 C 94.96875 48.453125 95.191406 48.582031 95.433594 48.582031 L 96.195312 48.582031 L 96.519531 48.859375 L 96.792969 50.238281 L 96.78125 50.582031 C 96.773438 50.75 96.832031 50.917969 96.945312 51.046875 L 97.535156 51.71875 C 97.664062 51.867188 97.847656 51.949219 98.042969 51.949219 L 98.800781 51.949219 C 98.980469 51.949219 99.152344 51.878906 99.277344 51.753906 L 99.753906 51.277344 L 100.148438 51.277344 C 100.210938 51.277344 100.269531 51.269531 100.328125 51.253906 L 100.925781 51.085938 C 100.992188 51.058594 101.058594 51.027344 101.125 50.996094 L 101.875 50.488281 C 102.058594 50.363281 102.171875 50.152344 102.171875 49.929688 L 102.171875 48.65625 L 102.554688 48.191406 C 102.628906 48.101562 102.679688 47.992188 102.699219 47.878906 L 102.828125 47.164062 C 102.832031 47.121094 102.835938 47.082031 102.839844 47.042969 L 102.84375 42.515625 C 102.84375 42.417969 102.824219 42.324219 102.78125 42.234375 L 100.761719 37.855469 C 100.71875 37.792969 100.675781 37.734375 100.636719 37.671875 L 100.066406 37.078125 L 99.625 36.011719 L 99.863281 35.839844 C 100.121094 35.652344 100.214844 35.308594 100.085938 35.019531 L 99.792969 34.367188 L 99.703125 34.21875 L 98.027344 32.152344 L 96.453125 28.777344 L 95.582031 24.851562 C 95.527344 24.597656 95.332031 24.398438 95.078125 24.339844 L 94.027344 24.097656 L 92.976562 23.695312 C 92.730469 23.601562 92.449219 23.660156 92.257812 23.847656 L 92.167969 23.941406 C 92.125 23.980469 92.101562 24.039062 92.101562 24.101562 C 92.101562 24.152344 92.121094 24.195312 92.144531 24.230469 L 92.144531 24.238281 L 92.621094 24.960938 C 92.699219 25.074219 92.738281 25.203125 92.738281 25.335938 L 92.738281 26.347656 C 92.738281 26.71875 92.4375 27.019531 92.0625 27.019531 C 91.691406 27.019531 91.390625 26.71875 91.390625 26.347656 L 91.390625 25.671875 C 91.390625 25.609375 91.375 25.554688 91.351562 25.503906 C 91.316406 25.433594 91.167969 25.222656 91.136719 25.175781 C 91.0625 25.070312 90.941406 25 90.800781 25 L 81.699219 25 L 81.210938 24.023438 C 81.097656 23.792969 80.863281 23.652344 80.609375 23.652344 Z M 102.5625 51.277344 C 102.507812 51.273438 102.453125 51.285156 102.40625 51.3125 L 102.261719 51.382812 C 102.203125 51.410156 102.160156 51.457031 102.132812 51.511719 L 101.90625 51.976562 C 101.90625 51.980469 101.90625 51.980469 101.902344 51.984375 L 101.570312 52.714844 L 100.925781 53.511719 L 100.097656 54.121094 L 98.964844 54.613281 C 98.878906 54.652344 98.820312 54.726562 98.804688 54.808594 C 98.789062 54.894531 98.820312 54.980469 98.882812 55.042969 L 99.09375 55.238281 C 99.152344 55.292969 99.230469 55.320312 99.308594 55.320312 C 99.363281 55.320312 99.417969 55.304688 99.46875 55.277344 L 101.117188 54.296875 L 101.875 53.6875 C 101.90625 53.664062 101.929688 53.636719 101.949219 53.605469 L 102.5 52.546875 L 102.707031 52.273438 C 102.734375 52.238281 102.75 52.199219 102.757812 52.15625 L 102.839844 51.582031 C 102.855469 51.480469 102.808594 51.378906 102.714844 51.324219 C 102.667969 51.292969 102.617188 51.28125 102.5625 51.277344 Z M 97.207031 54.648438 C 97.160156 54.648438 97.113281 54.660156 97.074219 54.679688 L 96.605469 54.910156 C 96.570312 54.925781 96.539062 54.949219 96.515625 54.980469 L 96.28125 55.246094 L 95.675781 55.332031 C 95.574219 55.347656 95.488281 55.410156 95.449219 55.496094 C 95.414062 55.582031 95.433594 55.675781 95.5 55.746094 L 95.65625 55.902344 C 95.710938 55.960938 95.796875 55.992188 95.882812 55.992188 C 95.921875 55.992188 95.960938 55.988281 95.996094 55.976562 L 96.417969 55.824219 L 97.902344 55.496094 C 97.980469 55.480469 98.046875 55.4375 98.089844 55.375 C 98.128906 55.316406 98.136719 55.246094 98.117188 55.179688 L 98.054688 55.003906 C 98.027344 54.917969 97.949219 54.851562 97.851562 54.828125 L 97.5625 54.757812 L 97.351562 54.671875 C 97.304688 54.652344 97.257812 54.644531 97.207031 54.648438 Z M 97.207031 54.648438 " fill-opacity="1" fill-rule="nonzero"/></g></svg>