<svg xmlns="http://www.w3.org/2000/svg" xmlns:xlink="http://www.w3.org/1999/xlink" width="230" zoomAndPan="magnify" viewBox="0 0 172.5 112.499997" height="150" preserveAspectRatio="xMidYMid meet" version="1.0"><defs><g/><clipPath id="a7cc7cb0f9"><path d="M 0.132812 0 L 171.871094 0 L 171.871094 112.003906 L 0.132812 112.003906 Z M 0.132812 0 " clip-rule="nonzero"/></clipPath><clipPath id="27a8313a73"><path d="M 76.195312 22.402344 L 95.609375 22.402344 L 95.609375 56 L 76.195312 56 Z M 76.195312 22.402344 " clip-rule="nonzero"/></clipPath></defs><g clip-path="url(#a7cc7cb0f9)"><path fill="#ffffff" d="M 0.132812 0 L 171.871094 0 L 171.871094 112.003906 L 0.132812 112.003906 Z M 0.132812 0 " fill-opacity="1" fill-rule="nonzero"/><path fill="#f3f1ea" d="M 0.132812 0 L 171.871094 0 L 171.871094 112.003906 L 0.132812 112.003906 Z M 0.132812 0 " fill-opacity="1" fill-rule="nonzero"/></g><g fill="#000000" fill-opacity="1"><g transform="translate(57.481227, 75.86559)"><g><path d="M 2.578125 -10.1875 C 2.003906 -10.1875 1.539062 -10.34375 1.1875 -10.65625 C 0.84375 -10.976562 0.671875 -11.378906 0.671875 -11.859375 C 0.671875 -12.335938 0.84375 -12.738281 1.1875 -13.0625 C 1.539062 -13.382812 2.003906 -13.546875 2.578125 -13.546875 C 3.140625 -13.546875 3.59375 -13.382812 3.9375 -13.0625 C 4.289062 -12.738281 4.46875 -12.335938 4.46875 -11.859375 C 4.46875 -11.378906 4.289062 -10.976562 3.9375 -10.65625 C 3.59375 -10.34375 3.140625 -10.1875 2.578125 -10.1875 Z M 4.1875 -9.328125 L 4.1875 0 L 0.9375 0 L 0.9375 -9.328125 Z M 4.1875 -9.328125 "/></g></g></g><g fill="#000000" fill-opacity="1"><g transform="translate(62.599957, 75.86559)"><g><path d="M 4.1875 -12.296875 L 4.1875 0 L 0.9375 0 L 0.9375 -12.296875 Z M 4.1875 -12.296875 "/></g></g></g><g fill="#000000" fill-opacity="1"><g transform="translate(67.718688, 75.86559)"><g><path d="M 4.1875 -12.296875 L 4.1875 0 L 0.9375 0 L 0.9375 -12.296875 Z M 4.1875 -12.296875 "/></g></g></g><g fill="#000000" fill-opacity="1"><g transform="translate(72.837418, 75.86559)"><g><path d="M 2.578125 -10.1875 C 2.003906 -10.1875 1.539062 -10.34375 1.1875 -10.65625 C 0.84375 -10.976562 0.671875 -11.378906 0.671875 -11.859375 C 0.671875 -12.335938 0.84375 -12.738281 1.1875 -13.0625 C 1.539062 -13.382812 2.003906 -13.546875 2.578125 -13.546875 C 3.140625 -13.546875 3.59375 -13.382812 3.9375 -13.0625 C 4.289062 -12.738281 4.46875 -12.335938 4.46875 -11.859375 C 4.46875 -11.378906 4.289062 -10.976562 3.9375 -10.65625 C 3.59375 -10.34375 3.140625 -10.1875 2.578125 -10.1875 Z M 4.1875 -9.328125 L 4.1875 0 L 0.9375 0 L 0.9375 -9.328125 Z M 4.1875 -9.328125 "/></g></g></g><g fill="#000000" fill-opacity="1"><g transform="translate(77.956148, 75.86559)"><g><path d="M 7.03125 -9.40625 C 8.101562 -9.40625 8.957031 -9.046875 9.59375 -8.328125 C 10.226562 -7.617188 10.546875 -6.65625 10.546875 -5.4375 L 10.546875 0 L 7.28125 0 L 7.28125 -5 C 7.28125 -5.53125 7.140625 -5.945312 6.859375 -6.25 C 6.585938 -6.5625 6.21875 -6.71875 5.75 -6.71875 C 5.257812 -6.71875 4.875 -6.5625 4.59375 -6.25 C 4.320312 -5.945312 4.1875 -5.53125 4.1875 -5 L 4.1875 0 L 0.9375 0 L 0.9375 -9.328125 L 4.1875 -9.328125 L 4.1875 -8 C 4.476562 -8.414062 4.863281 -8.753906 5.34375 -9.015625 C 5.832031 -9.273438 6.394531 -9.40625 7.03125 -9.40625 Z M 7.03125 -9.40625 "/></g></g></g><g fill="#000000" fill-opacity="1"><g transform="translate(89.356965, 75.86559)"><g><path d="M 5.265625 0.109375 C 4.335938 0.109375 3.503906 -0.0820312 2.765625 -0.46875 C 2.023438 -0.851562 1.445312 -1.40625 1.03125 -2.125 C 0.613281 -2.84375 0.40625 -3.691406 0.40625 -4.671875 C 0.40625 -5.640625 0.613281 -6.484375 1.03125 -7.203125 C 1.457031 -7.921875 2.039062 -8.472656 2.78125 -8.859375 C 3.519531 -9.242188 4.351562 -9.4375 5.28125 -9.4375 C 6.21875 -9.4375 7.050781 -9.242188 7.78125 -8.859375 C 8.519531 -8.472656 9.101562 -7.921875 9.53125 -7.203125 C 9.957031 -6.484375 10.171875 -5.640625 10.171875 -4.671875 C 10.171875 -3.703125 9.957031 -2.851562 9.53125 -2.125 C 9.101562 -1.40625 8.519531 -0.851562 7.78125 -0.46875 C 7.039062 -0.0820312 6.203125 0.109375 5.265625 0.109375 Z M 5.265625 -2.703125 C 5.722656 -2.703125 6.101562 -2.867188 6.40625 -3.203125 C 6.707031 -3.546875 6.859375 -4.035156 6.859375 -4.671875 C 6.859375 -5.304688 6.707031 -5.785156 6.40625 -6.109375 C 6.101562 -6.441406 5.726562 -6.609375 5.28125 -6.609375 C 4.84375 -6.609375 4.472656 -6.441406 4.171875 -6.109375 C 3.867188 -5.785156 3.71875 -5.304688 3.71875 -4.671875 C 3.71875 -4.023438 3.863281 -3.535156 4.15625 -3.203125 C 4.445312 -2.867188 4.816406 -2.703125 5.265625 -2.703125 Z M 5.265625 -2.703125 "/></g></g></g><g fill="#000000" fill-opacity="1"><g transform="translate(99.926818, 75.86559)"><g><path d="M 2.578125 -10.1875 C 2.003906 -10.1875 1.539062 -10.34375 1.1875 -10.65625 C 0.84375 -10.976562 0.671875 -11.378906 0.671875 -11.859375 C 0.671875 -12.335938 0.84375 -12.738281 1.1875 -13.0625 C 1.539062 -13.382812 2.003906 -13.546875 2.578125 -13.546875 C 3.140625 -13.546875 3.59375 -13.382812 3.9375 -13.0625 C 4.289062 -12.738281 4.46875 -12.335938 4.46875 -11.859375 C 4.46875 -11.378906 4.289062 -10.976562 3.9375 -10.65625 C 3.59375 -10.34375 3.140625 -10.1875 2.578125 -10.1875 Z M 4.1875 -9.328125 L 4.1875 0 L 0.9375 0 L 0.9375 -9.328125 Z M 4.1875 -9.328125 "/></g></g></g><g fill="#000000" fill-opacity="1"><g transform="translate(105.045548, 75.86559)"><g><path d="M 4.90625 0.109375 C 4.0625 0.109375 3.304688 -0.03125 2.640625 -0.3125 C 1.984375 -0.59375 1.460938 -0.976562 1.078125 -1.46875 C 0.703125 -1.96875 0.492188 -2.523438 0.453125 -3.140625 L 3.609375 -3.140625 C 3.648438 -2.835938 3.785156 -2.601562 4.015625 -2.4375 C 4.253906 -2.269531 4.546875 -2.1875 4.890625 -2.1875 C 5.148438 -2.1875 5.359375 -2.242188 5.515625 -2.359375 C 5.671875 -2.472656 5.75 -2.617188 5.75 -2.796875 C 5.75 -3.023438 5.617188 -3.191406 5.359375 -3.296875 C 5.109375 -3.410156 4.691406 -3.535156 4.109375 -3.671875 C 3.441406 -3.804688 2.882812 -3.957031 2.4375 -4.125 C 2 -4.289062 1.613281 -4.5625 1.28125 -4.9375 C 0.957031 -5.3125 0.796875 -5.820312 0.796875 -6.46875 C 0.796875 -7.019531 0.945312 -7.519531 1.25 -7.96875 C 1.550781 -8.414062 1.988281 -8.769531 2.5625 -9.03125 C 3.144531 -9.300781 3.847656 -9.4375 4.671875 -9.4375 C 5.890625 -9.4375 6.847656 -9.132812 7.546875 -8.53125 C 8.242188 -7.9375 8.648438 -7.15625 8.765625 -6.1875 L 5.8125 -6.1875 C 5.757812 -6.488281 5.628906 -6.71875 5.421875 -6.875 C 5.222656 -7.03125 4.953125 -7.109375 4.609375 -7.109375 C 4.335938 -7.109375 4.132812 -7.054688 4 -6.953125 C 3.863281 -6.859375 3.796875 -6.722656 3.796875 -6.546875 C 3.796875 -6.328125 3.921875 -6.160156 4.171875 -6.046875 C 4.429688 -5.929688 4.84375 -5.8125 5.40625 -5.6875 C 6.082031 -5.539062 6.644531 -5.378906 7.09375 -5.203125 C 7.539062 -5.023438 7.929688 -4.738281 8.265625 -4.34375 C 8.609375 -3.945312 8.78125 -3.414062 8.78125 -2.75 C 8.78125 -2.195312 8.617188 -1.703125 8.296875 -1.265625 C 7.984375 -0.835938 7.535156 -0.5 6.953125 -0.25 C 6.367188 -0.0078125 5.6875 0.109375 4.90625 0.109375 Z M 4.90625 0.109375 "/></g></g></g><g clip-path="url(#27a8313a73)"><path fill="#5e1ff0" d="M 90.898438 56 C 90.738281 56 90.578125 55.945312 90.449219 55.835938 L 89.097656 54.699219 L 88.941406 54.757812 L 88.652344 55.082031 L 88.5 55.527344 C 88.402344 55.8125 88.136719 56 87.835938 56 L 87.226562 56 C 87.050781 56 86.882812 55.933594 86.75 55.816406 L 86.136719 55.253906 C 86.050781 55.175781 85.988281 55.078125 85.949219 54.964844 L 85.574219 53.867188 C 85.523438 53.714844 85.523438 53.550781 85.578125 53.402344 L 85.746094 52.945312 L 85.40625 52.363281 C 85.386719 52.332031 85.371094 52.296875 85.359375 52.261719 L 85.027344 51.398438 L 84.105469 51.09375 C 84.007812 51.0625 83.917969 51.007812 83.84375 50.9375 L 81.320312 48.546875 C 81.144531 48.382812 81.066406 48.136719 81.113281 47.902344 L 81.375 46.589844 C 81.402344 46.453125 81.46875 46.328125 81.566406 46.230469 L 82.371094 45.425781 L 82.445312 44.984375 L 82.238281 44.800781 L 80.75 44.800781 C 80.535156 44.800781 80.335938 44.703125 80.203125 44.539062 L 79.851562 44.101562 C 79.753906 43.976562 79.699219 43.820312 79.699219 43.664062 L 79.699219 42.683594 L 78.898438 42.039062 C 78.867188 42.015625 78.839844 41.988281 78.816406 41.960938 L 76.96875 39.894531 C 76.902344 39.820312 76.855469 39.730469 76.824219 39.636719 L 76.230469 37.746094 C 76.210938 37.679688 76.199219 37.609375 76.199219 37.539062 L 76.199219 36.402344 C 76.199219 36.289062 76.226562 36.179688 76.277344 36.082031 L 76.582031 35.480469 C 76.636719 35.375 76.714844 35.289062 76.808594 35.222656 L 76.898438 35.160156 L 76.898438 34.824219 C 76.898438 34.640625 76.972656 34.460938 77.105469 34.332031 L 77.628906 33.804688 C 77.726562 33.707031 77.851562 33.640625 77.988281 33.613281 L 78.300781 33.550781 L 78.300781 33.425781 C 78.300781 33.351562 78.3125 33.277344 78.335938 33.203125 L 78.511719 32.679688 C 78.558594 32.53125 78.65625 32.40625 78.785156 32.316406 L 79 32.175781 L 79 31.875 L 78.785156 31.734375 C 78.675781 31.660156 78.589844 31.558594 78.535156 31.4375 L 78.371094 31.070312 C 78.304688 30.921875 78.292969 30.753906 78.335938 30.597656 L 78.609375 29.597656 C 78.679688 29.34375 78.886719 29.152344 79.140625 29.097656 L 80.453125 28.824219 L 81.230469 28.402344 L 81.78125 26.5625 L 81.671875 25.953125 L 81.113281 25.308594 C 81.066406 25.25 81.027344 25.183594 80.996094 25.117188 L 80.800781 24.636719 L 80.214844 24.476562 C 79.910156 24.390625 79.699219 24.117188 79.699219 23.800781 L 79.699219 23.101562 C 79.699219 22.714844 80.011719 22.402344 80.398438 22.402344 L 93 22.402344 C 93.386719 22.402344 93.699219 22.714844 93.699219 23.101562 L 93.699219 24.332031 L 94.242188 25.40625 C 94.265625 25.445312 94.28125 25.488281 94.292969 25.53125 L 94.703125 26.964844 L 94.828125 27.050781 C 95.007812 27.175781 95.121094 27.375 95.132812 27.59375 L 95.800781 40.566406 C 95.804688 40.675781 95.785156 40.785156 95.738281 40.886719 L 95.101562 42.324219 L 95.101562 42.839844 L 95.683594 43.710938 C 95.757812 43.828125 95.800781 43.964844 95.800781 44.101562 L 95.800781 45.5 C 95.800781 45.664062 95.742188 45.820312 95.640625 45.949219 L 94.949219 46.78125 L 94.464844 47.710938 C 94.4375 47.757812 94.40625 47.804688 94.371094 47.84375 L 93.878906 48.414062 L 93.671875 50.351562 C 93.664062 50.433594 93.640625 50.515625 93.601562 50.589844 L 93.363281 51.066406 C 93.320312 51.15625 93.253906 51.234375 93.175781 51.296875 L 93 51.4375 L 93 52.5 C 93 52.839844 92.757812 53.128906 92.425781 53.191406 L 91.820312 53.296875 L 91.675781 53.382812 L 92.117188 53.90625 C 92.222656 54.027344 92.277344 54.179688 92.285156 54.335938 L 92.300781 54.839844 C 92.308594 55.089844 92.183594 55.324219 91.972656 55.457031 L 91.269531 55.894531 C 91.15625 55.964844 91.027344 56 90.898438 56 Z M 90.898438 56 " fill-opacity="1" fill-rule="nonzero"/></g></svg>