<svg xmlns="http://www.w3.org/2000/svg" xmlns:xlink="http://www.w3.org/1999/xlink" width="230" zoomAndPan="magnify" viewBox="0 0 172.5 112.499997" height="150" preserveAspectRatio="xMidYMid meet" version="1.0"><defs><g/><clipPath id="1b8c533177"><path d="M 0.132812 0 L 171.871094 0 L 171.871094 112.003906 L 0.132812 112.003906 Z M 0.132812 0 " clip-rule="nonzero"/></clipPath><clipPath id="39cb783641"><path d="M 54.453125 22.402344 L 117.917969 22.402344 L 117.917969 56 L 54.453125 56 Z M 54.453125 22.402344 " clip-rule="nonzero"/></clipPath></defs><g clip-path="url(#1b8c533177)"><path fill="#ffffff" d="M 0.132812 0 L 171.871094 0 L 171.871094 112.003906 L 0.132812 112.003906 Z M 0.132812 0 " fill-opacity="1" fill-rule="nonzero"/><path fill="#f3f1ea" d="M 0.132812 0 L 171.871094 0 L 171.871094 112.003906 L 0.132812 112.003906 Z M 0.132812 0 " fill-opacity="1" fill-rule="nonzero"/></g><g fill="#000000" fill-opacity="1"><g transform="translate(59.527048, 75.865618)"><g><path d="M 13.109375 -9.40625 C 14.285156 -9.40625 15.207031 -9.050781 15.875 -8.34375 C 16.550781 -7.632812 16.890625 -6.664062 16.890625 -5.4375 L 16.890625 0 L 13.625 0 L 13.625 -5 C 13.625 -5.5 13.484375 -5.882812 13.203125 -6.15625 C 12.929688 -6.4375 12.5625 -6.578125 12.09375 -6.578125 C 11.613281 -6.578125 11.234375 -6.4375 10.953125 -6.15625 C 10.679688 -5.882812 10.546875 -5.5 10.546875 -5 L 10.546875 0 L 7.28125 0 L 7.28125 -5 C 7.28125 -5.5 7.144531 -5.882812 6.875 -6.15625 C 6.601562 -6.4375 6.226562 -6.578125 5.75 -6.578125 C 5.257812 -6.578125 4.875 -6.4375 4.59375 -6.15625 C 4.320312 -5.882812 4.1875 -5.5 4.1875 -5 L 4.1875 0 L 0.9375 0 L 0.9375 -9.328125 L 4.1875 -9.328125 L 4.1875 -8.09375 C 4.476562 -8.488281 4.851562 -8.804688 5.3125 -9.046875 C 5.769531 -9.285156 6.300781 -9.40625 6.90625 -9.40625 C 7.59375 -9.40625 8.203125 -9.253906 8.734375 -8.953125 C 9.273438 -8.660156 9.703125 -8.242188 10.015625 -7.703125 C 10.335938 -8.210938 10.769531 -8.625 11.3125 -8.9375 C 11.863281 -9.25 12.460938 -9.40625 13.109375 -9.40625 Z M 13.109375 -9.40625 "/></g></g></g><g fill="#000000" fill-opacity="1"><g transform="translate(77.259798, 75.865618)"><g><path d="M 0.40625 -4.671875 C 0.40625 -5.640625 0.578125 -6.484375 0.921875 -7.203125 C 1.273438 -7.921875 1.753906 -8.472656 2.359375 -8.859375 C 2.960938 -9.242188 3.632812 -9.4375 4.375 -9.4375 C 5.019531 -9.4375 5.570312 -9.304688 6.03125 -9.046875 C 6.5 -8.796875 6.859375 -8.457031 7.109375 -8.03125 L 7.109375 -9.328125 L 10.375 -9.328125 L 10.375 0 L 7.109375 0 L 7.109375 -1.296875 C 6.859375 -0.859375 6.492188 -0.515625 6.015625 -0.265625 C 5.546875 -0.015625 5 0.109375 4.375 0.109375 C 3.632812 0.109375 2.960938 -0.0820312 2.359375 -0.46875 C 1.753906 -0.851562 1.273438 -1.40625 0.921875 -2.125 C 0.578125 -2.851562 0.40625 -3.703125 0.40625 -4.671875 Z M 7.109375 -4.671875 C 7.109375 -5.265625 6.945312 -5.734375 6.625 -6.078125 C 6.300781 -6.421875 5.898438 -6.59375 5.421875 -6.59375 C 4.929688 -6.59375 4.523438 -6.425781 4.203125 -6.09375 C 3.878906 -5.757812 3.71875 -5.285156 3.71875 -4.671875 C 3.71875 -4.078125 3.878906 -3.601562 4.203125 -3.25 C 4.523438 -2.894531 4.929688 -2.71875 5.421875 -2.71875 C 5.898438 -2.71875 6.300781 -2.890625 6.625 -3.234375 C 6.945312 -3.578125 7.109375 -4.054688 7.109375 -4.671875 Z M 7.109375 -4.671875 "/></g></g></g><g fill="#000000" fill-opacity="1"><g transform="translate(88.560891, 75.865618)"><g><path d="M 4.90625 0.109375 C 4.0625 0.109375 3.304688 -0.03125 2.640625 -0.3125 C 1.984375 -0.59375 1.460938 -0.976562 1.078125 -1.46875 C 0.703125 -1.96875 0.492188 -2.523438 0.453125 -3.140625 L 3.609375 -3.140625 C 3.648438 -2.835938 3.785156 -2.601562 4.015625 -2.4375 C 4.253906 -2.269531 4.546875 -2.1875 4.890625 -2.1875 C 5.148438 -2.1875 5.359375 -2.242188 5.515625 -2.359375 C 5.671875 -2.472656 5.75 -2.617188 5.75 -2.796875 C 5.75 -3.023438 5.617188 -3.191406 5.359375 -3.296875 C 5.109375 -3.410156 4.691406 -3.535156 4.109375 -3.671875 C 3.441406 -3.804688 2.882812 -3.957031 2.4375 -4.125 C 2 -4.289062 1.613281 -4.5625 1.28125 -4.9375 C 0.957031 -5.3125 0.796875 -5.820312 0.796875 -6.46875 C 0.796875 -7.019531 0.945312 -7.519531 1.25 -7.96875 C 1.550781 -8.414062 1.988281 -8.769531 2.5625 -9.03125 C 3.144531 -9.300781 3.847656 -9.4375 4.671875 -9.4375 C 5.890625 -9.4375 6.847656 -9.132812 7.546875 -8.53125 C 8.242188 -7.9375 8.648438 -7.15625 8.765625 -6.1875 L 5.8125 -6.1875 C 5.757812 -6.488281 5.628906 -6.71875 5.421875 -6.875 C 5.222656 -7.03125 4.953125 -7.109375 4.609375 -7.109375 C 4.335938 -7.109375 4.132812 -7.054688 4 -6.953125 C 3.863281 -6.859375 3.796875 -6.722656 3.796875 -6.546875 C 3.796875 -6.328125 3.921875 -6.160156 4.171875 -6.046875 C 4.429688 -5.929688 4.84375 -5.8125 5.40625 -5.6875 C 6.082031 -5.539062 6.644531 -5.378906 7.09375 -5.203125 C 7.539062 -5.023438 7.929688 -4.738281 8.265625 -4.34375 C 8.609375 -3.945312 8.78125 -3.414062 8.78125 -2.75 C 8.78125 -2.195312 8.617188 -1.703125 8.296875 -1.265625 C 7.984375 -0.835938 7.535156 -0.5 6.953125 -0.25 C 6.367188 -0.0078125 5.6875 0.109375 4.90625 0.109375 Z M 4.90625 0.109375 "/></g></g></g><g fill="#000000" fill-opacity="1"><g transform="translate(98.000624, 75.865618)"><g><path d="M 4.90625 0.109375 C 4.0625 0.109375 3.304688 -0.03125 2.640625 -0.3125 C 1.984375 -0.59375 1.460938 -0.976562 1.078125 -1.46875 C 0.703125 -1.96875 0.492188 -2.523438 0.453125 -3.140625 L 3.609375 -3.140625 C 3.648438 -2.835938 3.785156 -2.601562 4.015625 -2.4375 C 4.253906 -2.269531 4.546875 -2.1875 4.890625 -2.1875 C 5.148438 -2.1875 5.359375 -2.242188 5.515625 -2.359375 C 5.671875 -2.472656 5.75 -2.617188 5.75 -2.796875 C 5.75 -3.023438 5.617188 -3.191406 5.359375 -3.296875 C 5.109375 -3.410156 4.691406 -3.535156 4.109375 -3.671875 C 3.441406 -3.804688 2.882812 -3.957031 2.4375 -4.125 C 2 -4.289062 1.613281 -4.5625 1.28125 -4.9375 C 0.957031 -5.3125 0.796875 -5.820312 0.796875 -6.46875 C 0.796875 -7.019531 0.945312 -7.519531 1.25 -7.96875 C 1.550781 -8.414062 1.988281 -8.769531 2.5625 -9.03125 C 3.144531 -9.300781 3.847656 -9.4375 4.671875 -9.4375 C 5.890625 -9.4375 6.847656 -9.132812 7.546875 -8.53125 C 8.242188 -7.9375 8.648438 -7.15625 8.765625 -6.1875 L 5.8125 -6.1875 C 5.757812 -6.488281 5.628906 -6.71875 5.421875 -6.875 C 5.222656 -7.03125 4.953125 -7.109375 4.609375 -7.109375 C 4.335938 -7.109375 4.132812 -7.054688 4 -6.953125 C 3.863281 -6.859375 3.796875 -6.722656 3.796875 -6.546875 C 3.796875 -6.328125 3.921875 -6.160156 4.171875 -6.046875 C 4.429688 -5.929688 4.84375 -5.8125 5.40625 -5.6875 C 6.082031 -5.539062 6.644531 -5.378906 7.09375 -5.203125 C 7.539062 -5.023438 7.929688 -4.738281 8.265625 -4.34375 C 8.609375 -3.945312 8.78125 -3.414062 8.78125 -2.75 C 8.78125 -2.195312 8.617188 -1.703125 8.296875 -1.265625 C 7.984375 -0.835938 7.535156 -0.5 6.953125 -0.25 C 6.367188 -0.0078125 5.6875 0.109375 4.90625 0.109375 Z M 4.90625 0.109375 "/></g></g></g><g fill="#000000" fill-opacity="1"><g transform="translate(107.440356, 75.865618)"><g><path d="M 2.515625 0.140625 C 1.929688 0.140625 1.460938 -0.015625 1.109375 -0.328125 C 0.765625 -0.648438 0.59375 -1.054688 0.59375 -1.546875 C 0.59375 -2.035156 0.765625 -2.4375 1.109375 -2.75 C 1.460938 -3.070312 1.929688 -3.234375 2.515625 -3.234375 C 3.078125 -3.234375 3.53125 -3.070312 3.875 -2.75 C 4.226562 -2.4375 4.40625 -2.035156 4.40625 -1.546875 C 4.40625 -1.066406 4.226562 -0.664062 3.875 -0.34375 C 3.53125 -0.0195312 3.078125 0.140625 2.515625 0.140625 Z M 2.515625 0.140625 "/></g></g></g><g clip-path="url(#39cb783641)"><path fill="#5e1ff0" d="M 94.660156 22.597656 L 95.210938 22.320312 L 95.210938 22.414062 L 95.574219 23.238281 L 95.574219 23.421875 L 95.484375 23.511719 L 94.660156 23.695312 L 94.933594 23.789062 L 95.117188 23.882812 L 95.484375 23.972656 L 95.578125 23.972656 L 95.667969 23.882812 L 95.761719 23.882812 L 95.851562 23.972656 L 95.945312 24.15625 L 96.21875 24.339844 L 97.046875 25.714844 L 97.046875 25.898438 L 96.3125 25.257812 L 96.035156 25.160156 L 96.3125 25.800781 L 96.773438 26.078125 L 97.871094 26.351562 L 97.6875 26.535156 L 97.503906 26.628906 L 97.316406 26.628906 L 97.777344 26.902344 L 98.691406 26.8125 L 98.785156 27.085938 L 99.152344 27.179688 L 99.152344 26.902344 L 98.96875 26.351562 L 99.058594 26.078125 L 99.609375 25.527344 L 99.703125 25.894531 L 99.792969 25.984375 L 99.976562 26.078125 L 100.160156 25.984375 L 100.34375 26.078125 L 100.34375 26.445312 L 100.527344 26.535156 L 100.527344 26.71875 L 100.34375 26.8125 L 100.253906 26.902344 L 100.160156 27.179688 L 100.070312 27.363281 L 99.976562 27.546875 L 99.886719 27.640625 L 99.519531 27.640625 L 99.519531 27.546875 L 99.425781 27.546875 L 99.242188 27.730469 L 99.152344 28.007812 L 99.058594 28.28125 L 99.058594 28.464844 L 97.222656 29.382812 L 96.492188 29.929688 L 96.214844 30.296875 L 96.398438 30.390625 L 96.308594 30.480469 L 96.214844 30.664062 L 96.214844 31.125 L 96.398438 30.941406 L 96.582031 30.664062 L 96.675781 30.480469 L 97.042969 30.847656 L 97.132812 30.941406 L 97.042969 31.03125 L 96.859375 31.125 L 96.765625 31.214844 L 96.765625 31.308594 L 96.492188 31.765625 L 96.308594 31.949219 L 96.035156 31.949219 L 95.945312 32.042969 L 95.945312 32.410156 L 96.128906 32.59375 L 96.402344 32.683594 L 96.679688 32.777344 L 96.3125 33.050781 L 95.671875 32.59375 L 95.394531 32.867188 L 95.304688 33.234375 L 95.394531 33.417969 L 95.578125 33.785156 L 95.761719 34.246094 L 95.855469 34.429688 L 96.039062 34.613281 L 95.855469 34.703125 L 95.488281 34.335938 L 95.214844 34.335938 L 95.03125 34.429688 L 95.121094 34.613281 L 95.304688 34.703125 L 95.488281 34.796875 L 95.214844 34.886719 L 94.847656 34.796875 L 94.574219 34.703125 L 94.480469 35.070312 L 94.847656 35.070312 L 95.03125 35.160156 L 95.125 35.34375 L 94.941406 35.4375 L 94.757812 35.621094 L 94.757812 35.894531 L 94.941406 36.171875 L 95.214844 36.261719 L 95.308594 36.261719 L 95.671875 35.894531 L 95.765625 36.539062 L 96.042969 36.539062 L 96.410156 36.445312 L 96.589844 36.722656 L 96.589844 36.8125 L 96.5 37.089844 L 96.5 37.179688 L 96.589844 37.273438 L 96.867188 37.273438 L 96.867188 37.179688 L 96.957031 37.179688 L 97.140625 36.996094 L 97.417969 36.722656 L 97.601562 36.539062 L 97.875 36.8125 L 97.96875 36.628906 L 98.058594 36.355469 L 98.058594 36.261719 L 97.785156 36.171875 L 97.507812 35.894531 L 97.324219 35.621094 L 97.234375 35.34375 L 98.148438 35.894531 L 98.609375 36.078125 L 99.523438 36.078125 L 99.980469 36.261719 L 100.347656 36.445312 L 100.898438 36.902344 L 100.988281 36.996094 L 101.171875 37.726562 L 101.265625 37.726562 L 101.539062 37.910156 L 101.996094 38.277344 L 102.640625 38.921875 L 103.097656 39.195312 L 103.097656 39.65625 L 104.105469 40.664062 L 104.195312 40.664062 L 104.195312 40.9375 L 104.011719 41.121094 L 103.460938 41.121094 L 103.554688 41.03125 L 103.644531 40.9375 L 103.828125 40.847656 L 103.460938 40.296875 L 103.1875 40.019531 L 103.003906 39.929688 L 102.910156 40.113281 L 103.003906 41.210938 L 102.820312 41.121094 L 102.726562 41.210938 L 102.542969 41.210938 L 102.453125 41.394531 L 103.734375 42.128906 L 104.101562 42.3125 L 104.375 42.21875 L 105.015625 42.035156 L 105.476562 42.21875 L 105.933594 42.953125 L 106.300781 43.777344 L 106.300781 44.417969 L 106.484375 44.96875 L 107.125 45.429688 L 108.410156 45.886719 L 109.140625 45.980469 L 111.25 45.613281 L 111.066406 45.796875 L 110.421875 45.980469 L 110.238281 46.164062 L 110.332031 46.253906 L 110.699219 46.253906 L 111.429688 46.070312 L 111.890625 45.707031 L 112.625 44.972656 L 114 44.148438 L 114.457031 43.691406 L 115.007812 43.414062 L 115.191406 43.230469 L 115.375 42.5 L 115.285156 41.765625 L 115.007812 41.03125 L 114.457031 40.570312 L 114.640625 40.570312 L 114.730469 40.480469 L 115.007812 40.296875 L 115.007812 40.113281 L 114.640625 40.113281 L 114.363281 40.019531 L 114.179688 39.929688 L 113.996094 39.835938 L 113.8125 40.113281 L 113.90625 40.847656 L 113.8125 41.121094 L 113.539062 40.023438 L 113.355469 39.65625 L 112.804688 38.738281 L 112.621094 38.464844 L 112.253906 37.824219 L 111.523438 37.546875 L 110.972656 37.730469 L 110.789062 38.371094 L 111.0625 38.371094 L 111.15625 38.28125 L 111.15625 38.464844 L 110.878906 38.648438 L 110.605469 38.554688 L 110.054688 38.097656 L 109.960938 38.097656 L 109.871094 38.003906 L 109.6875 38.003906 L 109.6875 37.636719 L 109.777344 37.453125 L 109.871094 37.269531 L 110.054688 37.179688 L 110.328125 37.269531 L 111.0625 36.996094 L 111.335938 36.996094 L 111.613281 37.179688 L 112.4375 37.363281 L 112.894531 37.453125 L 114.085938 38.277344 L 114.636719 38.828125 L 116.195312 41.304688 L 116.5625 41.671875 L 116.472656 41.761719 L 116.472656 41.855469 L 116.378906 41.855469 L 116.011719 41.761719 L 115.738281 41.578125 L 115.738281 41.855469 L 115.828125 42.5 L 115.828125 42.867188 L 116.199219 42.5 L 116.472656 42.5 L 116.65625 42.773438 L 117.023438 43.875 L 117.304688 45.421875 L 116.664062 45.421875 L 114.097656 46.707031 L 113.269531 46.890625 L 112.8125 47.347656 L 112.628906 47.441406 L 112.445312 47.53125 L 112.355469 47.714844 L 112.261719 48.265625 L 112.078125 48.449219 L 112.078125 47.53125 L 111.804688 47.714844 L 111.4375 47.988281 L 111.160156 48.171875 L 110.613281 48.265625 L 110.429688 48.355469 L 110.246094 48.632812 L 110.0625 48.8125 L 109.695312 48.449219 L 109.511719 48.449219 L 109.328125 48.632812 L 109.050781 49.730469 L 108.867188 50.191406 L 108.5 50.558594 L 108.042969 50.832031 L 107.496094 51.015625 L 107.035156 51.199219 L 106.121094 51.933594 L 105.664062 52.117188 L 105.9375 51.566406 L 105.9375 50.925781 L 105.480469 49.183594 L 105.292969 48.816406 L 105.109375 48.539062 L 105.203125 48.265625 L 105.386719 48.082031 L 105.386719 47.804688 L 105.292969 47.621094 L 105.386719 47.4375 L 105.480469 47.347656 L 105.292969 47.164062 L 105.109375 47.164062 L 105.019531 47.347656 L 105.019531 47.714844 L 104.925781 47.714844 L 104.285156 47.4375 L 103.917969 47.347656 L 103.738281 47.4375 L 103.828125 48.171875 L 104.011719 48.449219 L 104.195312 48.722656 L 103.738281 48.816406 L 103.644531 49.089844 L 103.644531 49.457031 L 103.460938 49.914062 L 103.097656 49.640625 L 102.914062 49.734375 L 102.820312 50.007812 L 102.914062 50.101562 L 102.914062 50.191406 L 102.453125 50.652344 L 102.269531 50.652344 L 102.546875 51.203125 L 102.546875 51.480469 L 102.363281 51.570312 L 102.269531 51.480469 L 101.996094 51.109375 L 101.902344 50.929688 L 101.71875 50.835938 L 101.261719 50.652344 L 101.355469 51.292969 L 101.261719 51.664062 L 101.171875 52.121094 L 101.445312 52.765625 L 101.171875 53.222656 L 100.988281 53.40625 L 100.804688 53.5 L 100.710938 53.40625 L 100.804688 53.316406 L 100.164062 54.046875 L 99.796875 54.324219 L 99.25 54.230469 L 99.523438 53.957031 L 99.523438 53.679688 L 99.339844 53.3125 L 99.066406 53.128906 L 99.15625 53.585938 L 98.972656 53.769531 L 98.332031 53.769531 L 98.605469 54.136719 L 98.699219 54.230469 L 98.332031 54.503906 L 97.507812 55.878906 L 97.140625 55.328125 L 97.046875 55.144531 L 97.046875 54.6875 L 96.679688 53.953125 L 96.316406 52.945312 L 96.222656 52.398438 L 96.128906 51.9375 L 96.128906 50.929688 L 96.679688 49.097656 L 96.863281 48.089844 L 96.589844 48.273438 L 96.496094 48.546875 L 96.21875 49.738281 L 96.128906 49.921875 L 96.035156 50.105469 L 95.578125 50.015625 L 95.394531 50.015625 L 95.300781 50.199219 L 95.300781 50.292969 L 95.210938 50.65625 L 94.476562 49.832031 L 94.109375 49.648438 L 93.652344 49.648438 L 93.378906 49.464844 L 93.101562 49.28125 L 92.917969 49.097656 L 92.917969 49.007812 L 92.828125 48.824219 L 92.734375 48.089844 L 92.644531 47.816406 L 92.550781 47.722656 L 92.550781 47.257812 L 92.460938 46.980469 L 92.367188 46.890625 L 92.183594 46.890625 L 91.910156 46.980469 L 91.726562 46.980469 L 91.632812 46.890625 L 91.632812 46.796875 L 91.175781 45.332031 L 90.992188 44.6875 L 90.808594 44.324219 L 89.980469 44.597656 L 88.421875 44.964844 L 86.953125 45.425781 L 85.398438 45.882812 L 83.929688 46.25 L 83.839844 46.066406 L 81.914062 46.523438 L 79.4375 47.074219 L 76.871094 47.71875 L 74.398438 48.265625 L 71.929688 48.90625 L 71.011719 49.089844 L 70.734375 49.269531 L 70.644531 49.363281 L 70 49.363281 L 67.617188 49.914062 L 67.710938 50.464844 L 66.976562 50.648438 L 66.792969 50.097656 L 65.878906 50.1875 L 64.777344 50.464844 L 63.585938 50.738281 L 61.566406 51.105469 L 59.457031 51.5625 L 57.351562 51.929688 L 55.335938 52.390625 L 54.695312 51.929688 L 54.695312 50.648438 L 54.785156 48.8125 L 54.785156 47.074219 L 54.878906 45.332031 L 54.878906 43.589844 L 54.96875 41.847656 L 54.96875 40.105469 L 55.0625 38.363281 L 55.0625 35.976562 L 55.246094 35.613281 L 56.070312 35.429688 L 56.988281 35.246094 L 59.460938 34.695312 L 60.285156 34.601562 L 62.757812 34.050781 L 63.585938 33.867188 L 64.410156 33.683594 L 65.234375 33.503906 L 66.058594 33.320312 L 66.886719 33.136719 L 67.710938 33.042969 L 68.535156 32.859375 L 68.628906 32.859375 L 69.820312 32.585938 L 71.011719 32.308594 L 72.203125 32.035156 L 73.398438 31.757812 L 74.589844 31.484375 L 75.78125 31.207031 L 76.972656 30.933594 L 78.164062 30.75 L 79.355469 30.472656 L 80.546875 30.199219 L 81.738281 29.921875 L 84.121094 29.375 L 86.503906 28.820312 L 87.699219 28.546875 L 88.066406 28.457031 L 88.25 28.363281 L 88.617188 27.996094 L 88.707031 27.722656 L 88.890625 27.355469 L 88.984375 27.261719 L 89.167969 27.171875 L 89.441406 26.988281 L 89.625 26.804688 L 89.71875 26.527344 L 89.808594 26.4375 L 89.808594 25.894531 L 89.902344 25.621094 L 89.902344 25.527344 L 89.992188 25.34375 L 90.085938 25.253906 L 90.175781 25.160156 L 90.269531 25.070312 L 90.453125 24.976562 L 90.726562 24.886719 L 91.09375 24.886719 L 91.277344 24.792969 L 91.460938 24.519531 L 91.554688 24.335938 L 91.644531 23.96875 L 91.738281 23.875 L 91.921875 23.695312 L 93.296875 22.59375 L 93.480469 22.503906 L 93.664062 22.503906 L 94.304688 22.59375 L 94.660156 22.59375 Z M 94.660156 22.597656 " fill-opacity="1" fill-rule="nonzero"/></g></svg>