<svg xmlns="http://www.w3.org/2000/svg" xmlns:xlink="http://www.w3.org/1999/xlink" width="230" zoomAndPan="magnify" viewBox="0 0 172.5 112.499997" height="150" preserveAspectRatio="xMidYMid meet" version="1.0"><defs><g/><clipPath id="9b2cd4c15c"><path d="M 0.132812 0 L 171.871094 0 L 171.871094 112.003906 L 0.132812 112.003906 Z M 0.132812 0 " clip-rule="nonzero"/></clipPath><clipPath id="7841d4ca64"><path d="M 69.117188 23.582031 L 102.71875 23.582031 L 102.71875 55.691406 L 69.117188 55.691406 Z M 69.117188 23.582031 " clip-rule="nonzero"/></clipPath></defs><g clip-path="url(#9b2cd4c15c)"><path fill="#ffffff" d="M 0.132812 0 L 171.871094 0 L 171.871094 112.003906 L 0.132812 112.003906 Z M 0.132812 0 " fill-opacity="1" fill-rule="nonzero"/><path fill="#f3f1ea" d="M 0.132812 0 L 171.871094 0 L 171.871094 112.003906 L 0.132812 112.003906 Z M 0.132812 0 " fill-opacity="1" fill-rule="nonzero"/></g><g fill="#000000" fill-opacity="1"><g transform="translate(44.254013, 75.865618)"><g><path d="M 13.109375 -9.40625 C 14.285156 -9.40625 15.207031 -9.050781 15.875 -8.34375 C 16.550781 -7.632812 16.890625 -6.664062 16.890625 -5.4375 L 16.890625 0 L 13.625 0 L 13.625 -5 C 13.625 -5.5 13.484375 -5.882812 13.203125 -6.15625 C 12.929688 -6.4375 12.5625 -6.578125 12.09375 -6.578125 C 11.613281 -6.578125 11.234375 -6.4375 10.953125 -6.15625 C 10.679688 -5.882812 10.546875 -5.5 10.546875 -5 L 10.546875 0 L 7.28125 0 L 7.28125 -5 C 7.28125 -5.5 7.144531 -5.882812 6.875 -6.15625 C 6.601562 -6.4375 6.226562 -6.578125 5.75 -6.578125 C 5.257812 -6.578125 4.875 -6.4375 4.59375 -6.15625 C 4.320312 -5.882812 4.1875 -5.5 4.1875 -5 L 4.1875 0 L 0.9375 0 L 0.9375 -9.328125 L 4.1875 -9.328125 L 4.1875 -8.09375 C 4.476562 -8.488281 4.851562 -8.804688 5.3125 -9.046875 C 5.769531 -9.285156 6.300781 -9.40625 6.90625 -9.40625 C 7.59375 -9.40625 8.203125 -9.253906 8.734375 -8.953125 C 9.273438 -8.660156 9.703125 -8.242188 10.015625 -7.703125 C 10.335938 -8.210938 10.769531 -8.625 11.3125 -8.9375 C 11.863281 -9.25 12.460938 -9.40625 13.109375 -9.40625 Z M 13.109375 -9.40625 "/></g></g></g><g fill="#000000" fill-opacity="1"><g transform="translate(61.986763, 75.865618)"><g><path d="M 2.578125 -10.1875 C 2.003906 -10.1875 1.539062 -10.34375 1.1875 -10.65625 C 0.84375 -10.976562 0.671875 -11.378906 0.671875 -11.859375 C 0.671875 -12.335938 0.84375 -12.738281 1.1875 -13.0625 C 1.539062 -13.382812 2.003906 -13.546875 2.578125 -13.546875 C 3.140625 -13.546875 3.59375 -13.382812 3.9375 -13.0625 C 4.289062 -12.738281 4.46875 -12.335938 4.46875 -11.859375 C 4.46875 -11.378906 4.289062 -10.976562 3.9375 -10.65625 C 3.59375 -10.34375 3.140625 -10.1875 2.578125 -10.1875 Z M 4.1875 -9.328125 L 4.1875 0 L 0.9375 0 L 0.9375 -9.328125 Z M 4.1875 -9.328125 "/></g></g></g><g fill="#000000" fill-opacity="1"><g transform="translate(67.105493, 75.865618)"><g><path d="M 0.40625 -4.671875 C 0.40625 -5.640625 0.601562 -6.484375 1 -7.203125 C 1.394531 -7.921875 1.945312 -8.472656 2.65625 -8.859375 C 3.375 -9.242188 4.195312 -9.4375 5.125 -9.4375 C 6.3125 -9.4375 7.304688 -9.113281 8.109375 -8.46875 C 8.921875 -7.820312 9.441406 -6.914062 9.671875 -5.75 L 6.21875 -5.75 C 6.019531 -6.363281 5.628906 -6.671875 5.046875 -6.671875 C 4.640625 -6.671875 4.316406 -6.5 4.078125 -6.15625 C 3.835938 -5.820312 3.71875 -5.328125 3.71875 -4.671875 C 3.71875 -4.015625 3.835938 -3.515625 4.078125 -3.171875 C 4.316406 -2.828125 4.640625 -2.65625 5.046875 -2.65625 C 5.640625 -2.65625 6.03125 -2.960938 6.21875 -3.578125 L 9.671875 -3.578125 C 9.441406 -2.421875 8.921875 -1.515625 8.109375 -0.859375 C 7.304688 -0.210938 6.3125 0.109375 5.125 0.109375 C 4.195312 0.109375 3.375 -0.0820312 2.65625 -0.46875 C 1.945312 -0.851562 1.394531 -1.40625 1 -2.125 C 0.601562 -2.84375 0.40625 -3.691406 0.40625 -4.671875 Z M 0.40625 -4.671875 "/></g></g></g><g fill="#000000" fill-opacity="1"><g transform="translate(77.193384, 75.865618)"><g><path d="M 7.0625 -9.40625 C 8.125 -9.40625 8.96875 -9.046875 9.59375 -8.328125 C 10.226562 -7.617188 10.546875 -6.65625 10.546875 -5.4375 L 10.546875 0 L 7.28125 0 L 7.28125 -5 C 7.28125 -5.53125 7.140625 -5.945312 6.859375 -6.25 C 6.585938 -6.5625 6.21875 -6.71875 5.75 -6.71875 C 5.257812 -6.71875 4.875 -6.5625 4.59375 -6.25 C 4.320312 -5.945312 4.1875 -5.53125 4.1875 -5 L 4.1875 0 L 0.9375 0 L 0.9375 -12.296875 L 4.1875 -12.296875 L 4.1875 -8 C 4.476562 -8.414062 4.867188 -8.753906 5.359375 -9.015625 C 5.847656 -9.273438 6.414062 -9.40625 7.0625 -9.40625 Z M 7.0625 -9.40625 "/></g></g></g><g fill="#000000" fill-opacity="1"><g transform="translate(88.594201, 75.865618)"><g><path d="M 2.578125 -10.1875 C 2.003906 -10.1875 1.539062 -10.34375 1.1875 -10.65625 C 0.84375 -10.976562 0.671875 -11.378906 0.671875 -11.859375 C 0.671875 -12.335938 0.84375 -12.738281 1.1875 -13.0625 C 1.539062 -13.382812 2.003906 -13.546875 2.578125 -13.546875 C 3.140625 -13.546875 3.59375 -13.382812 3.9375 -13.0625 C 4.289062 -12.738281 4.46875 -12.335938 4.46875 -11.859375 C 4.46875 -11.378906 4.289062 -10.976562 3.9375 -10.65625 C 3.59375 -10.34375 3.140625 -10.1875 2.578125 -10.1875 Z M 4.1875 -9.328125 L 4.1875 0 L 0.9375 0 L 0.9375 -9.328125 Z M 4.1875 -9.328125 "/></g></g></g><g fill="#000000" fill-opacity="1"><g transform="translate(93.712931, 75.865618)"><g><path d="M 4.375 -9.4375 C 5 -9.4375 5.546875 -9.304688 6.015625 -9.046875 C 6.492188 -8.796875 6.859375 -8.457031 7.109375 -8.03125 L 7.109375 -9.328125 L 10.375 -9.328125 L 10.375 -0.09375 C 10.375 0.78125 10.207031 1.566406 9.875 2.265625 C 9.539062 2.972656 9.019531 3.535156 8.3125 3.953125 C 7.613281 4.378906 6.726562 4.59375 5.65625 4.59375 C 4.207031 4.59375 3.050781 4.253906 2.1875 3.578125 C 1.320312 2.898438 0.832031 1.976562 0.71875 0.8125 L 3.921875 0.8125 C 3.984375 1.113281 4.148438 1.347656 4.421875 1.515625 C 4.691406 1.679688 5.035156 1.765625 5.453125 1.765625 C 6.554688 1.765625 7.109375 1.144531 7.109375 -0.09375 L 7.109375 -1.296875 C 6.859375 -0.859375 6.492188 -0.515625 6.015625 -0.265625 C 5.546875 -0.015625 5 0.109375 4.375 0.109375 C 3.632812 0.109375 2.960938 -0.0820312 2.359375 -0.46875 C 1.753906 -0.851562 1.273438 -1.40625 0.921875 -2.125 C 0.578125 -2.851562 0.40625 -3.703125 0.40625 -4.671875 C 0.40625 -5.640625 0.578125 -6.484375 0.921875 -7.203125 C 1.273438 -7.921875 1.753906 -8.472656 2.359375 -8.859375 C 2.960938 -9.242188 3.632812 -9.4375 4.375 -9.4375 Z M 7.109375 -4.671875 C 7.109375 -5.265625 6.945312 -5.734375 6.625 -6.078125 C 6.300781 -6.421875 5.898438 -6.59375 5.421875 -6.59375 C 4.929688 -6.59375 4.523438 -6.425781 4.203125 -6.09375 C 3.878906 -5.757812 3.71875 -5.285156 3.71875 -4.671875 C 3.71875 -4.078125 3.878906 -3.601562 4.203125 -3.25 C 4.523438 -2.894531 4.929688 -2.71875 5.421875 -2.71875 C 5.898438 -2.71875 6.300781 -2.890625 6.625 -3.234375 C 6.945312 -3.578125 7.109375 -4.054688 7.109375 -4.671875 Z M 7.109375 -4.671875 "/></g></g></g><g fill="#000000" fill-opacity="1"><g transform="translate(105.014024, 75.865618)"><g><path d="M 0.40625 -4.671875 C 0.40625 -5.640625 0.578125 -6.484375 0.921875 -7.203125 C 1.273438 -7.921875 1.753906 -8.472656 2.359375 -8.859375 C 2.960938 -9.242188 3.632812 -9.4375 4.375 -9.4375 C 5.019531 -9.4375 5.570312 -9.304688 6.03125 -9.046875 C 6.5 -8.796875 6.859375 -8.457031 7.109375 -8.03125 L 7.109375 -9.328125 L 10.375 -9.328125 L 10.375 0 L 7.109375 0 L 7.109375 -1.296875 C 6.859375 -0.859375 6.492188 -0.515625 6.015625 -0.265625 C 5.546875 -0.015625 5 0.109375 4.375 0.109375 C 3.632812 0.109375 2.960938 -0.0820312 2.359375 -0.46875 C 1.753906 -0.851562 1.273438 -1.40625 0.921875 -2.125 C 0.578125 -2.851562 0.40625 -3.703125 0.40625 -4.671875 Z M 7.109375 -4.671875 C 7.109375 -5.265625 6.945312 -5.734375 6.625 -6.078125 C 6.300781 -6.421875 5.898438 -6.59375 5.421875 -6.59375 C 4.929688 -6.59375 4.523438 -6.425781 4.203125 -6.09375 C 3.878906 -5.757812 3.71875 -5.285156 3.71875 -4.671875 C 3.71875 -4.078125 3.878906 -3.601562 4.203125 -3.25 C 4.523438 -2.894531 4.929688 -2.71875 5.421875 -2.71875 C 5.898438 -2.71875 6.300781 -2.890625 6.625 -3.234375 C 6.945312 -3.578125 7.109375 -4.054688 7.109375 -4.671875 Z M 7.109375 -4.671875 "/></g></g></g><g fill="#000000" fill-opacity="1"><g transform="translate(116.315118, 75.865618)"><g><path d="M 7.03125 -9.40625 C 8.101562 -9.40625 8.957031 -9.046875 9.59375 -8.328125 C 10.226562 -7.617188 10.546875 -6.65625 10.546875 -5.4375 L 10.546875 0 L 7.28125 0 L 7.28125 -5 C 7.28125 -5.53125 7.140625 -5.945312 6.859375 -6.25 C 6.585938 -6.5625 6.21875 -6.71875 5.75 -6.71875 C 5.257812 -6.71875 4.875 -6.5625 4.59375 -6.25 C 4.320312 -5.945312 4.1875 -5.53125 4.1875 -5 L 4.1875 0 L 0.9375 0 L 0.9375 -9.328125 L 4.1875 -9.328125 L 4.1875 -8 C 4.476562 -8.414062 4.863281 -8.753906 5.34375 -9.015625 C 5.832031 -9.273438 6.394531 -9.40625 7.03125 -9.40625 Z M 7.03125 -9.40625 "/></g></g></g><g clip-path="url(#7841d4ca64)"><path fill="#5e1ff0" d="M 78.570312 23.582031 C 78.464844 23.582031 78.363281 23.609375 78.269531 23.65625 L 77.367188 24.109375 L 76.019531 24.953125 C 75.980469 24.976562 75.941406 25.003906 75.910156 25.035156 L 74.574219 26.3125 L 73.632812 26.960938 L 72.496094 26.960938 C 72.367188 26.960938 72.246094 26.996094 72.136719 27.0625 L 70.84375 27.871094 L 69.554688 28.351562 C 69.304688 28.445312 69.132812 28.683594 69.121094 28.949219 C 69.105469 29.21875 69.25 29.46875 69.492188 29.589844 L 70.207031 29.949219 L 70.3125 30.46875 C 70.359375 30.707031 70.53125 30.898438 70.761719 30.976562 L 74.460938 32.207031 L 75.488281 32.917969 C 75.597656 32.992188 75.734375 33.035156 75.871094 33.035156 L 77.894531 33.035156 L 77.894531 33.289062 C 77.894531 33.585938 78.085938 33.84375 78.371094 33.933594 L 79.246094 34.207031 L 79.246094 35.738281 C 79.246094 35.792969 79.253906 35.847656 79.265625 35.902344 L 79.433594 36.574219 C 79.457031 36.664062 79.496094 36.746094 79.550781 36.816406 L 80.054688 37.492188 C 80.183594 37.664062 80.386719 37.761719 80.597656 37.761719 C 80.613281 37.761719 80.628906 37.761719 80.640625 37.761719 C 80.867188 37.746094 81.074219 37.613281 81.183594 37.414062 L 82.078125 35.816406 L 82.78125 34.296875 L 83.117188 33.660156 L 83.414062 34.09375 C 83.527344 34.257812 83.707031 34.363281 83.902344 34.382812 C 84.097656 34.40625 84.292969 34.335938 84.4375 34.199219 L 86.054688 32.660156 L 88.121094 32.351562 C 88.265625 32.332031 88.398438 32.265625 88.5 32.164062 L 88.878906 31.785156 L 90.269531 32.253906 L 90.65625 32.882812 C 90.714844 32.976562 90.789062 33.054688 90.882812 33.109375 L 91.726562 33.613281 C 91.832031 33.679688 91.949219 33.710938 92.066406 33.710938 C 92.183594 33.714844 92.300781 33.683594 92.40625 33.625 C 92.621094 33.503906 92.75 33.28125 92.75 33.035156 L 92.75 32.3125 C 92.832031 32.34375 92.917969 32.359375 93.003906 32.359375 L 94.777344 32.359375 C 95.148438 32.359375 95.453125 32.058594 95.453125 31.6875 L 95.453125 31.011719 C 95.453125 30.785156 95.339844 30.574219 95.152344 30.449219 L 94.382812 29.9375 L 94.09375 28.199219 C 94.039062 27.875 93.757812 27.632812 93.425781 27.632812 L 93.003906 27.632812 C 92.839844 27.632812 92.679688 27.695312 92.554688 27.804688 L 91.988281 28.308594 L 90.726562 28.308594 L 90.726562 27.632812 C 90.726562 27.277344 90.445312 26.980469 90.089844 26.960938 C 89.667969 26.9375 89.039062 26.960938 89.011719 26.960938 C 88.90625 26.964844 88.800781 26.992188 88.707031 27.046875 L 88.070312 27.398438 L 85.679688 27.636719 C 85.542969 27.652344 85.414062 27.703125 85.308594 27.792969 L 84.113281 28.804688 L 83.613281 28.4375 C 83.421875 28.300781 83.167969 28.269531 82.953125 28.363281 L 81.894531 28.808594 L 81.601562 28.308594 C 81.578125 28.265625 81.550781 28.226562 81.515625 28.191406 L 80.589844 27.179688 C 80.535156 27.121094 80.476562 27.074219 80.410156 27.039062 L 79.140625 26.363281 C 79.042969 26.3125 78.933594 26.285156 78.824219 26.285156 L 78.738281 26.285156 L 79.007812 25.824219 L 80.335938 24.792969 C 80.5625 24.613281 80.652344 24.3125 80.558594 24.039062 C 80.464844 23.765625 80.210938 23.582031 79.921875 23.582031 Z M 92.066406 33.710938 L 90.808594 33.710938 C 90.644531 33.710938 90.484375 33.773438 90.359375 33.882812 L 89.601562 34.558594 C 89.375 34.761719 89.308594 35.089844 89.445312 35.363281 L 89.6875 35.84375 C 89.5 35.964844 89.375 36.171875 89.375 36.414062 L 89.375 38.625 L 88.453125 38.933594 L 87.988281 37.550781 C 87.882812 37.234375 87.566406 37.046875 87.242188 37.097656 C 86.914062 37.148438 86.675781 37.433594 86.675781 37.761719 L 86.675781 38.4375 C 86.410156 38.4375 86.175781 38.589844 86.0625 38.824219 L 85.386719 40.261719 C 85.34375 40.351562 85.324219 40.449219 85.324219 40.546875 L 85.324219 42.339844 L 84.699219 43.6875 C 84.613281 43.878906 84.621094 44.101562 84.71875 44.285156 L 85.195312 45.199219 L 84.792969 45.695312 C 84.648438 45.878906 84.609375 46.121094 84.683594 46.34375 L 85.84375 49.566406 L 85.996094 50.949219 L 85.917969 52.496094 L 85.5625 53.632812 L 85.148438 54.121094 C 85.105469 54.167969 85.070312 54.222656 85.042969 54.285156 L 84.707031 55.042969 C 84.613281 55.253906 84.632812 55.496094 84.757812 55.6875 C 84.882812 55.878906 85.09375 55.992188 85.324219 55.992188 L 98.828125 55.992188 C 99.082031 55.992188 99.316406 55.847656 99.433594 55.621094 L 100.105469 54.269531 C 100.136719 54.214844 100.15625 54.152344 100.167969 54.09375 L 100.371094 53.003906 L 101.082031 52.488281 C 101.226562 52.382812 101.324219 52.222656 101.351562 52.046875 L 101.449219 51.402344 L 102.078125 51.261719 C 102.359375 51.199219 102.566406 50.96875 102.601562 50.683594 L 102.875 48.394531 C 102.886719 48.296875 102.875 48.195312 102.847656 48.101562 L 102.1875 46.105469 C 102.183594 46.09375 102.179688 46.082031 102.175781 46.074219 L 101.457031 44.214844 L 100.78125 42.863281 C 100.667969 42.632812 100.433594 42.488281 100.179688 42.488281 L 98.996094 42.488281 C 98.804688 42.488281 98.625 42.570312 98.496094 42.710938 L 97.652344 43.636719 C 97.613281 43.683594 97.578125 43.734375 97.546875 43.789062 L 96.957031 44.972656 L 96.765625 45.09375 L 96.128906 44.773438 L 96.128906 43.46875 L 97.246094 42.492188 C 97.320312 42.425781 97.378906 42.347656 97.417969 42.257812 L 98.09375 40.738281 C 98.132812 40.652344 98.152344 40.558594 98.152344 40.464844 L 98.152344 38.4375 C 98.152344 38.257812 98.082031 38.085938 97.953125 37.960938 L 97.757812 37.761719 L 97.953125 37.566406 C 98.183594 37.339844 98.21875 36.980469 98.039062 36.714844 L 97.363281 35.703125 C 97.261719 35.550781 97.105469 35.445312 96.921875 35.410156 L 96.058594 35.257812 L 94.542969 34.824219 L 94.175781 34.207031 C 94.070312 34.035156 93.890625 33.914062 93.691406 33.886719 L 92.507812 33.71875 C 92.476562 33.714844 92.445312 33.710938 92.414062 33.710938 Z M 92.066406 33.710938 " fill-opacity="1" fill-rule="nonzero"/></g></svg>