<svg xmlns="http://www.w3.org/2000/svg" xmlns:xlink="http://www.w3.org/1999/xlink" width="230" zoomAndPan="magnify" viewBox="0 0 172.5 112.499997" height="150" preserveAspectRatio="xMidYMid meet" version="1.0"><defs><g/><clipPath id="3296e34e0f"><path d="M 0.132812 0 L 171.871094 0 L 171.871094 112.003906 L 0.132812 112.003906 Z M 0.132812 0 " clip-rule="nonzero"/></clipPath><clipPath id="129566173f"><path d="M 66 22.199219 L 106 22.199219 L 106 55.800781 L 66 55.800781 Z M 66 22.199219 " clip-rule="nonzero"/></clipPath></defs><g clip-path="url(#3296e34e0f)"><path fill="#ffffff" d="M 0.132812 0 L 171.871094 0 L 171.871094 112.003906 L 0.132812 112.003906 Z M 0.132812 0 " fill-opacity="1" fill-rule="nonzero"/><path fill="#f3f1ea" d="M 0.132812 0 L 171.871094 0 L 171.871094 112.003906 L 0.132812 112.003906 Z M 0.132812 0 " fill-opacity="1" fill-rule="nonzero"/></g><g clip-path="url(#129566173f)"><path fill="#5e1ff0" d="M 102.691406 55.097656 L 102.546875 55.417969 L 102.488281 55.675781 L 102.460938 55.675781 L 101.621094 55.761719 L 100.753906 55.820312 L 99.914062 55.90625 L 99.074219 55.964844 L 98.640625 56.019531 L 98.613281 55.992188 L 98.582031 55.964844 L 98.582031 55.933594 L 98.613281 55.878906 L 98.785156 55.445312 L 98.84375 55.386719 L 98.929688 55.183594 L 98.984375 55.125 L 99.042969 55.039062 L 99.042969 55.011719 L 99.070312 55.011719 L 99.101562 54.984375 L 99.214844 54.953125 L 99.273438 54.925781 L 99.300781 54.925781 L 99.300781 54.898438 L 99.332031 54.867188 L 99.359375 54.8125 L 99.359375 54.667969 L 99.390625 54.640625 L 99.390625 54.609375 L 99.503906 54.496094 L 99.53125 54.496094 L 99.589844 54.46875 L 99.734375 54.382812 L 99.90625 54.265625 L 99.9375 54.265625 L 99.9375 54.238281 L 99.964844 54.179688 L 99.964844 54.152344 L 99.992188 54.003906 L 99.992188 53.976562 L 100.023438 53.949219 L 100.050781 53.917969 L 100.195312 53.863281 L 100.226562 53.832031 L 100.253906 53.832031 L 100.28125 53.804688 L 100.28125 53.777344 L 100.3125 53.71875 L 100.3125 53.605469 L 100.28125 53.402344 L 100.28125 53.34375 L 100.3125 53.171875 L 100.3125 53.074219 L 100.28125 53.046875 L 100.28125 53.015625 L 100.167969 52.902344 L 99.964844 52.785156 L 99.964844 52.753906 L 99.9375 52.726562 L 99.9375 52.699219 L 99.90625 52.667969 L 99.90625 52.496094 L 99.878906 52.496094 L 99.851562 52.464844 L 99.820312 52.4375 L 99.792969 52.4375 L 99.792969 52.40625 L 99.707031 52.234375 L 99.679688 52.175781 L 99.648438 52.148438 L 99.242188 52.175781 L 97.625 52.265625 L 91.140625 52.609375 L 89.519531 52.664062 L 87.898438 52.75 L 86.28125 52.808594 L 84.660156 52.867188 L 83.039062 52.921875 L 81.417969 52.980469 L 79.769531 53.007812 L 78.148438 53.039062 L 76.535156 53.101562 L 74.917969 53.132812 L 73.296875 53.160156 L 73.265625 52.234375 L 73.265625 50.382812 L 73.238281 49.457031 L 73.238281 48.5 L 73.210938 47.574219 L 73.210938 46.621094 L 73.179688 45.664062 L 73.179688 44.738281 L 73.152344 43.785156 L 73.152344 42.828125 L 73.125 41.90625 L 73.125 40.949219 L 73.09375 39.996094 L 73.09375 39.070312 L 73.066406 38.113281 L 73.066406 36.230469 L 73.035156 35.28125 L 73.035156 34.355469 L 73.007812 33.804688 L 73.007812 33.746094 L 72.980469 33.746094 L 72.980469 33.691406 L 73.066406 33.605469 L 73.035156 33.515625 L 72.949219 33.484375 L 72.804688 33.484375 L 72.804688 33.457031 L 72.773438 33.398438 L 72.746094 33.371094 L 72.71875 33.371094 L 72.660156 33.398438 L 72.574219 33.371094 L 72.398438 33.398438 L 72.28125 33.34375 L 72.023438 33.167969 L 71.90625 33.140625 L 71.792969 33.082031 L 71.761719 32.910156 L 71.761719 32.761719 L 71.707031 32.675781 L 71.503906 32.5625 L 71.386719 32.273438 L 71.328125 31.953125 L 71.386719 31.835938 L 71.125 31.78125 L 71.097656 31.75 L 71.070312 31.636719 L 71.039062 31.578125 L 70.808594 31.402344 L 70.691406 31.34375 L 70.605469 31.257812 L 70.460938 30.96875 L 70.433594 30.941406 L 70.347656 30.882812 L 70.230469 30.765625 L 70.171875 30.621094 L 70.171875 30.476562 L 70.230469 30.449219 L 70.375 30.449219 L 70.433594 30.390625 L 70.460938 30.332031 L 70.460938 30.246094 L 70.433594 30.101562 L 70.488281 29.957031 L 70.578125 29.839844 L 70.75 29.636719 L 70.808594 29.609375 L 70.863281 29.582031 L 70.894531 29.523438 L 70.894531 29.347656 L 70.921875 29.292969 L 70.953125 29.234375 L 71.007812 29.207031 L 71.269531 29.261719 L 71.386719 29.292969 L 71.503906 29.175781 L 71.503906 29.117188 L 71.472656 29.0625 L 71.414062 29 L 71.414062 28.828125 L 71.445312 28.683594 L 71.445312 28.597656 L 71.386719 28.539062 L 71.125 28.394531 L 71.039062 28.277344 L 71.097656 28.191406 L 71.097656 28.105469 L 71.070312 28.019531 L 70.984375 27.988281 L 70.867188 27.988281 L 70.75 28.019531 L 70.664062 28.046875 L 70.519531 28.222656 L 70.375 28.277344 L 70.257812 28.335938 L 70.144531 28.277344 L 69.96875 28.078125 L 69.910156 28.046875 L 69.855469 28.019531 L 69.738281 28.019531 L 69.679688 27.988281 L 69.652344 27.960938 L 69.621094 27.902344 L 69.59375 27.816406 L 69.5625 27.757812 L 69.507812 27.757812 L 69.417969 27.730469 L 69.363281 27.730469 L 69.304688 27.613281 L 68.957031 27.296875 L 68.8125 27.152344 L 68.726562 27.121094 L 68.464844 27.0625 L 68.378906 26.976562 L 68.378906 26.859375 L 68.40625 26.6875 L 68.464844 26.542969 L 68.464844 26.425781 L 68.289062 26.253906 L 68.261719 26.136719 L 68.175781 26.023438 L 68.003906 25.820312 L 68.089844 25.644531 L 68.117188 25.558594 L 68.058594 25.472656 L 67.945312 25.445312 L 67.742188 25.414062 L 67.65625 25.386719 L 67.597656 25.269531 L 67.480469 25.097656 L 67.394531 25.007812 L 67.277344 25.007812 L 67.164062 25.039062 L 67.074219 25.007812 L 67.046875 24.921875 L 67.105469 24.867188 L 67.160156 24.808594 L 67.191406 24.75 L 67.191406 24.722656 L 67.105469 24.515625 L 67.019531 24.371094 L 66.988281 24.316406 L 66.988281 24.113281 L 66.960938 23.996094 L 66.84375 23.851562 L 66.816406 23.765625 L 66.785156 23.648438 L 66.816406 23.5625 L 66.816406 23.476562 L 66.730469 23.390625 L 66.585938 23.359375 L 66.46875 23.332031 L 66.410156 23.246094 L 66.382812 23.070312 L 66.410156 22.871094 L 67.796875 22.871094 L 69.160156 22.839844 L 70.546875 22.8125 L 71.90625 22.785156 L 73.265625 22.753906 L 75.984375 22.699219 L 77.34375 22.667969 L 78.703125 22.613281 L 80.089844 22.554688 L 81.449219 22.527344 L 82.8125 22.46875 L 84.171875 22.410156 L 85.53125 22.355469 L 86.890625 22.296875 L 88.25 22.210938 L 88.796875 22.183594 L 89 22.183594 L 89.058594 22.296875 L 89.085938 22.328125 L 89.203125 22.382812 L 89.230469 22.441406 L 89.230469 22.585938 L 89.257812 22.640625 L 89.316406 22.699219 L 89.375 22.726562 L 89.492188 22.757812 L 89.636719 22.84375 L 89.636719 22.871094 L 89.664062 22.957031 L 89.691406 23.015625 L 89.722656 23.042969 L 89.835938 23.042969 L 89.863281 23.074219 L 89.863281 23.128906 L 89.894531 23.160156 L 90.066406 23.246094 L 90.152344 23.332031 L 90.152344 23.476562 L 90.210938 23.53125 L 90.414062 23.734375 L 90.5 23.792969 L 90.644531 23.847656 L 90.699219 23.90625 L 90.566406 24.054688 L 90.453125 24.402344 L 90.363281 24.777344 L 90.363281 25.445312 L 90.566406 26.660156 L 90.59375 26.746094 L 90.679688 26.859375 L 90.796875 26.976562 L 90.824219 27.035156 L 90.855469 27.089844 L 90.882812 27.148438 L 90.882812 27.378906 L 90.855469 27.609375 L 90.855469 27.695312 L 90.882812 27.753906 L 90.96875 27.8125 L 91 27.925781 L 91.171875 28.074219 L 91.203125 28.128906 L 91.230469 28.214844 L 91.257812 28.390625 L 91.316406 28.621094 L 91.460938 28.820312 L 92.9375 30.035156 L 93.023438 30.152344 L 93.109375 30.296875 L 93.136719 30.441406 L 93.195312 30.558594 L 93.28125 30.644531 L 94.640625 31.542969 L 94.785156 31.65625 L 94.929688 31.832031 L 95.074219 32.09375 L 95.160156 32.238281 L 95.191406 32.382812 L 95.21875 32.496094 L 95.21875 32.785156 L 95.246094 32.875 L 95.363281 33.046875 L 95.390625 33.132812 L 95.363281 33.191406 L 95.335938 33.277344 L 95.304688 33.394531 L 95.421875 33.566406 L 95.449219 33.679688 L 95.449219 33.914062 L 95.738281 34.433594 L 95.914062 34.636719 L 96.171875 34.722656 L 96.402344 34.605469 L 96.722656 34.085938 L 97.011719 34.027344 L 97.128906 34.054688 L 97.332031 34.171875 L 97.445312 34.203125 L 97.589844 34.203125 L 97.882812 34.257812 L 98.460938 34.546875 L 98.691406 34.722656 L 98.804688 34.925781 L 98.777344 35.070312 L 98.691406 35.242188 L 98.574219 35.417969 L 98.519531 35.503906 L 98.433594 35.589844 L 98.433594 35.761719 L 98.488281 36.050781 L 98.488281 36.371094 L 98.402344 36.601562 L 98.144531 37.09375 L 97.917969 37.941406 L 97.65625 38.40625 L 97.601562 38.667969 L 97.570312 38.925781 L 97.65625 39.273438 L 97.6875 39.390625 L 97.742188 39.476562 L 97.773438 39.53125 L 97.828125 39.617188 L 98.175781 39.878906 L 98.207031 39.933594 L 98.378906 40.078125 L 98.40625 40.167969 L 98.464844 40.253906 L 98.582031 40.339844 L 98.8125 40.457031 L 98.957031 40.601562 L 99.101562 40.773438 L 99.277344 40.917969 L 99.476562 40.976562 L 99.824219 41.238281 L 99.910156 41.292969 L 100.140625 41.265625 L 100.199219 41.292969 L 100.402344 41.324219 L 100.601562 41.46875 L 100.949219 41.816406 L 101.09375 41.902344 L 101.472656 42.015625 L 101.617188 42.101562 L 101.761719 42.304688 L 101.960938 42.710938 L 102.109375 42.855469 L 102.6875 43.058594 L 102.859375 43.203125 L 102.804688 43.292969 L 102.835938 43.410156 L 102.890625 43.554688 L 102.921875 43.671875 L 102.921875 43.816406 L 102.890625 43.933594 L 102.890625 44.078125 L 102.921875 44.222656 L 103.066406 44.453125 L 103.238281 44.683594 L 103.382812 44.945312 L 103.46875 45.234375 L 103.382812 45.523438 L 103.210938 45.726562 L 103.039062 45.957031 L 103.066406 46.246094 L 103.09375 46.277344 L 103.210938 46.304688 L 103.269531 46.332031 L 103.355469 46.390625 L 103.355469 46.507812 L 103.382812 46.621094 L 103.441406 46.738281 L 103.585938 46.96875 L 103.847656 47.289062 L 103.933594 47.488281 L 103.933594 47.691406 L 104.019531 47.808594 L 104.335938 48.039062 L 104.570312 48.125 L 104.65625 48.097656 L 104.683594 48.039062 L 104.65625 47.921875 L 104.597656 47.867188 L 104.542969 47.808594 L 104.484375 47.75 L 104.425781 47.605469 L 104.457031 47.519531 L 104.542969 47.492188 L 104.6875 47.492188 L 104.742188 47.519531 L 104.773438 47.695312 L 104.800781 47.78125 L 104.859375 47.808594 L 104.972656 47.867188 L 105.03125 47.921875 L 105.0625 48.011719 L 105.089844 48.097656 L 105.117188 48.152344 L 105.175781 48.210938 L 105.234375 48.238281 L 105.289062 48.210938 L 105.375 48.183594 L 105.433594 48.152344 L 105.550781 48.210938 L 105.578125 48.328125 L 105.578125 48.964844 L 105.550781 49.023438 L 105.519531 49.078125 L 105.464844 49.167969 L 105.433594 49.253906 L 105.464844 49.398438 L 105.578125 49.65625 L 105.613281 49.804688 L 105.585938 50.003906 L 105.382812 50.554688 L 105.265625 50.988281 L 105.148438 51.191406 L 105.003906 51.277344 L 104.800781 51.21875 L 104.65625 51.105469 L 104.484375 50.929688 L 104.339844 50.8125 L 104.253906 50.898438 L 104.195312 51.046875 L 104.140625 51.304688 L 104.140625 51.421875 L 104.050781 51.769531 L 104.023438 51.855469 L 104.023438 51.910156 L 103.90625 52.085938 L 103.792969 52.199219 L 103.734375 52.230469 L 103.5625 52.199219 L 103.5625 52.085938 L 103.589844 51.941406 L 103.617188 51.882812 L 103.648438 51.765625 L 103.53125 51.476562 L 103.328125 51.390625 L 103.15625 51.503906 L 103.125 51.765625 L 103.183594 51.851562 L 103.242188 51.910156 L 103.242188 51.9375 L 103.296875 52.054688 L 103.269531 52.171875 L 103.269531 52.285156 L 103.414062 52.605469 L 103.472656 52.75 L 103.414062 52.921875 L 103.296875 53.007812 L 103.152344 53.039062 L 103.007812 53.039062 L 102.890625 53.09375 L 102.921875 53.242188 L 103.007812 53.386719 L 103.152344 53.5 L 103.296875 53.53125 L 103.355469 53.585938 L 103.324219 53.644531 L 103.269531 53.703125 L 103.210938 53.730469 L 102.660156 53.789062 L 102.546875 53.816406 L 102.921875 54.28125 L 103.09375 54.570312 L 103.039062 54.714844 L 102.953125 54.742188 L 102.835938 54.800781 L 102.75 54.886719 L 102.71875 54.972656 Z M 102.691406 55.097656 " fill-opacity="1" fill-rule="nonzero"/></g><g fill="#000000" fill-opacity="1"><g transform="translate(47.857886, 75.865618)"><g><path d="M 13.109375 -9.40625 C 14.285156 -9.40625 15.207031 -9.050781 15.875 -8.34375 C 16.550781 -7.632812 16.890625 -6.664062 16.890625 -5.4375 L 16.890625 0 L 13.625 0 L 13.625 -5 C 13.625 -5.5 13.484375 -5.882812 13.203125 -6.15625 C 12.929688 -6.4375 12.5625 -6.578125 12.09375 -6.578125 C 11.613281 -6.578125 11.234375 -6.4375 10.953125 -6.15625 C 10.679688 -5.882812 10.546875 -5.5 10.546875 -5 L 10.546875 0 L 7.28125 0 L 7.28125 -5 C 7.28125 -5.5 7.144531 -5.882812 6.875 -6.15625 C 6.601562 -6.4375 6.226562 -6.578125 5.75 -6.578125 C 5.257812 -6.578125 4.875 -6.4375 4.59375 -6.15625 C 4.320312 -5.882812 4.1875 -5.5 4.1875 -5 L 4.1875 0 L 0.9375 0 L 0.9375 -9.328125 L 4.1875 -9.328125 L 4.1875 -8.09375 C 4.476562 -8.488281 4.851562 -8.804688 5.3125 -9.046875 C 5.769531 -9.285156 6.300781 -9.40625 6.90625 -9.40625 C 7.59375 -9.40625 8.203125 -9.253906 8.734375 -8.953125 C 9.273438 -8.660156 9.703125 -8.242188 10.015625 -7.703125 C 10.335938 -8.210938 10.769531 -8.625 11.3125 -8.9375 C 11.863281 -9.25 12.460938 -9.40625 13.109375 -9.40625 Z M 13.109375 -9.40625 "/></g></g></g><g fill="#000000" fill-opacity="1"><g transform="translate(65.590636, 75.865618)"><g><path d="M 2.578125 -10.1875 C 2.003906 -10.1875 1.539062 -10.34375 1.1875 -10.65625 C 0.84375 -10.976562 0.671875 -11.378906 0.671875 -11.859375 C 0.671875 -12.335938 0.84375 -12.738281 1.1875 -13.0625 C 1.539062 -13.382812 2.003906 -13.546875 2.578125 -13.546875 C 3.140625 -13.546875 3.59375 -13.382812 3.9375 -13.0625 C 4.289062 -12.738281 4.46875 -12.335938 4.46875 -11.859375 C 4.46875 -11.378906 4.289062 -10.976562 3.9375 -10.65625 C 3.59375 -10.34375 3.140625 -10.1875 2.578125 -10.1875 Z M 4.1875 -9.328125 L 4.1875 0 L 0.9375 0 L 0.9375 -9.328125 Z M 4.1875 -9.328125 "/></g></g></g><g fill="#000000" fill-opacity="1"><g transform="translate(70.709366, 75.865618)"><g><path d="M 4.90625 0.109375 C 4.0625 0.109375 3.304688 -0.03125 2.640625 -0.3125 C 1.984375 -0.59375 1.460938 -0.976562 1.078125 -1.46875 C 0.703125 -1.96875 0.492188 -2.523438 0.453125 -3.140625 L 3.609375 -3.140625 C 3.648438 -2.835938 3.785156 -2.601562 4.015625 -2.4375 C 4.253906 -2.269531 4.546875 -2.1875 4.890625 -2.1875 C 5.148438 -2.1875 5.359375 -2.242188 5.515625 -2.359375 C 5.671875 -2.472656 5.75 -2.617188 5.75 -2.796875 C 5.75 -3.023438 5.617188 -3.191406 5.359375 -3.296875 C 5.109375 -3.410156 4.691406 -3.535156 4.109375 -3.671875 C 3.441406 -3.804688 2.882812 -3.957031 2.4375 -4.125 C 2 -4.289062 1.613281 -4.5625 1.28125 -4.9375 C 0.957031 -5.3125 0.796875 -5.820312 0.796875 -6.46875 C 0.796875 -7.019531 0.945312 -7.519531 1.25 -7.96875 C 1.550781 -8.414062 1.988281 -8.769531 2.5625 -9.03125 C 3.144531 -9.300781 3.847656 -9.4375 4.671875 -9.4375 C 5.890625 -9.4375 6.847656 -9.132812 7.546875 -8.53125 C 8.242188 -7.9375 8.648438 -7.15625 8.765625 -6.1875 L 5.8125 -6.1875 C 5.757812 -6.488281 5.628906 -6.71875 5.421875 -6.875 C 5.222656 -7.03125 4.953125 -7.109375 4.609375 -7.109375 C 4.335938 -7.109375 4.132812 -7.054688 4 -6.953125 C 3.863281 -6.859375 3.796875 -6.722656 3.796875 -6.546875 C 3.796875 -6.328125 3.921875 -6.160156 4.171875 -6.046875 C 4.429688 -5.929688 4.84375 -5.8125 5.40625 -5.6875 C 6.082031 -5.539062 6.644531 -5.378906 7.09375 -5.203125 C 7.539062 -5.023438 7.929688 -4.738281 8.265625 -4.34375 C 8.609375 -3.945312 8.78125 -3.414062 8.78125 -2.75 C 8.78125 -2.195312 8.617188 -1.703125 8.296875 -1.265625 C 7.984375 -0.835938 7.535156 -0.5 6.953125 -0.25 C 6.367188 -0.0078125 5.6875 0.109375 4.90625 0.109375 Z M 4.90625 0.109375 "/></g></g></g><g fill="#000000" fill-opacity="1"><g transform="translate(80.149099, 75.865618)"><g><path d="M 4.90625 0.109375 C 4.0625 0.109375 3.304688 -0.03125 2.640625 -0.3125 C 1.984375 -0.59375 1.460938 -0.976562 1.078125 -1.46875 C 0.703125 -1.96875 0.492188 -2.523438 0.453125 -3.140625 L 3.609375 -3.140625 C 3.648438 -2.835938 3.785156 -2.601562 4.015625 -2.4375 C 4.253906 -2.269531 4.546875 -2.1875 4.890625 -2.1875 C 5.148438 -2.1875 5.359375 -2.242188 5.515625 -2.359375 C 5.671875 -2.472656 5.75 -2.617188 5.75 -2.796875 C 5.75 -3.023438 5.617188 -3.191406 5.359375 -3.296875 C 5.109375 -3.410156 4.691406 -3.535156 4.109375 -3.671875 C 3.441406 -3.804688 2.882812 -3.957031 2.4375 -4.125 C 2 -4.289062 1.613281 -4.5625 1.28125 -4.9375 C 0.957031 -5.3125 0.796875 -5.820312 0.796875 -6.46875 C 0.796875 -7.019531 0.945312 -7.519531 1.25 -7.96875 C 1.550781 -8.414062 1.988281 -8.769531 2.5625 -9.03125 C 3.144531 -9.300781 3.847656 -9.4375 4.671875 -9.4375 C 5.890625 -9.4375 6.847656 -9.132812 7.546875 -8.53125 C 8.242188 -7.9375 8.648438 -7.15625 8.765625 -6.1875 L 5.8125 -6.1875 C 5.757812 -6.488281 5.628906 -6.71875 5.421875 -6.875 C 5.222656 -7.03125 4.953125 -7.109375 4.609375 -7.109375 C 4.335938 -7.109375 4.132812 -7.054688 4 -6.953125 C 3.863281 -6.859375 3.796875 -6.722656 3.796875 -6.546875 C 3.796875 -6.328125 3.921875 -6.160156 4.171875 -6.046875 C 4.429688 -5.929688 4.84375 -5.8125 5.40625 -5.6875 C 6.082031 -5.539062 6.644531 -5.378906 7.09375 -5.203125 C 7.539062 -5.023438 7.929688 -4.738281 8.265625 -4.34375 C 8.609375 -3.945312 8.78125 -3.414062 8.78125 -2.75 C 8.78125 -2.195312 8.617188 -1.703125 8.296875 -1.265625 C 7.984375 -0.835938 7.535156 -0.5 6.953125 -0.25 C 6.367188 -0.0078125 5.6875 0.109375 4.90625 0.109375 Z M 4.90625 0.109375 "/></g></g></g><g fill="#000000" fill-opacity="1"><g transform="translate(89.588831, 75.865618)"><g><path d="M 5.265625 0.109375 C 4.335938 0.109375 3.503906 -0.0820312 2.765625 -0.46875 C 2.023438 -0.851562 1.445312 -1.40625 1.03125 -2.125 C 0.613281 -2.84375 0.40625 -3.691406 0.40625 -4.671875 C 0.40625 -5.640625 0.613281 -6.484375 1.03125 -7.203125 C 1.457031 -7.921875 2.039062 -8.472656 2.78125 -8.859375 C 3.519531 -9.242188 4.351562 -9.4375 5.28125 -9.4375 C 6.21875 -9.4375 7.050781 -9.242188 7.78125 -8.859375 C 8.519531 -8.472656 9.101562 -7.921875 9.53125 -7.203125 C 9.957031 -6.484375 10.171875 -5.640625 10.171875 -4.671875 C 10.171875 -3.703125 9.957031 -2.851562 9.53125 -2.125 C 9.101562 -1.40625 8.519531 -0.851562 7.78125 -0.46875 C 7.039062 -0.0820312 6.203125 0.109375 5.265625 0.109375 Z M 5.265625 -2.703125 C 5.722656 -2.703125 6.101562 -2.867188 6.40625 -3.203125 C 6.707031 -3.546875 6.859375 -4.035156 6.859375 -4.671875 C 6.859375 -5.304688 6.707031 -5.785156 6.40625 -6.109375 C 6.101562 -6.441406 5.726562 -6.609375 5.28125 -6.609375 C 4.84375 -6.609375 4.472656 -6.441406 4.171875 -6.109375 C 3.867188 -5.785156 3.71875 -5.304688 3.71875 -4.671875 C 3.71875 -4.023438 3.863281 -3.535156 4.15625 -3.203125 C 4.445312 -2.867188 4.816406 -2.703125 5.265625 -2.703125 Z M 5.265625 -2.703125 "/></g></g></g><g fill="#000000" fill-opacity="1"><g transform="translate(100.158684, 75.865618)"><g><path d="M 10.46875 -9.328125 L 10.46875 0 L 7.203125 0 L 7.203125 -1.328125 C 6.921875 -0.910156 6.535156 -0.570312 6.046875 -0.3125 C 5.554688 -0.0507812 5 0.078125 4.375 0.078125 C 3.289062 0.078125 2.429688 -0.273438 1.796875 -0.984375 C 1.171875 -1.703125 0.859375 -2.675781 0.859375 -3.90625 L 0.859375 -9.328125 L 4.109375 -9.328125 L 4.109375 -4.328125 C 4.109375 -3.796875 4.25 -3.375 4.53125 -3.0625 C 4.8125 -2.757812 5.1875 -2.609375 5.65625 -2.609375 C 6.132812 -2.609375 6.507812 -2.757812 6.78125 -3.0625 C 7.0625 -3.375 7.203125 -3.796875 7.203125 -4.328125 L 7.203125 -9.328125 Z M 10.46875 -9.328125 "/></g></g></g><g fill="#000000" fill-opacity="1"><g transform="translate(111.559501, 75.865618)"><g><path d="M 4.1875 -7.6875 C 4.550781 -8.21875 4.992188 -8.632812 5.515625 -8.9375 C 6.035156 -9.25 6.597656 -9.40625 7.203125 -9.40625 L 7.203125 -5.9375 L 6.28125 -5.9375 C 5.570312 -5.9375 5.046875 -5.796875 4.703125 -5.515625 C 4.359375 -5.242188 4.1875 -4.765625 4.1875 -4.078125 L 4.1875 0 L 0.9375 0 L 0.9375 -9.328125 L 4.1875 -9.328125 Z M 4.1875 -7.6875 "/></g></g></g><g fill="#000000" fill-opacity="1"><g transform="translate(118.988302, 75.865618)"><g><path d="M 2.578125 -10.1875 C 2.003906 -10.1875 1.539062 -10.34375 1.1875 -10.65625 C 0.84375 -10.976562 0.671875 -11.378906 0.671875 -11.859375 C 0.671875 -12.335938 0.84375 -12.738281 1.1875 -13.0625 C 1.539062 -13.382812 2.003906 -13.546875 2.578125 -13.546875 C 3.140625 -13.546875 3.59375 -13.382812 3.9375 -13.0625 C 4.289062 -12.738281 4.46875 -12.335938 4.46875 -11.859375 C 4.46875 -11.378906 4.289062 -10.976562 3.9375 -10.65625 C 3.59375 -10.34375 3.140625 -10.1875 2.578125 -10.1875 Z M 4.1875 -9.328125 L 4.1875 0 L 0.9375 0 L 0.9375 -9.328125 Z M 4.1875 -9.328125 "/></g></g></g></svg>