<svg xmlns="http://www.w3.org/2000/svg" xmlns:xlink="http://www.w3.org/1999/xlink" width="230" zoomAndPan="magnify" viewBox="0 0 172.5 112.499997" height="150" preserveAspectRatio="xMidYMid meet" version="1.0"><defs><g/><clipPath id="7397e5e445"><path d="M 0.132812 0 L 171.871094 0 L 171.871094 112.003906 L 0.132812 112.003906 Z M 0.132812 0 " clip-rule="nonzero"/></clipPath><clipPath id="b4f5a8be75"><path d="M 75.15625 22.429688 L 96.8125 22.429688 L 96.8125 55.96875 L 75.15625 55.96875 Z M 75.15625 22.429688 " clip-rule="nonzero"/></clipPath></defs><g clip-path="url(#7397e5e445)"><path fill="#ffffff" d="M 0.132812 0 L 171.871094 0 L 171.871094 112.003906 L 0.132812 112.003906 Z M 0.132812 0 " fill-opacity="1" fill-rule="nonzero"/><path fill="#f3f1ea" d="M 0.132812 0 L 171.871094 0 L 171.871094 112.003906 L 0.132812 112.003906 Z M 0.132812 0 " fill-opacity="1" fill-rule="nonzero"/></g><g fill="#000000" fill-opacity="1"><g transform="translate(52.8233, 75.86559)"><g><path d="M 7.03125 -9.40625 C 8.101562 -9.40625 8.957031 -9.046875 9.59375 -8.328125 C 10.226562 -7.617188 10.546875 -6.65625 10.546875 -5.4375 L 10.546875 0 L 7.28125 0 L 7.28125 -5 C 7.28125 -5.53125 7.140625 -5.945312 6.859375 -6.25 C 6.585938 -6.5625 6.21875 -6.71875 5.75 -6.71875 C 5.257812 -6.71875 4.875 -6.5625 4.59375 -6.25 C 4.320312 -5.945312 4.1875 -5.53125 4.1875 -5 L 4.1875 0 L 0.9375 0 L 0.9375 -9.328125 L 4.1875 -9.328125 L 4.1875 -8 C 4.476562 -8.414062 4.863281 -8.753906 5.34375 -9.015625 C 5.832031 -9.273438 6.394531 -9.40625 7.03125 -9.40625 Z M 7.03125 -9.40625 "/></g></g></g><g fill="#000000" fill-opacity="1"><g transform="translate(64.224117, 75.86559)"><g><path d="M 9.84375 -4.765625 C 9.84375 -4.515625 9.828125 -4.257812 9.796875 -4 L 3.625 -4 C 3.65625 -3.488281 3.796875 -3.109375 4.046875 -2.859375 C 4.296875 -2.617188 4.613281 -2.5 5 -2.5 C 5.539062 -2.5 5.929688 -2.738281 6.171875 -3.21875 L 9.640625 -3.21875 C 9.492188 -2.582031 9.210938 -2.007812 8.796875 -1.5 C 8.378906 -1 7.851562 -0.601562 7.21875 -0.3125 C 6.59375 -0.03125 5.898438 0.109375 5.140625 0.109375 C 4.210938 0.109375 3.390625 -0.0820312 2.671875 -0.46875 C 1.960938 -0.851562 1.40625 -1.40625 1 -2.125 C 0.601562 -2.84375 0.40625 -3.691406 0.40625 -4.671875 C 0.40625 -5.648438 0.601562 -6.492188 1 -7.203125 C 1.394531 -7.921875 1.945312 -8.472656 2.65625 -8.859375 C 3.375 -9.242188 4.203125 -9.4375 5.140625 -9.4375 C 6.054688 -9.4375 6.867188 -9.25 7.578125 -8.875 C 8.285156 -8.5 8.835938 -7.957031 9.234375 -7.25 C 9.640625 -6.550781 9.84375 -5.722656 9.84375 -4.765625 Z M 6.515625 -5.59375 C 6.515625 -5.988281 6.378906 -6.296875 6.109375 -6.515625 C 5.847656 -6.742188 5.519531 -6.859375 5.125 -6.859375 C 4.71875 -6.859375 4.382812 -6.75 4.125 -6.53125 C 3.875 -6.320312 3.710938 -6.007812 3.640625 -5.59375 Z M 6.515625 -5.59375 "/></g></g></g><g fill="#000000" fill-opacity="1"><g transform="translate(74.461578, 75.86559)"><g><path d="M 5.40625 -3.078125 L 7.15625 -9.328125 L 10.625 -9.328125 L 7.421875 0 L 3.359375 0 L 0.15625 -9.328125 L 3.625 -9.328125 Z M 5.40625 -3.078125 "/></g></g></g><g fill="#000000" fill-opacity="1"><g transform="translate(85.247473, 75.86559)"><g><path d="M 0.40625 -4.671875 C 0.40625 -5.640625 0.578125 -6.484375 0.921875 -7.203125 C 1.273438 -7.921875 1.753906 -8.472656 2.359375 -8.859375 C 2.960938 -9.242188 3.632812 -9.4375 4.375 -9.4375 C 5.019531 -9.4375 5.570312 -9.304688 6.03125 -9.046875 C 6.5 -8.796875 6.859375 -8.457031 7.109375 -8.03125 L 7.109375 -9.328125 L 10.375 -9.328125 L 10.375 0 L 7.109375 0 L 7.109375 -1.296875 C 6.859375 -0.859375 6.492188 -0.515625 6.015625 -0.265625 C 5.546875 -0.015625 5 0.109375 4.375 0.109375 C 3.632812 0.109375 2.960938 -0.0820312 2.359375 -0.46875 C 1.753906 -0.851562 1.273438 -1.40625 0.921875 -2.125 C 0.578125 -2.851562 0.40625 -3.703125 0.40625 -4.671875 Z M 7.109375 -4.671875 C 7.109375 -5.265625 6.945312 -5.734375 6.625 -6.078125 C 6.300781 -6.421875 5.898438 -6.59375 5.421875 -6.59375 C 4.929688 -6.59375 4.523438 -6.425781 4.203125 -6.09375 C 3.878906 -5.757812 3.71875 -5.285156 3.71875 -4.671875 C 3.71875 -4.078125 3.878906 -3.601562 4.203125 -3.25 C 4.523438 -2.894531 4.929688 -2.71875 5.421875 -2.71875 C 5.898438 -2.71875 6.300781 -2.890625 6.625 -3.234375 C 6.945312 -3.578125 7.109375 -4.054688 7.109375 -4.671875 Z M 7.109375 -4.671875 "/></g></g></g><g fill="#000000" fill-opacity="1"><g transform="translate(96.548566, 75.86559)"><g><path d="M 0.40625 -4.671875 C 0.40625 -5.640625 0.578125 -6.484375 0.921875 -7.203125 C 1.273438 -7.921875 1.753906 -8.472656 2.359375 -8.859375 C 2.972656 -9.242188 3.648438 -9.4375 4.390625 -9.4375 C 4.984375 -9.4375 5.515625 -9.3125 5.984375 -9.0625 C 6.460938 -8.8125 6.832031 -8.472656 7.09375 -8.046875 L 7.09375 -12.296875 L 10.375 -12.296875 L 10.375 0 L 7.09375 0 L 7.09375 -1.296875 C 6.84375 -0.859375 6.484375 -0.515625 6.015625 -0.265625 C 5.546875 -0.015625 5 0.109375 4.375 0.109375 C 3.632812 0.109375 2.960938 -0.0820312 2.359375 -0.46875 C 1.753906 -0.851562 1.273438 -1.40625 0.921875 -2.125 C 0.578125 -2.851562 0.40625 -3.703125 0.40625 -4.671875 Z M 7.109375 -4.671875 C 7.109375 -5.265625 6.945312 -5.734375 6.625 -6.078125 C 6.300781 -6.421875 5.898438 -6.59375 5.421875 -6.59375 C 4.929688 -6.59375 4.523438 -6.425781 4.203125 -6.09375 C 3.878906 -5.757812 3.71875 -5.285156 3.71875 -4.671875 C 3.71875 -4.078125 3.878906 -3.601562 4.203125 -3.25 C 4.523438 -2.894531 4.929688 -2.71875 5.421875 -2.71875 C 5.898438 -2.71875 6.300781 -2.890625 6.625 -3.234375 C 6.945312 -3.578125 7.109375 -4.054688 7.109375 -4.671875 Z M 7.109375 -4.671875 "/></g></g></g><g fill="#000000" fill-opacity="1"><g transform="translate(107.849659, 75.86559)"><g><path d="M 0.40625 -4.671875 C 0.40625 -5.640625 0.578125 -6.484375 0.921875 -7.203125 C 1.273438 -7.921875 1.753906 -8.472656 2.359375 -8.859375 C 2.960938 -9.242188 3.632812 -9.4375 4.375 -9.4375 C 5.019531 -9.4375 5.570312 -9.304688 6.03125 -9.046875 C 6.5 -8.796875 6.859375 -8.457031 7.109375 -8.03125 L 7.109375 -9.328125 L 10.375 -9.328125 L 10.375 0 L 7.109375 0 L 7.109375 -1.296875 C 6.859375 -0.859375 6.492188 -0.515625 6.015625 -0.265625 C 5.546875 -0.015625 5 0.109375 4.375 0.109375 C 3.632812 0.109375 2.960938 -0.0820312 2.359375 -0.46875 C 1.753906 -0.851562 1.273438 -1.40625 0.921875 -2.125 C 0.578125 -2.851562 0.40625 -3.703125 0.40625 -4.671875 Z M 7.109375 -4.671875 C 7.109375 -5.265625 6.945312 -5.734375 6.625 -6.078125 C 6.300781 -6.421875 5.898438 -6.59375 5.421875 -6.59375 C 4.929688 -6.59375 4.523438 -6.425781 4.203125 -6.09375 C 3.878906 -5.757812 3.71875 -5.285156 3.71875 -4.671875 C 3.71875 -4.078125 3.878906 -3.601562 4.203125 -3.25 C 4.523438 -2.894531 4.929688 -2.71875 5.421875 -2.71875 C 5.898438 -2.71875 6.300781 -2.890625 6.625 -3.234375 C 6.945312 -3.578125 7.109375 -4.054688 7.109375 -4.671875 Z M 7.109375 -4.671875 "/></g></g></g><g clip-path="url(#b4f5a8be75)"><path fill="#5e1ff0" d="M 96.273438 28.3125 C 96.054688 28.882812 96.101562 30.382812 96.011719 31.660156 C 95.925781 32.933594 94.25 40.464844 93.941406 41.921875 C 93.632812 43.375 92.792969 48.085938 92.792969 48.75 C 92.792969 49.414062 92.484375 52.054688 92.3125 52.625 C 92.136719 53.195312 91.742188 52.757812 91.386719 52.316406 C 91.03125 51.875 90.238281 52.183594 90.015625 52.625 C 89.796875 53.066406 90.0625 54.121094 89.84375 54.121094 C 89.621094 54.121094 89.359375 55.269531 89.359375 55.617188 C 89.359375 55.964844 88.964844 56.058594 88.789062 55.878906 C 88.617188 55.703125 88.308594 55.308594 88.085938 54.953125 C 87.863281 54.597656 87.691406 54.953125 87.601562 54.558594 C 87.515625 54.160156 86.457031 53.1875 85.988281 52.570312 C 85.515625 51.953125 85.09375 50.988281 84.035156 49.398438 C 82.976562 47.808594 81.875 45.300781 81.480469 44.992188 C 81.082031 44.683594 79.847656 42.660156 79.40625 41.425781 C 78.964844 40.191406 75.839844 36.535156 75.308594 36.050781 C 74.777344 35.570312 75.792969 33.457031 76.011719 30.8125 C 76.234375 28.171875 77.199219 27.292969 77.382812 26.367188 C 77.554688 25.441406 78 23.15625 78.394531 22.664062 C 78.789062 22.183594 79.320312 22.578125 79.847656 22.664062 C 80.378906 22.753906 81.390625 22.800781 81.960938 23.019531 C 82.53125 23.242188 83.640625 23.773438 84.382812 23.8125 C 85.128906 23.851562 87.335938 24.648438 87.691406 24.691406 C 88.046875 24.738281 89.582031 25.171875 90.863281 25.355469 C 92.136719 25.527344 96.8125 26.722656 96.8125 26.722656 C 96.9375 27.648438 96.496094 27.734375 96.273438 28.3125 " fill-opacity="1" fill-rule="nonzero"/></g></svg>