<svg xmlns="http://www.w3.org/2000/svg" xmlns:xlink="http://www.w3.org/1999/xlink" width="230" zoomAndPan="magnify" viewBox="0 0 172.5 112.499997" height="150" preserveAspectRatio="xMidYMid meet" version="1.0"><defs><g/><clipPath id="fae2f33f3d"><path d="M 0.132812 0 L 171.871094 0 L 171.871094 112.003906 L 0.132812 112.003906 Z M 0.132812 0 " clip-rule="nonzero"/></clipPath><clipPath id="79cd8773f8"><path d="M 57.464844 22.199219 L 106.746094 22.199219 L 106.746094 61 L 57.464844 61 Z M 57.464844 22.199219 " clip-rule="nonzero"/></clipPath></defs><g clip-path="url(#fae2f33f3d)"><path fill="#ffffff" d="M 0.132812 0 L 171.871094 0 L 171.871094 112.003906 L 0.132812 112.003906 Z M 0.132812 0 " fill-opacity="1" fill-rule="nonzero"/><path fill="#f3f1ea" d="M 0.132812 0 L 171.871094 0 L 171.871094 112.003906 L 0.132812 112.003906 Z M 0.132812 0 " fill-opacity="1" fill-rule="nonzero"/></g><g clip-path="url(#79cd8773f8)"><path fill="#5e1ff0" d="M 106.371094 56.492188 L 105.257812 56.738281 C 105.21875 56.75 105.171875 56.75 105.132812 56.742188 L 103.320312 56.421875 C 103.25 56.410156 103.175781 56.421875 103.113281 56.453125 L 101.355469 57.359375 C 101.308594 57.382812 101.257812 57.394531 101.207031 57.394531 L 96.773438 57.394531 C 96.644531 57.394531 96.527344 57.320312 96.472656 57.203125 L 95.984375 56.097656 C 95.914062 55.941406 95.976562 55.757812 96.128906 55.675781 L 96.667969 55.394531 C 96.777344 55.332031 96.847656 55.210938 96.839844 55.085938 L 96.679688 52.230469 C 96.675781 52.210938 96.675781 52.191406 96.679688 52.175781 L 97.082031 48.601562 C 97.085938 48.589844 97.085938 48.578125 97.085938 48.566406 L 97.085938 46.359375 C 97.085938 46.328125 97.089844 46.292969 97.101562 46.257812 L 98.46875 42.097656 C 98.480469 42.066406 98.484375 42.03125 98.484375 42 L 98.542969 35.363281 C 98.542969 35.273438 98.507812 35.1875 98.441406 35.125 L 97.558594 34.289062 C 97.480469 34.214844 97.445312 34.109375 97.460938 34.003906 L 97.777344 31.957031 C 97.78125 31.917969 97.78125 31.875 97.769531 31.835938 L 97.449219 30.445312 C 97.441406 30.402344 97.4375 30.355469 97.445312 30.3125 L 97.773438 28.511719 C 97.78125 28.472656 97.78125 28.433594 97.773438 28.398438 L 97.269531 25.476562 C 97.261719 25.4375 97.261719 25.402344 97.269531 25.363281 L 97.773438 22.597656 C 97.808594 22.394531 97.65625 22.210938 97.453125 22.210938 L 88.714844 22.210938 C 88.65625 22.210938 88.597656 22.226562 88.546875 22.257812 L 85.160156 24.289062 C 85.136719 24.304688 85.113281 24.320312 85.09375 24.34375 L 81.589844 28.015625 C 81.574219 28.035156 81.554688 28.050781 81.53125 28.066406 L 79.261719 29.523438 C 79.167969 29.585938 79.113281 29.6875 79.113281 29.800781 L 79.113281 30.53125 C 79.113281 30.621094 79.148438 30.707031 79.214844 30.769531 L 80.046875 31.554688 C 80.148438 31.652344 80.179688 31.808594 80.113281 31.9375 L 79.621094 32.921875 C 79.59375 32.976562 79.582031 33.039062 79.589844 33.097656 L 79.734375 34.683594 C 79.746094 34.828125 79.660156 34.964844 79.523438 35.019531 L 78.597656 35.371094 C 78.554688 35.390625 78.511719 35.414062 78.480469 35.449219 L 76.851562 37.132812 C 76.804688 37.179688 76.742188 37.214844 76.675781 37.226562 L 74.003906 37.726562 C 73.988281 37.730469 73.96875 37.730469 73.953125 37.730469 L 71.773438 37.789062 C 71.726562 37.789062 71.679688 37.78125 71.636719 37.761719 L 69.417969 36.820312 C 69.386719 36.804688 69.351562 36.796875 69.3125 36.792969 L 65.871094 36.570312 C 65.828125 36.566406 65.789062 36.570312 65.75 36.582031 L 62.839844 37.480469 C 62.796875 37.492188 62.757812 37.511719 62.722656 37.539062 L 61.867188 38.261719 C 61.777344 38.335938 61.738281 38.449219 61.753906 38.5625 L 61.945312 39.722656 C 61.953125 39.773438 61.976562 39.824219 62.007812 39.867188 L 62.921875 41.042969 C 63.007812 41.15625 63.011719 41.3125 62.929688 41.429688 L 62.015625 42.75 L 61.128906 43.972656 C 61.097656 44.011719 61.058594 44.046875 61.015625 44.070312 L 59.363281 44.949219 C 59.34375 44.960938 59.324219 44.972656 59.304688 44.988281 L 57.582031 46.445312 C 57.507812 46.507812 57.464844 46.597656 57.464844 46.695312 L 57.464844 48.375 C 57.464844 48.554688 57.613281 48.699219 57.792969 48.699219 L 84.957031 48.699219 C 85.0625 48.699219 85.160156 48.75 85.222656 48.835938 L 85.792969 49.625 C 85.847656 49.707031 85.9375 49.753906 86.035156 49.761719 L 86.542969 49.792969 C 86.699219 49.800781 86.828125 49.925781 86.847656 50.082031 L 87.039062 51.804688 C 87.042969 51.875 87.074219 51.9375 87.121094 51.988281 L 88.125 53.101562 C 88.148438 53.125 88.171875 53.144531 88.195312 53.160156 L 91.542969 55.234375 L 94.144531 56.699219 C 94.261719 56.765625 94.328125 56.902344 94.308594 57.035156 L 94.179688 57.851562 C 94.171875 57.894531 94.152344 57.941406 94.128906 57.980469 L 93.355469 59.136719 C 93.351562 59.144531 93.347656 59.148438 93.34375 59.15625 L 92.503906 60.246094 C 92.355469 60.4375 92.460938 60.71875 92.699219 60.765625 L 93.230469 60.871094 C 93.308594 60.886719 93.386719 60.875 93.457031 60.835938 L 94.394531 60.292969 C 94.4375 60.265625 94.484375 60.253906 94.535156 60.25 L 96.945312 60.085938 C 96.996094 60.082031 97.050781 60.0625 97.097656 60.035156 L 97.617188 59.703125 C 97.652344 59.683594 97.6875 59.667969 97.730469 59.660156 L 100.0625 59.203125 L 101.726562 58.859375 C 101.742188 58.855469 101.761719 58.851562 101.777344 58.84375 L 103.851562 58.035156 L 106.550781 57.121094 C 106.683594 57.074219 106.769531 56.949219 106.769531 56.8125 C 106.769531 56.601562 106.578125 56.445312 106.371094 56.492188 " fill-opacity="1" fill-rule="nonzero"/></g><g fill="#000000" fill-opacity="1"><g transform="translate(46.413442, 75.865618)"><g><path d="M 7.03125 -9.40625 C 8.101562 -9.40625 8.957031 -9.046875 9.59375 -8.328125 C 10.226562 -7.617188 10.546875 -6.65625 10.546875 -5.4375 L 10.546875 0 L 7.28125 0 L 7.28125 -5 C 7.28125 -5.53125 7.140625 -5.945312 6.859375 -6.25 C 6.585938 -6.5625 6.21875 -6.71875 5.75 -6.71875 C 5.257812 -6.71875 4.875 -6.5625 4.59375 -6.25 C 4.320312 -5.945312 4.1875 -5.53125 4.1875 -5 L 4.1875 0 L 0.9375 0 L 0.9375 -9.328125 L 4.1875 -9.328125 L 4.1875 -8 C 4.476562 -8.414062 4.863281 -8.753906 5.34375 -9.015625 C 5.832031 -9.273438 6.394531 -9.40625 7.03125 -9.40625 Z M 7.03125 -9.40625 "/></g></g></g><g fill="#000000" fill-opacity="1"><g transform="translate(57.814259, 75.865618)"><g><path d="M 9.84375 -4.765625 C 9.84375 -4.515625 9.828125 -4.257812 9.796875 -4 L 3.625 -4 C 3.65625 -3.488281 3.796875 -3.109375 4.046875 -2.859375 C 4.296875 -2.617188 4.613281 -2.5 5 -2.5 C 5.539062 -2.5 5.929688 -2.738281 6.171875 -3.21875 L 9.640625 -3.21875 C 9.492188 -2.582031 9.210938 -2.007812 8.796875 -1.5 C 8.378906 -1 7.851562 -0.601562 7.21875 -0.3125 C 6.59375 -0.03125 5.898438 0.109375 5.140625 0.109375 C 4.210938 0.109375 3.390625 -0.0820312 2.671875 -0.46875 C 1.960938 -0.851562 1.40625 -1.40625 1 -2.125 C 0.601562 -2.84375 0.40625 -3.691406 0.40625 -4.671875 C 0.40625 -5.648438 0.601562 -6.492188 1 -7.203125 C 1.394531 -7.921875 1.945312 -8.472656 2.65625 -8.859375 C 3.375 -9.242188 4.203125 -9.4375 5.140625 -9.4375 C 6.054688 -9.4375 6.867188 -9.25 7.578125 -8.875 C 8.285156 -8.5 8.835938 -7.957031 9.234375 -7.25 C 9.640625 -6.550781 9.84375 -5.722656 9.84375 -4.765625 Z M 6.515625 -5.59375 C 6.515625 -5.988281 6.378906 -6.296875 6.109375 -6.515625 C 5.847656 -6.742188 5.519531 -6.859375 5.125 -6.859375 C 4.71875 -6.859375 4.382812 -6.75 4.125 -6.53125 C 3.875 -6.320312 3.710938 -6.007812 3.640625 -5.59375 Z M 6.515625 -5.59375 "/></g></g></g><g fill="#000000" fill-opacity="1"><g transform="translate(68.051719, 75.865618)"><g><path d="M 14.71875 -9.328125 L 12.328125 0 L 8.671875 0 L 7.375 -5.65625 L 6.03125 0 L 2.390625 0 L 0.03125 -9.328125 L 3.28125 -9.328125 L 4.328125 -3.140625 L 5.703125 -9.328125 L 9.1875 -9.328125 L 10.625 -3.125 L 11.65625 -9.328125 Z M 14.71875 -9.328125 "/></g></g></g><g fill="#000000" fill-opacity="1"><g transform="translate(82.759768, 75.865618)"><g/></g></g><g fill="#000000" fill-opacity="1"><g transform="translate(85.934039, 75.865618)"><g><path d="M 10.96875 -9.328125 L 5.046875 4.4375 L 1.515625 4.4375 L 3.734375 -0.40625 L -0.078125 -9.328125 L 3.546875 -9.328125 L 5.5 -4.046875 L 7.390625 -9.328125 Z M 10.96875 -9.328125 "/></g></g></g><g fill="#000000" fill-opacity="1"><g transform="translate(96.819658, 75.865618)"><g><path d="M 5.265625 0.109375 C 4.335938 0.109375 3.503906 -0.0820312 2.765625 -0.46875 C 2.023438 -0.851562 1.445312 -1.40625 1.03125 -2.125 C 0.613281 -2.84375 0.40625 -3.691406 0.40625 -4.671875 C 0.40625 -5.640625 0.613281 -6.484375 1.03125 -7.203125 C 1.457031 -7.921875 2.039062 -8.472656 2.78125 -8.859375 C 3.519531 -9.242188 4.351562 -9.4375 5.28125 -9.4375 C 6.21875 -9.4375 7.050781 -9.242188 7.78125 -8.859375 C 8.519531 -8.472656 9.101562 -7.921875 9.53125 -7.203125 C 9.957031 -6.484375 10.171875 -5.640625 10.171875 -4.671875 C 10.171875 -3.703125 9.957031 -2.851562 9.53125 -2.125 C 9.101562 -1.40625 8.519531 -0.851562 7.78125 -0.46875 C 7.039062 -0.0820312 6.203125 0.109375 5.265625 0.109375 Z M 5.265625 -2.703125 C 5.722656 -2.703125 6.101562 -2.867188 6.40625 -3.203125 C 6.707031 -3.546875 6.859375 -4.035156 6.859375 -4.671875 C 6.859375 -5.304688 6.707031 -5.785156 6.40625 -6.109375 C 6.101562 -6.441406 5.726562 -6.609375 5.28125 -6.609375 C 4.84375 -6.609375 4.472656 -6.441406 4.171875 -6.109375 C 3.867188 -5.785156 3.71875 -5.304688 3.71875 -4.671875 C 3.71875 -4.023438 3.863281 -3.535156 4.15625 -3.203125 C 4.445312 -2.867188 4.816406 -2.703125 5.265625 -2.703125 Z M 5.265625 -2.703125 "/></g></g></g><g fill="#000000" fill-opacity="1"><g transform="translate(107.389511, 75.865618)"><g><path d="M 4.1875 -7.6875 C 4.550781 -8.21875 4.992188 -8.632812 5.515625 -8.9375 C 6.035156 -9.25 6.597656 -9.40625 7.203125 -9.40625 L 7.203125 -5.9375 L 6.28125 -5.9375 C 5.570312 -5.9375 5.046875 -5.796875 4.703125 -5.515625 C 4.359375 -5.242188 4.1875 -4.765625 4.1875 -4.078125 L 4.1875 0 L 0.9375 0 L 0.9375 -9.328125 L 4.1875 -9.328125 Z M 4.1875 -7.6875 "/></g></g></g><g fill="#000000" fill-opacity="1"><g transform="translate(114.818313, 75.865618)"><g><path d="M 6.765625 0 L 4.1875 -3.828125 L 4.1875 0 L 0.9375 0 L 0.9375 -12.296875 L 4.1875 -12.296875 L 4.1875 -5.671875 L 6.765625 -9.328125 L 10.671875 -9.328125 L 7 -4.640625 L 10.734375 0 Z M 6.765625 0 "/></g></g></g></svg>