<svg xmlns="http://www.w3.org/2000/svg" xmlns:xlink="http://www.w3.org/1999/xlink" width="230" zoomAndPan="magnify" viewBox="0 0 172.5 112.499997" height="150" preserveAspectRatio="xMidYMid meet" version="1.0"><defs><g/><clipPath id="12520f19ff"><path d="M 0.132812 0 L 171.871094 0 L 171.871094 112.003906 L 0.132812 112.003906 Z M 0.132812 0 " clip-rule="nonzero"/></clipPath><clipPath id="bd9ce514fe"><path d="M 78.019531 24.113281 L 93.703125 24.113281 L 93.703125 60.703125 L 78.019531 60.703125 Z M 78.019531 24.113281 " clip-rule="nonzero"/></clipPath></defs><g clip-path="url(#12520f19ff)"><path fill="#ffffff" d="M 0.132812 0 L 171.871094 0 L 171.871094 112.003906 L 0.132812 112.003906 Z M 0.132812 0 " fill-opacity="1" fill-rule="nonzero"/><path fill="#f3f1ea" d="M 0.132812 0 L 171.871094 0 L 171.871094 112.003906 L 0.132812 112.003906 Z M 0.132812 0 " fill-opacity="1" fill-rule="nonzero"/></g><g fill="#000000" fill-opacity="1"><g transform="translate(39.564504, 75.86559)"><g><path d="M 7.03125 -9.40625 C 8.101562 -9.40625 8.957031 -9.046875 9.59375 -8.328125 C 10.226562 -7.617188 10.546875 -6.65625 10.546875 -5.4375 L 10.546875 0 L 7.28125 0 L 7.28125 -5 C 7.28125 -5.53125 7.140625 -5.945312 6.859375 -6.25 C 6.585938 -6.5625 6.21875 -6.71875 5.75 -6.71875 C 5.257812 -6.71875 4.875 -6.5625 4.59375 -6.25 C 4.320312 -5.945312 4.1875 -5.53125 4.1875 -5 L 4.1875 0 L 0.9375 0 L 0.9375 -9.328125 L 4.1875 -9.328125 L 4.1875 -8 C 4.476562 -8.414062 4.863281 -8.753906 5.34375 -9.015625 C 5.832031 -9.273438 6.394531 -9.40625 7.03125 -9.40625 Z M 7.03125 -9.40625 "/></g></g></g><g fill="#000000" fill-opacity="1"><g transform="translate(50.965321, 75.86559)"><g><path d="M 9.84375 -4.765625 C 9.84375 -4.515625 9.828125 -4.257812 9.796875 -4 L 3.625 -4 C 3.65625 -3.488281 3.796875 -3.109375 4.046875 -2.859375 C 4.296875 -2.617188 4.613281 -2.5 5 -2.5 C 5.539062 -2.5 5.929688 -2.738281 6.171875 -3.21875 L 9.640625 -3.21875 C 9.492188 -2.582031 9.210938 -2.007812 8.796875 -1.5 C 8.378906 -1 7.851562 -0.601562 7.21875 -0.3125 C 6.59375 -0.03125 5.898438 0.109375 5.140625 0.109375 C 4.210938 0.109375 3.390625 -0.0820312 2.671875 -0.46875 C 1.960938 -0.851562 1.40625 -1.40625 1 -2.125 C 0.601562 -2.84375 0.40625 -3.691406 0.40625 -4.671875 C 0.40625 -5.648438 0.601562 -6.492188 1 -7.203125 C 1.394531 -7.921875 1.945312 -8.472656 2.65625 -8.859375 C 3.375 -9.242188 4.203125 -9.4375 5.140625 -9.4375 C 6.054688 -9.4375 6.867188 -9.25 7.578125 -8.875 C 8.285156 -8.5 8.835938 -7.957031 9.234375 -7.25 C 9.640625 -6.550781 9.84375 -5.722656 9.84375 -4.765625 Z M 6.515625 -5.59375 C 6.515625 -5.988281 6.378906 -6.296875 6.109375 -6.515625 C 5.847656 -6.742188 5.519531 -6.859375 5.125 -6.859375 C 4.71875 -6.859375 4.382812 -6.75 4.125 -6.53125 C 3.875 -6.320312 3.710938 -6.007812 3.640625 -5.59375 Z M 6.515625 -5.59375 "/></g></g></g><g fill="#000000" fill-opacity="1"><g transform="translate(61.202781, 75.86559)"><g><path d="M 14.71875 -9.328125 L 12.328125 0 L 8.671875 0 L 7.375 -5.65625 L 6.03125 0 L 2.390625 0 L 0.03125 -9.328125 L 3.28125 -9.328125 L 4.328125 -3.140625 L 5.703125 -9.328125 L 9.1875 -9.328125 L 10.625 -3.125 L 11.65625 -9.328125 Z M 14.71875 -9.328125 "/></g></g></g><g fill="#000000" fill-opacity="1"><g transform="translate(75.91083, 75.86559)"><g/></g></g><g fill="#000000" fill-opacity="1"><g transform="translate(79.085102, 75.86559)"><g><path d="M 2.5625 -10.1875 C 1.988281 -10.1875 1.523438 -10.34375 1.171875 -10.65625 C 0.816406 -10.976562 0.640625 -11.378906 0.640625 -11.859375 C 0.640625 -12.335938 0.816406 -12.738281 1.171875 -13.0625 C 1.523438 -13.382812 1.988281 -13.546875 2.5625 -13.546875 C 3.125 -13.546875 3.578125 -13.382812 3.921875 -13.0625 C 4.273438 -12.738281 4.453125 -12.335938 4.453125 -11.859375 C 4.453125 -11.378906 4.273438 -10.976562 3.921875 -10.65625 C 3.578125 -10.34375 3.125 -10.1875 2.5625 -10.1875 Z M 4.1875 0.921875 C 4.1875 3.273438 3 4.453125 0.625 4.453125 L -0.546875 4.453125 L -0.546875 1.671875 L 0.15625 1.671875 C 0.425781 1.671875 0.625 1.613281 0.75 1.5 C 0.875 1.394531 0.9375 1.21875 0.9375 0.96875 L 0.9375 -9.328125 L 4.1875 -9.328125 Z M 4.1875 0.921875 "/></g></g></g><g fill="#000000" fill-opacity="1"><g transform="translate(84.187206, 75.86559)"><g><path d="M 9.84375 -4.765625 C 9.84375 -4.515625 9.828125 -4.257812 9.796875 -4 L 3.625 -4 C 3.65625 -3.488281 3.796875 -3.109375 4.046875 -2.859375 C 4.296875 -2.617188 4.613281 -2.5 5 -2.5 C 5.539062 -2.5 5.929688 -2.738281 6.171875 -3.21875 L 9.640625 -3.21875 C 9.492188 -2.582031 9.210938 -2.007812 8.796875 -1.5 C 8.378906 -1 7.851562 -0.601562 7.21875 -0.3125 C 6.59375 -0.03125 5.898438 0.109375 5.140625 0.109375 C 4.210938 0.109375 3.390625 -0.0820312 2.671875 -0.46875 C 1.960938 -0.851562 1.40625 -1.40625 1 -2.125 C 0.601562 -2.84375 0.40625 -3.691406 0.40625 -4.671875 C 0.40625 -5.648438 0.601562 -6.492188 1 -7.203125 C 1.394531 -7.921875 1.945312 -8.472656 2.65625 -8.859375 C 3.375 -9.242188 4.203125 -9.4375 5.140625 -9.4375 C 6.054688 -9.4375 6.867188 -9.25 7.578125 -8.875 C 8.285156 -8.5 8.835938 -7.957031 9.234375 -7.25 C 9.640625 -6.550781 9.84375 -5.722656 9.84375 -4.765625 Z M 6.515625 -5.59375 C 6.515625 -5.988281 6.378906 -6.296875 6.109375 -6.515625 C 5.847656 -6.742188 5.519531 -6.859375 5.125 -6.859375 C 4.71875 -6.859375 4.382812 -6.75 4.125 -6.53125 C 3.875 -6.320312 3.710938 -6.007812 3.640625 -5.59375 Z M 6.515625 -5.59375 "/></g></g></g><g fill="#000000" fill-opacity="1"><g transform="translate(94.424667, 75.86559)"><g><path d="M 4.1875 -7.6875 C 4.550781 -8.21875 4.992188 -8.632812 5.515625 -8.9375 C 6.035156 -9.25 6.597656 -9.40625 7.203125 -9.40625 L 7.203125 -5.9375 L 6.28125 -5.9375 C 5.570312 -5.9375 5.046875 -5.796875 4.703125 -5.515625 C 4.359375 -5.242188 4.1875 -4.765625 4.1875 -4.078125 L 4.1875 0 L 0.9375 0 L 0.9375 -9.328125 L 4.1875 -9.328125 Z M 4.1875 -7.6875 "/></g></g></g><g fill="#000000" fill-opacity="1"><g transform="translate(101.853468, 75.86559)"><g><path d="M 4.90625 0.109375 C 4.0625 0.109375 3.304688 -0.03125 2.640625 -0.3125 C 1.984375 -0.59375 1.460938 -0.976562 1.078125 -1.46875 C 0.703125 -1.96875 0.492188 -2.523438 0.453125 -3.140625 L 3.609375 -3.140625 C 3.648438 -2.835938 3.785156 -2.601562 4.015625 -2.4375 C 4.253906 -2.269531 4.546875 -2.1875 4.890625 -2.1875 C 5.148438 -2.1875 5.359375 -2.242188 5.515625 -2.359375 C 5.671875 -2.472656 5.75 -2.617188 5.75 -2.796875 C 5.75 -3.023438 5.617188 -3.191406 5.359375 -3.296875 C 5.109375 -3.410156 4.691406 -3.535156 4.109375 -3.671875 C 3.441406 -3.804688 2.882812 -3.957031 2.4375 -4.125 C 2 -4.289062 1.613281 -4.5625 1.28125 -4.9375 C 0.957031 -5.3125 0.796875 -5.820312 0.796875 -6.46875 C 0.796875 -7.019531 0.945312 -7.519531 1.25 -7.96875 C 1.550781 -8.414062 1.988281 -8.769531 2.5625 -9.03125 C 3.144531 -9.300781 3.847656 -9.4375 4.671875 -9.4375 C 5.890625 -9.4375 6.847656 -9.132812 7.546875 -8.53125 C 8.242188 -7.9375 8.648438 -7.15625 8.765625 -6.1875 L 5.8125 -6.1875 C 5.757812 -6.488281 5.628906 -6.71875 5.421875 -6.875 C 5.222656 -7.03125 4.953125 -7.109375 4.609375 -7.109375 C 4.335938 -7.109375 4.132812 -7.054688 4 -6.953125 C 3.863281 -6.859375 3.796875 -6.722656 3.796875 -6.546875 C 3.796875 -6.328125 3.921875 -6.160156 4.171875 -6.046875 C 4.429688 -5.929688 4.84375 -5.8125 5.40625 -5.6875 C 6.082031 -5.539062 6.644531 -5.378906 7.09375 -5.203125 C 7.539062 -5.023438 7.929688 -4.738281 8.265625 -4.34375 C 8.609375 -3.945312 8.78125 -3.414062 8.78125 -2.75 C 8.78125 -2.195312 8.617188 -1.703125 8.296875 -1.265625 C 7.984375 -0.835938 7.535156 -0.5 6.953125 -0.25 C 6.367188 -0.0078125 5.6875 0.109375 4.90625 0.109375 Z M 4.90625 0.109375 "/></g></g></g><g fill="#000000" fill-opacity="1"><g transform="translate(111.2932, 75.86559)"><g><path d="M 9.84375 -4.765625 C 9.84375 -4.515625 9.828125 -4.257812 9.796875 -4 L 3.625 -4 C 3.65625 -3.488281 3.796875 -3.109375 4.046875 -2.859375 C 4.296875 -2.617188 4.613281 -2.5 5 -2.5 C 5.539062 -2.5 5.929688 -2.738281 6.171875 -3.21875 L 9.640625 -3.21875 C 9.492188 -2.582031 9.210938 -2.007812 8.796875 -1.5 C 8.378906 -1 7.851562 -0.601562 7.21875 -0.3125 C 6.59375 -0.03125 5.898438 0.109375 5.140625 0.109375 C 4.210938 0.109375 3.390625 -0.0820312 2.671875 -0.46875 C 1.960938 -0.851562 1.40625 -1.40625 1 -2.125 C 0.601562 -2.84375 0.40625 -3.691406 0.40625 -4.671875 C 0.40625 -5.648438 0.601562 -6.492188 1 -7.203125 C 1.394531 -7.921875 1.945312 -8.472656 2.65625 -8.859375 C 3.375 -9.242188 4.203125 -9.4375 5.140625 -9.4375 C 6.054688 -9.4375 6.867188 -9.25 7.578125 -8.875 C 8.285156 -8.5 8.835938 -7.957031 9.234375 -7.25 C 9.640625 -6.550781 9.84375 -5.722656 9.84375 -4.765625 Z M 6.515625 -5.59375 C 6.515625 -5.988281 6.378906 -6.296875 6.109375 -6.515625 C 5.847656 -6.742188 5.519531 -6.859375 5.125 -6.859375 C 4.71875 -6.859375 4.382812 -6.75 4.125 -6.53125 C 3.875 -6.320312 3.710938 -6.007812 3.640625 -5.59375 Z M 6.515625 -5.59375 "/></g></g></g><g fill="#000000" fill-opacity="1"><g transform="translate(121.530661, 75.86559)"><g><path d="M 10.96875 -9.328125 L 5.046875 4.4375 L 1.515625 4.4375 L 3.734375 -0.40625 L -0.078125 -9.328125 L 3.546875 -9.328125 L 5.5 -4.046875 L 7.390625 -9.328125 Z M 10.96875 -9.328125 "/></g></g></g><g clip-path="url(#bd9ce514fe)"><path fill="#5e1ff0" d="M 90.546875 27.375 L 91.769531 27.785156 L 91.828125 28.074219 L 91.886719 28.714844 L 91.710938 29.824219 L 91.421875 30.699219 L 91.421875 31.105469 L 91.363281 31.398438 L 91.421875 31.574219 L 91.421875 31.980469 L 91.1875 32.273438 L 91.011719 32.566406 L 90.835938 32.855469 L 90.777344 32.972656 L 90.660156 33.03125 L 90.488281 33.089844 L 90.546875 32.449219 L 90.488281 32.273438 L 90.253906 32.507812 L 90.195312 32.625 L 90.195312 32.914062 L 90.078125 33.148438 L 89.902344 33.324219 L 89.84375 33.441406 L 89.785156 33.730469 L 89.785156 34.3125 L 89.726562 34.605469 L 89.667969 34.722656 L 89.492188 34.953125 L 89.4375 35.070312 L 89.496094 35.128906 L 89.554688 35.597656 L 89.671875 35.65625 L 89.554688 35.949219 L 89.613281 36.238281 L 89.730469 36.414062 L 90.136719 36.414062 L 90.371094 36.53125 L 90.488281 36.53125 L 91.011719 36.296875 L 91.304688 36.296875 L 92.351562 36.414062 L 92.878906 36.589844 L 93.050781 36.472656 L 92.878906 36.296875 L 92.644531 36.007812 L 92.527344 35.714844 L 92.644531 35.597656 L 92.878906 35.773438 L 93.050781 36.121094 L 93.636719 38.046875 L 93.636719 38.398438 L 93.519531 38.746094 L 93.460938 39.097656 L 93.578125 39.503906 L 93.460938 40.785156 L 93.34375 41.195312 L 93.578125 41.3125 L 93.753906 41.546875 L 93.808594 41.894531 L 93.753906 42.476562 L 93.808594 43.179688 L 93.808594 43.410156 L 93.871094 43.46875 L 93.871094 43.992188 L 94.042969 45.566406 L 93.925781 45.917969 L 93.578125 43.46875 L 93.636719 42.945312 L 93.695312 42.652344 L 93.636719 42.363281 L 93.519531 42.011719 L 93.402344 41.777344 L 93.285156 41.660156 L 93.113281 41.894531 L 93.113281 42.011719 L 93.34375 41.953125 L 93.402344 42.070312 L 93.34375 42.304688 L 93.226562 42.476562 L 93.113281 42.59375 L 92.9375 42.652344 L 92.820312 42.769531 L 92.820312 43.003906 L 92.996094 42.886719 L 93.113281 43.117188 L 93.054688 43.46875 L 92.878906 43.699219 L 93.289062 43.761719 L 93.402344 43.820312 L 93.230469 44.109375 L 93.171875 44.34375 L 93.171875 44.578125 L 93.230469 44.867188 L 93.230469 44.925781 L 93.113281 45.277344 L 93.054688 45.566406 L 92.996094 46.09375 L 92.996094 46.558594 L 93.230469 46.675781 L 93.40625 46.734375 L 93.40625 46.96875 L 93.289062 47.199219 L 93.230469 47.316406 L 93.167969 47.78125 L 93.050781 48.015625 L 92.820312 48.191406 L 92.761719 48.367188 L 92.703125 48.539062 L 92.46875 48.890625 L 92.351562 48.949219 L 92.234375 49.125 L 92.175781 49.355469 L 92.121094 49.589844 L 92.292969 49.882812 L 92.527344 50.113281 L 92.527344 50.347656 L 92.351562 50.40625 L 92.175781 50.054688 L 91.652344 49.882812 L 91.535156 49.996094 L 91.363281 50.054688 L 91.246094 49.996094 L 91.128906 49.882812 L 91.246094 50.464844 L 91.363281 50.695312 L 91.535156 50.753906 L 91.652344 50.871094 L 91.652344 51.105469 L 91.59375 51.453125 L 91.417969 51.453125 L 91.300781 51.394531 L 91.183594 51.453125 L 91.011719 51.628906 L 90.953125 51.746094 L 90.953125 51.921875 L 90.894531 52.152344 L 90.953125 52.328125 L 91.128906 52.210938 L 91.363281 52.328125 L 91.535156 52.5625 L 91.710938 52.851562 L 91.417969 53.027344 L 90.835938 53.609375 L 90.546875 53.785156 L 90.546875 53.730469 L 90.601562 53.496094 L 90.660156 53.265625 L 90.894531 52.914062 L 90.546875 52.738281 L 90.3125 53.320312 L 90.195312 53.613281 L 90.3125 53.789062 L 90.3125 53.847656 L 89.613281 54.023438 L 89.320312 54.136719 L 89.144531 54.429688 L 89.554688 54.429688 L 89.671875 54.488281 L 89.847656 54.488281 L 90.429688 54.136719 L 90.429688 54.253906 L 90.136719 54.546875 L 89.847656 55.304688 L 89.613281 55.480469 L 89.554688 55.714844 L 89.261719 56.9375 L 89.089844 56.878906 L 88.972656 56.878906 L 88.914062 56.996094 L 88.796875 57.167969 L 88.855469 57.109375 L 88.855469 57.167969 L 88.914062 57.167969 L 88.914062 57.226562 L 89.03125 57.109375 L 89.148438 57.109375 L 89.207031 57.167969 L 89.265625 57.34375 L 89.03125 57.8125 L 88.972656 58.101562 L 88.796875 58.277344 L 88.5625 58.394531 L 88.5625 58.507812 L 88.679688 58.742188 L 88.5625 59.210938 L 88.269531 59.617188 L 87.863281 60.027344 L 87.28125 60.433594 L 87.164062 60.492188 L 87.046875 60.492188 L 86.871094 60.378906 L 86.871094 60.261719 L 86.929688 60.144531 L 86.929688 59.914062 L 86.8125 59.328125 L 86.871094 59.039062 L 87.164062 57.695312 L 87.105469 57.113281 L 86.753906 56.648438 L 86.578125 56.589844 L 86.347656 56.589844 L 85.9375 56.648438 L 85.820312 56.707031 L 85.648438 56.761719 L 85.53125 56.820312 L 85.414062 56.820312 L 85.414062 56.648438 L 85.296875 56.53125 L 85.121094 56.472656 L 84.949219 56.589844 L 84.597656 56.707031 L 84.421875 56.882812 L 84.363281 56.996094 L 84.246094 57.113281 L 84.070312 57.171875 L 84.070312 57.113281 L 83.839844 57.054688 L 83.722656 56.9375 L 83.722656 56.589844 L 83.546875 56.414062 L 83.082031 56.179688 L 82.90625 56.179688 L 82.789062 56.121094 L 82.613281 55.886719 L 82.554688 55.828125 L 82.089844 55.886719 L 81.914062 55.886719 L 81.738281 55.652344 L 81.621094 55.476562 L 81.449219 55.359375 L 81.332031 55.359375 L 81.214844 55.476562 L 81.15625 55.476562 L 81.039062 55.417969 L 80.980469 55.359375 L 80.921875 55.304688 L 79.523438 54.3125 L 79.117188 54.136719 L 78.765625 53.90625 L 78.59375 53.4375 L 78.652344 53.496094 L 78.707031 53.554688 L 78.824219 53.613281 L 78.765625 53.320312 L 78.765625 52.621094 L 78.710938 52.449219 L 78.242188 52.097656 L 78.070312 51.980469 L 78.070312 51.863281 L 78.242188 51.574219 L 78.417969 51.398438 L 78.476562 51.28125 L 78.476562 50.757812 L 78.59375 50.582031 L 78.59375 50.464844 L 78.652344 50.347656 L 78.769531 50.289062 L 78.769531 50.175781 L 78.710938 49.765625 L 78.886719 49.296875 L 79.175781 48.832031 L 79.527344 48.425781 L 80.113281 48.015625 L 80.519531 47.78125 L 80.808594 47.722656 L 80.988281 47.664062 L 81.335938 47.375 L 81.570312 47.257812 L 81.570312 47.199219 L 81.628906 47.199219 L 81.628906 47.140625 L 81.859375 47.140625 L 81.976562 46.964844 L 82.09375 46.734375 L 82.269531 46.558594 L 82.035156 46.382812 L 81.917969 46.148438 L 81.917969 45.972656 L 82.09375 45.972656 L 82.210938 45.738281 L 82.328125 45.855469 L 82.617188 45.039062 L 82.734375 44.808594 L 83.085938 44.515625 L 83.199219 44.398438 L 83.550781 43.816406 L 83.667969 43.640625 L 84.074219 43.40625 L 84.191406 43.351562 L 84.480469 42.882812 L 84.539062 42.824219 L 84.832031 42.707031 L 85.179688 42.53125 L 85.472656 42.242188 L 85.53125 41.894531 L 85.355469 41.601562 L 85.007812 41.367188 L 84.25 41.015625 L 83.84375 40.667969 L 83.316406 40.203125 L 83.140625 40.027344 L 82.441406 39.621094 L 82.148438 39.097656 L 81.976562 38.863281 L 81.566406 39.152344 L 81.277344 39.039062 L 81.042969 38.746094 L 80.867188 38.511719 L 80.519531 37.40625 L 80.226562 37.054688 L 79.644531 36.996094 L 79.351562 37.171875 L 79.175781 37.113281 L 79.003906 36.765625 L 78.945312 36.589844 L 78.882812 36.472656 L 78.882812 36.296875 L 78.765625 35.832031 L 78.710938 35.714844 L 78.710938 35.597656 L 78.59375 35.246094 L 78.59375 35.070312 L 78.652344 34.605469 L 78.59375 34.605469 L 78.476562 34.371094 L 78.535156 34.316406 L 78.59375 34.257812 L 78.652344 34.140625 L 78.710938 33.847656 L 78.945312 33.90625 L 79.117188 33.847656 L 79.292969 33.671875 L 79.292969 33.03125 L 79.410156 32.855469 L 79.523438 32.683594 L 79.582031 32.449219 L 79.464844 32.15625 L 79.234375 31.925781 L 79.058594 31.808594 L 78.941406 31.691406 L 78.882812 31.574219 L 78.652344 31.574219 L 78.652344 31.457031 L 78.59375 31.398438 L 78.476562 31.226562 L 78.300781 31.050781 L 78.359375 30.757812 L 78.59375 30.46875 L 78.765625 30.234375 L 78.941406 30.175781 L 79.175781 30 L 79.351562 29.824219 L 79.640625 29.125 L 79.699219 29.125 L 79.699219 29.066406 L 79.640625 28.894531 L 79.699219 28.835938 L 79.757812 28.71875 L 80.050781 28.425781 L 80.457031 27.492188 L 80.574219 26.792969 L 80.574219 26.09375 L 81.039062 25.394531 L 81.039062 25.335938 L 81.097656 25.160156 L 81.097656 25.101562 L 81.15625 25.042969 L 81.273438 25.042969 L 81.390625 24.867188 L 81.507812 24.8125 L 81.742188 24.695312 L 81.917969 24.519531 L 83.140625 24.929688 L 84.367188 25.335938 L 85.589844 25.746094 L 86.816406 26.152344 L 88.097656 26.5625 L 89.324219 26.96875 Z M 90.546875 27.375 " fill-opacity="1" fill-rule="nonzero"/></g></svg>