<svg xmlns="http://www.w3.org/2000/svg" xmlns:xlink="http://www.w3.org/1999/xlink" width="230" zoomAndPan="magnify" viewBox="0 0 172.5 112.499997" height="150" preserveAspectRatio="xMidYMid meet" version="1.0"><defs><g/><clipPath id="fdf84aa88c"><path d="M 0.132812 0 L 171.871094 0 L 171.871094 112.003906 L 0.132812 112.003906 Z M 0.132812 0 " clip-rule="nonzero"/></clipPath><clipPath id="83e2182b7f"><path d="M 71.21875 22.402344 L 101 22.402344 L 101 56 L 71.21875 56 Z M 71.21875 22.402344 " clip-rule="nonzero"/></clipPath></defs><g clip-path="url(#fdf84aa88c)"><path fill="#ffffff" d="M 0.132812 0 L 171.871094 0 L 171.871094 112.003906 L 0.132812 112.003906 Z M 0.132812 0 " fill-opacity="1" fill-rule="nonzero"/><path fill="#f3f1ea" d="M 0.132812 0 L 171.871094 0 L 171.871094 112.003906 L 0.132812 112.003906 Z M 0.132812 0 " fill-opacity="1" fill-rule="nonzero"/></g><g fill="#000000" fill-opacity="1"><g transform="translate(67.154135, 75.86559)"><g><path d="M 5.265625 0.109375 C 4.335938 0.109375 3.503906 -0.0820312 2.765625 -0.46875 C 2.023438 -0.851562 1.445312 -1.40625 1.03125 -2.125 C 0.613281 -2.84375 0.40625 -3.691406 0.40625 -4.671875 C 0.40625 -5.640625 0.613281 -6.484375 1.03125 -7.203125 C 1.457031 -7.921875 2.039062 -8.472656 2.78125 -8.859375 C 3.519531 -9.242188 4.351562 -9.4375 5.28125 -9.4375 C 6.21875 -9.4375 7.050781 -9.242188 7.78125 -8.859375 C 8.519531 -8.472656 9.101562 -7.921875 9.53125 -7.203125 C 9.957031 -6.484375 10.171875 -5.640625 10.171875 -4.671875 C 10.171875 -3.703125 9.957031 -2.851562 9.53125 -2.125 C 9.101562 -1.40625 8.519531 -0.851562 7.78125 -0.46875 C 7.039062 -0.0820312 6.203125 0.109375 5.265625 0.109375 Z M 5.265625 -2.703125 C 5.722656 -2.703125 6.101562 -2.867188 6.40625 -3.203125 C 6.707031 -3.546875 6.859375 -4.035156 6.859375 -4.671875 C 6.859375 -5.304688 6.707031 -5.785156 6.40625 -6.109375 C 6.101562 -6.441406 5.726562 -6.609375 5.28125 -6.609375 C 4.84375 -6.609375 4.472656 -6.441406 4.171875 -6.109375 C 3.867188 -5.785156 3.71875 -5.304688 3.71875 -4.671875 C 3.71875 -4.023438 3.863281 -3.535156 4.15625 -3.203125 C 4.445312 -2.867188 4.816406 -2.703125 5.265625 -2.703125 Z M 5.265625 -2.703125 "/></g></g></g><g fill="#000000" fill-opacity="1"><g transform="translate(77.723987, 75.86559)"><g><path d="M 7.0625 -9.40625 C 8.125 -9.40625 8.96875 -9.046875 9.59375 -8.328125 C 10.226562 -7.617188 10.546875 -6.65625 10.546875 -5.4375 L 10.546875 0 L 7.28125 0 L 7.28125 -5 C 7.28125 -5.53125 7.140625 -5.945312 6.859375 -6.25 C 6.585938 -6.5625 6.21875 -6.71875 5.75 -6.71875 C 5.257812 -6.71875 4.875 -6.5625 4.59375 -6.25 C 4.320312 -5.945312 4.1875 -5.53125 4.1875 -5 L 4.1875 0 L 0.9375 0 L 0.9375 -12.296875 L 4.1875 -12.296875 L 4.1875 -8 C 4.476562 -8.414062 4.867188 -8.753906 5.359375 -9.015625 C 5.847656 -9.273438 6.414062 -9.40625 7.0625 -9.40625 Z M 7.0625 -9.40625 "/></g></g></g><g fill="#000000" fill-opacity="1"><g transform="translate(89.124805, 75.86559)"><g><path d="M 2.578125 -10.1875 C 2.003906 -10.1875 1.539062 -10.34375 1.1875 -10.65625 C 0.84375 -10.976562 0.671875 -11.378906 0.671875 -11.859375 C 0.671875 -12.335938 0.84375 -12.738281 1.1875 -13.0625 C 1.539062 -13.382812 2.003906 -13.546875 2.578125 -13.546875 C 3.140625 -13.546875 3.59375 -13.382812 3.9375 -13.0625 C 4.289062 -12.738281 4.46875 -12.335938 4.46875 -11.859375 C 4.46875 -11.378906 4.289062 -10.976562 3.9375 -10.65625 C 3.59375 -10.34375 3.140625 -10.1875 2.578125 -10.1875 Z M 4.1875 -9.328125 L 4.1875 0 L 0.9375 0 L 0.9375 -9.328125 Z M 4.1875 -9.328125 "/></g></g></g><g fill="#000000" fill-opacity="1"><g transform="translate(94.243535, 75.86559)"><g><path d="M 5.265625 0.109375 C 4.335938 0.109375 3.503906 -0.0820312 2.765625 -0.46875 C 2.023438 -0.851562 1.445312 -1.40625 1.03125 -2.125 C 0.613281 -2.84375 0.40625 -3.691406 0.40625 -4.671875 C 0.40625 -5.640625 0.613281 -6.484375 1.03125 -7.203125 C 1.457031 -7.921875 2.039062 -8.472656 2.78125 -8.859375 C 3.519531 -9.242188 4.351562 -9.4375 5.28125 -9.4375 C 6.21875 -9.4375 7.050781 -9.242188 7.78125 -8.859375 C 8.519531 -8.472656 9.101562 -7.921875 9.53125 -7.203125 C 9.957031 -6.484375 10.171875 -5.640625 10.171875 -4.671875 C 10.171875 -3.703125 9.957031 -2.851562 9.53125 -2.125 C 9.101562 -1.40625 8.519531 -0.851562 7.78125 -0.46875 C 7.039062 -0.0820312 6.203125 0.109375 5.265625 0.109375 Z M 5.265625 -2.703125 C 5.722656 -2.703125 6.101562 -2.867188 6.40625 -3.203125 C 6.707031 -3.546875 6.859375 -4.035156 6.859375 -4.671875 C 6.859375 -5.304688 6.707031 -5.785156 6.40625 -6.109375 C 6.101562 -6.441406 5.726562 -6.609375 5.28125 -6.609375 C 4.84375 -6.609375 4.472656 -6.441406 4.171875 -6.109375 C 3.867188 -5.785156 3.71875 -5.304688 3.71875 -4.671875 C 3.71875 -4.023438 3.863281 -3.535156 4.15625 -3.203125 C 4.445312 -2.867188 4.816406 -2.703125 5.265625 -2.703125 Z M 5.265625 -2.703125 "/></g></g></g><g clip-path="url(#83e2182b7f)"><path fill="#5e1ff0" d="M 87.96875 56 L 87.089844 56 C 86.925781 56 86.761719 55.9375 86.640625 55.824219 L 84.875 54.230469 C 84.761719 54.125 84.6875 53.984375 84.664062 53.832031 L 84.59375 53.390625 L 83.035156 54.527344 C 82.769531 54.722656 82.398438 54.691406 82.164062 54.457031 L 81.621094 53.914062 L 80.707031 53.671875 L 80.160156 53.925781 C 80.03125 53.984375 79.890625 54.003906 79.753906 53.976562 L 78.9375 53.824219 C 78.777344 53.796875 78.636719 53.710938 78.535156 53.585938 L 78.074219 53.007812 L 75.808594 52.628906 C 75.519531 52.582031 75.292969 52.347656 75.253906 52.054688 L 75.039062 50.480469 L 74.546875 50.105469 L 73.941406 50.507812 C 73.832031 50.582031 73.699219 50.625 73.570312 50.625 L 71.890625 50.625 C 71.515625 50.625 71.21875 50.324219 71.21875 49.953125 L 71.21875 26.433594 C 71.21875 26.0625 71.515625 25.761719 71.890625 25.761719 L 81.296875 25.761719 C 81.472656 25.761719 81.644531 25.832031 81.769531 25.960938 L 82.917969 27.105469 L 85.328125 27.105469 C 85.582031 27.105469 85.8125 27.25 85.929688 27.476562 L 86.414062 28.449219 L 87.140625 28.449219 L 88.984375 27.21875 C 89.09375 27.144531 89.226562 27.105469 89.359375 27.105469 L 91.785156 27.105469 L 94.476562 24.65625 C 94.527344 24.613281 94.585938 24.574219 94.648438 24.542969 L 99.15625 22.464844 C 99.355469 22.371094 99.589844 22.382812 99.785156 22.5 C 99.972656 22.613281 100.097656 22.816406 100.109375 23.039062 L 100.78125 35.132812 C 100.789062 35.316406 100.722656 35.496094 100.597656 35.632812 C 100.46875 35.765625 100.292969 35.839844 100.109375 35.839844 L 99.46875 35.839844 L 100.027344 36.863281 C 100.09375 36.984375 100.121094 37.121094 100.105469 37.257812 L 99.886719 39.273438 L 99.117188 43.386719 C 99.097656 43.484375 99.058594 43.578125 99 43.65625 L 97.953125 45.097656 C 97.925781 45.132812 97.894531 45.167969 97.859375 45.199219 L 96.515625 46.414062 C 96.496094 46.429688 96.476562 46.449219 96.453125 46.460938 L 95.5 47.140625 C 95.25 47.316406 94.914062 47.304688 94.679688 47.105469 L 94.371094 46.851562 L 92.71875 48.675781 L 92.71875 49.136719 L 93.238281 49.78125 C 93.398438 49.976562 93.433594 50.246094 93.332031 50.476562 L 92.996094 51.234375 C 92.917969 51.40625 92.773438 51.535156 92.59375 51.597656 L 91.585938 51.933594 C 91.378906 52 91.15625 51.96875 90.980469 51.839844 C 90.808594 51.714844 90.703125 51.515625 90.703125 51.300781 L 90.5625 51.6875 L 90.300781 53.59375 C 90.277344 53.765625 90.1875 53.921875 90.050781 54.027344 L 89.601562 54.378906 L 89.328125 55.269531 C 89.265625 55.476562 89.109375 55.636719 88.910156 55.707031 L 88.191406 55.960938 C 88.121094 55.984375 88.046875 56 87.96875 56 Z M 87.96875 56 " fill-opacity="1" fill-rule="nonzero"/></g></svg>