<svg xmlns="http://www.w3.org/2000/svg" xmlns:xlink="http://www.w3.org/1999/xlink" width="230" zoomAndPan="magnify" viewBox="0 0 172.5 112.499997" height="150" preserveAspectRatio="xMidYMid meet" version="1.0"><defs><g/><clipPath id="a5f493318d"><path d="M 0.132812 0 L 171.871094 0 L 171.871094 112.003906 L 0.132812 112.003906 Z M 0.132812 0 " clip-rule="nonzero"/></clipPath><clipPath id="4d9a35d8b6"><path d="M 60.050781 22.199219 L 112 22.199219 L 112 55.800781 L 60.050781 55.800781 Z M 60.050781 22.199219 " clip-rule="nonzero"/></clipPath></defs><g clip-path="url(#a5f493318d)"><path fill="#ffffff" d="M 0.132812 0 L 171.871094 0 L 171.871094 112.003906 L 0.132812 112.003906 Z M 0.132812 0 " fill-opacity="1" fill-rule="nonzero"/><path fill="#f3f1ea" d="M 0.132812 0 L 171.871094 0 L 171.871094 112.003906 L 0.132812 112.003906 Z M 0.132812 0 " fill-opacity="1" fill-rule="nonzero"/></g><g fill="#000000" fill-opacity="1"><g transform="translate(26.142533, 75.865618)"><g><path d="M 4.1875 -8.03125 C 4.445312 -8.457031 4.804688 -8.796875 5.265625 -9.046875 C 5.734375 -9.304688 6.285156 -9.4375 6.921875 -9.4375 C 7.660156 -9.4375 8.332031 -9.242188 8.9375 -8.859375 C 9.539062 -8.472656 10.015625 -7.921875 10.359375 -7.203125 C 10.710938 -6.484375 10.890625 -5.640625 10.890625 -4.671875 C 10.890625 -3.703125 10.710938 -2.851562 10.359375 -2.125 C 10.015625 -1.40625 9.539062 -0.851562 8.9375 -0.46875 C 8.332031 -0.0820312 7.660156 0.109375 6.921875 0.109375 C 6.285156 0.109375 5.738281 -0.015625 5.28125 -0.265625 C 4.820312 -0.515625 4.457031 -0.859375 4.1875 -1.296875 L 4.1875 4.453125 L 0.9375 4.453125 L 0.9375 -9.328125 L 4.1875 -9.328125 Z M 7.578125 -4.671875 C 7.578125 -5.285156 7.410156 -5.757812 7.078125 -6.09375 C 6.753906 -6.425781 6.359375 -6.59375 5.890625 -6.59375 C 5.410156 -6.59375 5.003906 -6.421875 4.671875 -6.078125 C 4.347656 -5.734375 4.1875 -5.265625 4.1875 -4.671875 C 4.1875 -4.054688 4.347656 -3.578125 4.671875 -3.234375 C 5.003906 -2.890625 5.410156 -2.71875 5.890625 -2.71875 C 6.359375 -2.71875 6.753906 -2.894531 7.078125 -3.25 C 7.410156 -3.601562 7.578125 -4.078125 7.578125 -4.671875 Z M 7.578125 -4.671875 "/></g></g></g><g fill="#000000" fill-opacity="1"><g transform="translate(37.443626, 75.865618)"><g><path d="M 9.84375 -4.765625 C 9.84375 -4.515625 9.828125 -4.257812 9.796875 -4 L 3.625 -4 C 3.65625 -3.488281 3.796875 -3.109375 4.046875 -2.859375 C 4.296875 -2.617188 4.613281 -2.5 5 -2.5 C 5.539062 -2.5 5.929688 -2.738281 6.171875 -3.21875 L 9.640625 -3.21875 C 9.492188 -2.582031 9.210938 -2.007812 8.796875 -1.5 C 8.378906 -1 7.851562 -0.601562 7.21875 -0.3125 C 6.59375 -0.03125 5.898438 0.109375 5.140625 0.109375 C 4.210938 0.109375 3.390625 -0.0820312 2.671875 -0.46875 C 1.960938 -0.851562 1.40625 -1.40625 1 -2.125 C 0.601562 -2.84375 0.40625 -3.691406 0.40625 -4.671875 C 0.40625 -5.648438 0.601562 -6.492188 1 -7.203125 C 1.394531 -7.921875 1.945312 -8.472656 2.65625 -8.859375 C 3.375 -9.242188 4.203125 -9.4375 5.140625 -9.4375 C 6.054688 -9.4375 6.867188 -9.25 7.578125 -8.875 C 8.285156 -8.5 8.835938 -7.957031 9.234375 -7.25 C 9.640625 -6.550781 9.84375 -5.722656 9.84375 -4.765625 Z M 6.515625 -5.59375 C 6.515625 -5.988281 6.378906 -6.296875 6.109375 -6.515625 C 5.847656 -6.742188 5.519531 -6.859375 5.125 -6.859375 C 4.71875 -6.859375 4.382812 -6.75 4.125 -6.53125 C 3.875 -6.320312 3.710938 -6.007812 3.640625 -5.59375 Z M 6.515625 -5.59375 "/></g></g></g><g fill="#000000" fill-opacity="1"><g transform="translate(47.681087, 75.865618)"><g><path d="M 7.03125 -9.40625 C 8.101562 -9.40625 8.957031 -9.046875 9.59375 -8.328125 C 10.226562 -7.617188 10.546875 -6.65625 10.546875 -5.4375 L 10.546875 0 L 7.28125 0 L 7.28125 -5 C 7.28125 -5.53125 7.140625 -5.945312 6.859375 -6.25 C 6.585938 -6.5625 6.21875 -6.71875 5.75 -6.71875 C 5.257812 -6.71875 4.875 -6.5625 4.59375 -6.25 C 4.320312 -5.945312 4.1875 -5.53125 4.1875 -5 L 4.1875 0 L 0.9375 0 L 0.9375 -9.328125 L 4.1875 -9.328125 L 4.1875 -8 C 4.476562 -8.414062 4.863281 -8.753906 5.34375 -9.015625 C 5.832031 -9.273438 6.394531 -9.40625 7.03125 -9.40625 Z M 7.03125 -9.40625 "/></g></g></g><g fill="#000000" fill-opacity="1"><g transform="translate(59.081904, 75.865618)"><g><path d="M 7.03125 -9.40625 C 8.101562 -9.40625 8.957031 -9.046875 9.59375 -8.328125 C 10.226562 -7.617188 10.546875 -6.65625 10.546875 -5.4375 L 10.546875 0 L 7.28125 0 L 7.28125 -5 C 7.28125 -5.53125 7.140625 -5.945312 6.859375 -6.25 C 6.585938 -6.5625 6.21875 -6.71875 5.75 -6.71875 C 5.257812 -6.71875 4.875 -6.5625 4.59375 -6.25 C 4.320312 -5.945312 4.1875 -5.53125 4.1875 -5 L 4.1875 0 L 0.9375 0 L 0.9375 -9.328125 L 4.1875 -9.328125 L 4.1875 -8 C 4.476562 -8.414062 4.863281 -8.753906 5.34375 -9.015625 C 5.832031 -9.273438 6.394531 -9.40625 7.03125 -9.40625 Z M 7.03125 -9.40625 "/></g></g></g><g fill="#000000" fill-opacity="1"><g transform="translate(70.482721, 75.865618)"><g><path d="M 4.90625 0.109375 C 4.0625 0.109375 3.304688 -0.03125 2.640625 -0.3125 C 1.984375 -0.59375 1.460938 -0.976562 1.078125 -1.46875 C 0.703125 -1.96875 0.492188 -2.523438 0.453125 -3.140625 L 3.609375 -3.140625 C 3.648438 -2.835938 3.785156 -2.601562 4.015625 -2.4375 C 4.253906 -2.269531 4.546875 -2.1875 4.890625 -2.1875 C 5.148438 -2.1875 5.359375 -2.242188 5.515625 -2.359375 C 5.671875 -2.472656 5.75 -2.617188 5.75 -2.796875 C 5.75 -3.023438 5.617188 -3.191406 5.359375 -3.296875 C 5.109375 -3.410156 4.691406 -3.535156 4.109375 -3.671875 C 3.441406 -3.804688 2.882812 -3.957031 2.4375 -4.125 C 2 -4.289062 1.613281 -4.5625 1.28125 -4.9375 C 0.957031 -5.3125 0.796875 -5.820312 0.796875 -6.46875 C 0.796875 -7.019531 0.945312 -7.519531 1.25 -7.96875 C 1.550781 -8.414062 1.988281 -8.769531 2.5625 -9.03125 C 3.144531 -9.300781 3.847656 -9.4375 4.671875 -9.4375 C 5.890625 -9.4375 6.847656 -9.132812 7.546875 -8.53125 C 8.242188 -7.9375 8.648438 -7.15625 8.765625 -6.1875 L 5.8125 -6.1875 C 5.757812 -6.488281 5.628906 -6.71875 5.421875 -6.875 C 5.222656 -7.03125 4.953125 -7.109375 4.609375 -7.109375 C 4.335938 -7.109375 4.132812 -7.054688 4 -6.953125 C 3.863281 -6.859375 3.796875 -6.722656 3.796875 -6.546875 C 3.796875 -6.328125 3.921875 -6.160156 4.171875 -6.046875 C 4.429688 -5.929688 4.84375 -5.8125 5.40625 -5.6875 C 6.082031 -5.539062 6.644531 -5.378906 7.09375 -5.203125 C 7.539062 -5.023438 7.929688 -4.738281 8.265625 -4.34375 C 8.609375 -3.945312 8.78125 -3.414062 8.78125 -2.75 C 8.78125 -2.195312 8.617188 -1.703125 8.296875 -1.265625 C 7.984375 -0.835938 7.535156 -0.5 6.953125 -0.25 C 6.367188 -0.0078125 5.6875 0.109375 4.90625 0.109375 Z M 4.90625 0.109375 "/></g></g></g><g fill="#000000" fill-opacity="1"><g transform="translate(79.922453, 75.865618)"><g><path d="M 10.96875 -9.328125 L 5.046875 4.4375 L 1.515625 4.4375 L 3.734375 -0.40625 L -0.078125 -9.328125 L 3.546875 -9.328125 L 5.5 -4.046875 L 7.390625 -9.328125 Z M 10.96875 -9.328125 "/></g></g></g><g fill="#000000" fill-opacity="1"><g transform="translate(90.808072, 75.865618)"><g><path d="M 4.1875 -12.296875 L 4.1875 0 L 0.9375 0 L 0.9375 -12.296875 Z M 4.1875 -12.296875 "/></g></g></g><g fill="#000000" fill-opacity="1"><g transform="translate(95.926802, 75.865618)"><g><path d="M 5.40625 -3.078125 L 7.15625 -9.328125 L 10.625 -9.328125 L 7.421875 0 L 3.359375 0 L 0.15625 -9.328125 L 3.625 -9.328125 Z M 5.40625 -3.078125 "/></g></g></g><g fill="#000000" fill-opacity="1"><g transform="translate(106.712697, 75.865618)"><g><path d="M 0.40625 -4.671875 C 0.40625 -5.640625 0.578125 -6.484375 0.921875 -7.203125 C 1.273438 -7.921875 1.753906 -8.472656 2.359375 -8.859375 C 2.960938 -9.242188 3.632812 -9.4375 4.375 -9.4375 C 5.019531 -9.4375 5.570312 -9.304688 6.03125 -9.046875 C 6.5 -8.796875 6.859375 -8.457031 7.109375 -8.03125 L 7.109375 -9.328125 L 10.375 -9.328125 L 10.375 0 L 7.109375 0 L 7.109375 -1.296875 C 6.859375 -0.859375 6.492188 -0.515625 6.015625 -0.265625 C 5.546875 -0.015625 5 0.109375 4.375 0.109375 C 3.632812 0.109375 2.960938 -0.0820312 2.359375 -0.46875 C 1.753906 -0.851562 1.273438 -1.40625 0.921875 -2.125 C 0.578125 -2.851562 0.40625 -3.703125 0.40625 -4.671875 Z M 7.109375 -4.671875 C 7.109375 -5.265625 6.945312 -5.734375 6.625 -6.078125 C 6.300781 -6.421875 5.898438 -6.59375 5.421875 -6.59375 C 4.929688 -6.59375 4.523438 -6.425781 4.203125 -6.09375 C 3.878906 -5.757812 3.71875 -5.285156 3.71875 -4.671875 C 3.71875 -4.078125 3.878906 -3.601562 4.203125 -3.25 C 4.523438 -2.894531 4.929688 -2.71875 5.421875 -2.71875 C 5.898438 -2.71875 6.300781 -2.890625 6.625 -3.234375 C 6.945312 -3.578125 7.109375 -4.054688 7.109375 -4.671875 Z M 7.109375 -4.671875 "/></g></g></g><g fill="#000000" fill-opacity="1"><g transform="translate(118.01379, 75.865618)"><g><path d="M 7.03125 -9.40625 C 8.101562 -9.40625 8.957031 -9.046875 9.59375 -8.328125 C 10.226562 -7.617188 10.546875 -6.65625 10.546875 -5.4375 L 10.546875 0 L 7.28125 0 L 7.28125 -5 C 7.28125 -5.53125 7.140625 -5.945312 6.859375 -6.25 C 6.585938 -6.5625 6.21875 -6.71875 5.75 -6.71875 C 5.257812 -6.71875 4.875 -6.5625 4.59375 -6.25 C 4.320312 -5.945312 4.1875 -5.53125 4.1875 -5 L 4.1875 0 L 0.9375 0 L 0.9375 -9.328125 L 4.1875 -9.328125 L 4.1875 -8 C 4.476562 -8.414062 4.863281 -8.753906 5.34375 -9.015625 C 5.832031 -9.273438 6.394531 -9.40625 7.03125 -9.40625 Z M 7.03125 -9.40625 "/></g></g></g><g fill="#000000" fill-opacity="1"><g transform="translate(129.414607, 75.865618)"><g><path d="M 2.578125 -10.1875 C 2.003906 -10.1875 1.539062 -10.34375 1.1875 -10.65625 C 0.84375 -10.976562 0.671875 -11.378906 0.671875 -11.859375 C 0.671875 -12.335938 0.84375 -12.738281 1.1875 -13.0625 C 1.539062 -13.382812 2.003906 -13.546875 2.578125 -13.546875 C 3.140625 -13.546875 3.59375 -13.382812 3.9375 -13.0625 C 4.289062 -12.738281 4.46875 -12.335938 4.46875 -11.859375 C 4.46875 -11.378906 4.289062 -10.976562 3.9375 -10.65625 C 3.59375 -10.34375 3.140625 -10.1875 2.578125 -10.1875 Z M 4.1875 -9.328125 L 4.1875 0 L 0.9375 0 L 0.9375 -9.328125 Z M 4.1875 -9.328125 "/></g></g></g><g fill="#000000" fill-opacity="1"><g transform="translate(134.533337, 75.865618)"><g><path d="M 0.40625 -4.671875 C 0.40625 -5.640625 0.578125 -6.484375 0.921875 -7.203125 C 1.273438 -7.921875 1.753906 -8.472656 2.359375 -8.859375 C 2.960938 -9.242188 3.632812 -9.4375 4.375 -9.4375 C 5.019531 -9.4375 5.570312 -9.304688 6.03125 -9.046875 C 6.5 -8.796875 6.859375 -8.457031 7.109375 -8.03125 L 7.109375 -9.328125 L 10.375 -9.328125 L 10.375 0 L 7.109375 0 L 7.109375 -1.296875 C 6.859375 -0.859375 6.492188 -0.515625 6.015625 -0.265625 C 5.546875 -0.015625 5 0.109375 4.375 0.109375 C 3.632812 0.109375 2.960938 -0.0820312 2.359375 -0.46875 C 1.753906 -0.851562 1.273438 -1.40625 0.921875 -2.125 C 0.578125 -2.851562 0.40625 -3.703125 0.40625 -4.671875 Z M 7.109375 -4.671875 C 7.109375 -5.265625 6.945312 -5.734375 6.625 -6.078125 C 6.300781 -6.421875 5.898438 -6.59375 5.421875 -6.59375 C 4.929688 -6.59375 4.523438 -6.425781 4.203125 -6.09375 C 3.878906 -5.757812 3.71875 -5.285156 3.71875 -4.671875 C 3.71875 -4.078125 3.878906 -3.601562 4.203125 -3.25 C 4.523438 -2.894531 4.929688 -2.71875 5.421875 -2.71875 C 5.898438 -2.71875 6.300781 -2.890625 6.625 -3.234375 C 6.945312 -3.578125 7.109375 -4.054688 7.109375 -4.671875 Z M 7.109375 -4.671875 "/></g></g></g><g clip-path="url(#4d9a35d8b6)"><path fill="#5e1ff0" d="M 109.152344 46.859375 L 108.671875 45.15625 L 107.402344 44.734375 L 107.402344 42.480469 L 108.125 42.058594 L 108.53125 40.648438 L 108.53125 39.097656 L 110.082031 37.332031 L 110.425781 35.71875 L 111.910156 34.59375 L 111.234375 33.464844 L 109.890625 33.078125 L 108.960938 31.949219 L 108.53125 28.960938 L 105.148438 26.707031 L 67.972656 26.707031 L 67.972656 22.199219 L 64.589844 24.453125 L 63.464844 24.453125 L 61.210938 25.578125 L 60.085938 54.871094 L 69.097656 56 L 102.898438 56 L 104.023438 54.871094 L 105.703125 54.871094 L 107.625 54.25 L 108.675781 52.839844 L 109.765625 51.722656 L 111.910156 50.367188 L 111.910156 49.800781 Z M 109.152344 46.859375 " fill-opacity="1" fill-rule="nonzero"/></g></svg>